%TF.GenerationSoftware,KiCad,Pcbnew,9.0.6*%
%TF.CreationDate,2025-12-08T15:30:13-06:00*%
%TF.ProjectId,SCH_PowerSupply,5343485f-506f-4776-9572-537570706c79,rev?*%
%TF.SameCoordinates,Original*%
%TF.FileFunction,OtherDrawing,Comment*%
%FSLAX46Y46*%
G04 Gerber Fmt 4.6, Leading zero omitted, Abs format (unit mm)*
G04 Created by KiCad (PCBNEW 9.0.6) date 2025-12-08 15:30:13*
%MOMM*%
%LPD*%
G01*
G04 APERTURE LIST*
G04 Aperture macros list*
%AMRoundRect*
0 Rectangle with rounded corners*
0 $1 Rounding radius*
0 $2 $3 $4 $5 $6 $7 $8 $9 X,Y pos of 4 corners*
0 Add a 4 corners polygon primitive as box body*
4,1,4,$2,$3,$4,$5,$6,$7,$8,$9,$2,$3,0*
0 Add four circle primitives for the rounded corners*
1,1,$1+$1,$2,$3*
1,1,$1+$1,$4,$5*
1,1,$1+$1,$6,$7*
1,1,$1+$1,$8,$9*
0 Add four rect primitives between the rounded corners*
20,1,$1+$1,$2,$3,$4,$5,0*
20,1,$1+$1,$4,$5,$6,$7,0*
20,1,$1+$1,$6,$7,$8,$9,0*
20,1,$1+$1,$8,$9,$2,$3,0*%
G04 Aperture macros list end*
%ADD10C,0.200000*%
%TA.AperFunction,ComponentPad*%
%ADD11R,1.905000X2.000000*%
%TD*%
%TA.AperFunction,ComponentPad*%
%ADD12O,1.905000X2.000000*%
%TD*%
%TA.AperFunction,ComponentPad*%
%ADD13C,1.500000*%
%TD*%
%TA.AperFunction,ComponentPad*%
%ADD14R,1.500000X1.500000*%
%TD*%
%TA.AperFunction,ComponentPad*%
%ADD15O,1.600000X2.400000*%
%TD*%
%TA.AperFunction,ComponentPad*%
%ADD16RoundRect,0.250000X0.550000X-0.950000X0.550000X0.950000X-0.550000X0.950000X-0.550000X-0.950000X0*%
%TD*%
%TA.AperFunction,ComponentPad*%
%ADD17C,2.340000*%
%TD*%
%TA.AperFunction,ComponentPad*%
%ADD18C,2.800000*%
%TD*%
%TA.AperFunction,ComponentPad*%
%ADD19RoundRect,0.250001X-1.149999X-1.149999X1.149999X-1.149999X1.149999X1.149999X-1.149999X1.149999X0*%
%TD*%
%TA.AperFunction,ComponentPad*%
%ADD20C,1.600000*%
%TD*%
%TA.AperFunction,ComponentPad*%
%ADD21RoundRect,0.250001X1.149999X-1.149999X1.149999X1.149999X-1.149999X1.149999X-1.149999X-1.149999X0*%
%TD*%
%TA.AperFunction,ComponentPad*%
%ADD22RoundRect,0.250000X-0.550000X0.550000X-0.550000X-0.550000X0.550000X-0.550000X0.550000X0.550000X0*%
%TD*%
%TA.AperFunction,ComponentPad*%
%ADD23C,2.000000*%
%TD*%
%TA.AperFunction,ComponentPad*%
%ADD24RoundRect,0.250000X0.750000X-0.750000X0.750000X0.750000X-0.750000X0.750000X-0.750000X-0.750000X0*%
%TD*%
%TA.AperFunction,ComponentPad*%
%ADD25C,1.371600*%
%TD*%
%TA.AperFunction,ComponentPad*%
%ADD26R,1.371600X1.371600*%
%TD*%
%TA.AperFunction,ComponentPad*%
%ADD27C,2.400000*%
%TD*%
%TA.AperFunction,ComponentPad*%
%ADD28RoundRect,0.250001X-0.949999X0.949999X-0.949999X-0.949999X0.949999X-0.949999X0.949999X0.949999X0*%
%TD*%
%TA.AperFunction,ComponentPad*%
%ADD29C,1.400000*%
%TD*%
%TA.AperFunction,ComponentPad*%
%ADD30R,2.400000X2.400000*%
%TD*%
%TA.AperFunction,ComponentPad*%
%ADD31RoundRect,0.250000X-0.750000X-0.750000X0.750000X-0.750000X0.750000X0.750000X-0.750000X0.750000X0*%
%TD*%
%TA.AperFunction,ComponentPad*%
%ADD32RoundRect,0.250000X0.550000X-0.550000X0.550000X0.550000X-0.550000X0.550000X-0.550000X-0.550000X0*%
%TD*%
%TA.AperFunction,ComponentPad*%
%ADD33C,2.500000*%
%TD*%
%TA.AperFunction,ComponentPad*%
%ADD34C,3.000000*%
%TD*%
%TA.AperFunction,ComponentPad*%
%ADD35RoundRect,0.250001X1.149999X1.149999X-1.149999X1.149999X-1.149999X-1.149999X1.149999X-1.149999X0*%
%TD*%
%TA.AperFunction,ComponentPad*%
%ADD36C,1.295400*%
%TD*%
%TA.AperFunction,ComponentPad*%
%ADD37R,1.295400X1.295400*%
%TD*%
%TA.AperFunction,Conductor*%
%ADD38C,2.000000*%
%TD*%
G04 APERTURE END LIST*
D10*
X58540000Y-83055000D02*
X83540000Y-83055000D01*
X83540000Y-92055000D01*
X58540000Y-92055000D01*
X58540000Y-83055000D01*
X34500000Y-24500000D02*
X109500000Y-24500000D01*
X109500000Y-64500000D01*
X34500000Y-64500000D01*
X34500000Y-24500000D01*
X85500000Y-83500000D02*
X110500000Y-83500000D01*
X110500000Y-92500000D01*
X85500000Y-92500000D01*
X85500000Y-83500000D01*
X89500000Y-179500000D02*
X114500000Y-179500000D01*
X114500000Y-188500000D01*
X89500000Y-188500000D01*
X89500000Y-179500000D01*
X32000000Y-17000000D02*
X142000000Y-17000000D01*
X142000000Y-197000000D01*
X32000000Y-197000000D01*
X32000000Y-17000000D01*
D11*
%TO.P,U2,1*%
%TO.N,Net-(R3-Pad1)*%
X68500000Y-95500000D03*
D12*
%TO.P,U2,2,OUT*%
%TO.N,Net-(J3-Pin_1)*%
X71040000Y-95500000D03*
%TO.P,U2,3,IN*%
%TO.N,VAC*%
X73580000Y-95500000D03*
%TD*%
D13*
%TO.P,Q1,3,E*%
%TO.N,GND_C*%
X86360000Y-144061425D03*
%TO.P,Q1,2,B*%
%TO.N,Net-(Q1-B)*%
X86360000Y-146601425D03*
D14*
%TO.P,Q1,1,C*%
%TO.N,RELE*%
X86360000Y-149141425D03*
%TD*%
D15*
%TO.P,U7,14*%
%TO.N,N/C*%
X47380000Y-179791425D03*
%TO.P,U7,13*%
X49920000Y-179791425D03*
%TO.P,U7,12*%
X52460000Y-179791425D03*
%TO.P,U7,11*%
X55000000Y-179791425D03*
%TO.P,U7,10*%
X57540000Y-179791425D03*
%TO.P,U7,9*%
X60080000Y-179791425D03*
%TO.P,U7,8*%
X62620000Y-179791425D03*
%TO.P,U7,7*%
X62620000Y-187411425D03*
%TO.P,U7,6*%
%TO.N,Net-(U5-Pad13)*%
X60080000Y-187411425D03*
%TO.P,U7,5*%
%TO.N,Net-(U5-Pad10)*%
X57540000Y-187411425D03*
%TO.P,U7,4*%
X55000000Y-187411425D03*
%TO.P,U7,3*%
%TO.N,Net-(U5-Pad11)*%
X52460000Y-187411425D03*
%TO.P,U7,2*%
%TO.N,SW*%
X49920000Y-187411425D03*
D16*
%TO.P,U7,1*%
%TO.N,Net-(U5-Pad8)*%
X47380000Y-187411425D03*
%TD*%
D17*
%TO.P,RV2,3,3*%
%TO.N,Net-(R9-Pad1)*%
X83454953Y-160975000D03*
%TO.P,RV2,2,2*%
%TO.N,Net-(U4A--)*%
X88454953Y-160975000D03*
%TO.P,RV2,1,1*%
X93454953Y-160975000D03*
%TD*%
D18*
%TO.P,J6,2,Pin_2*%
%TO.N,15GIN*%
X79750000Y-146568925D03*
D19*
%TO.P,J6,1,Pin_1*%
%TO.N,3.3GIN*%
X74750000Y-146568925D03*
%TD*%
D20*
%TO.P,R1,2*%
%TO.N,GND_C*%
X68000000Y-167106425D03*
%TO.P,R1,1*%
%TO.N,Net-(R1-Pad1)*%
X68000000Y-169646425D03*
%TD*%
%TO.P,R4,2*%
%TO.N,Net-(R3-Pad1)*%
X68505000Y-100000000D03*
%TO.P,R4,1*%
%TO.N,Net-(J3-Pin_1)*%
X71045000Y-100000000D03*
%TD*%
D18*
%TO.P,J4,2,Pin_2*%
%TO.N,5V*%
X53750000Y-146068925D03*
D19*
%TO.P,J4,1,Pin_1*%
%TO.N,SW*%
X48750000Y-146068925D03*
%TD*%
D18*
%TO.P,J3,2,Pin_2*%
%TO.N,unconnected-(J3-Pin_2-Pad2)*%
X118967500Y-97750000D03*
D21*
%TO.P,J3,1,Pin_1*%
%TO.N,Net-(J3-Pin_1)*%
X118967500Y-102750000D03*
%TD*%
D20*
%TO.P,C9,2*%
%TO.N,GND*%
X92000000Y-110294888D03*
D22*
%TO.P,C9,1*%
%TO.N,Net-(J2-Pin_1)*%
X92000000Y-107794888D03*
%TD*%
D23*
%TO.P,C1,2*%
%TO.N,GND_C*%
X83000000Y-156219102D03*
D24*
%TO.P,C1,1*%
%TO.N,V_C*%
X83000000Y-159719102D03*
%TD*%
D20*
%TO.P,R11,2*%
%TO.N,GND_C*%
X76500000Y-167561425D03*
%TO.P,R11,1*%
%TO.N,15GIN*%
X76500000Y-170101425D03*
%TD*%
%TO.P,R13,2*%
%TO.N,GND_C*%
X87495000Y-174601425D03*
%TO.P,R13,1*%
%TO.N,Net-(R13-Pad1)*%
X84955000Y-174601425D03*
%TD*%
D18*
%TO.P,J2,2,Pin_2*%
%TO.N,unconnected-(J2-Pin_2-Pad2)*%
X118967500Y-85250000D03*
D21*
%TO.P,J2,1,Pin_1*%
%TO.N,Net-(J2-Pin_1)*%
X118967500Y-90250000D03*
%TD*%
D18*
%TO.P,J9,2,Pin_2*%
%TO.N,5V*%
X67000000Y-146601425D03*
D19*
%TO.P,J9,1,Pin_1*%
%TO.N,RELE*%
X62000000Y-146601425D03*
%TD*%
D18*
%TO.P,J1,2,Pin_2*%
%TO.N,Net-(D1-2)*%
X50750000Y-86967500D03*
D19*
%TO.P,J1,1,Pin_1*%
%TO.N,Net-(D1-1)*%
X45750000Y-86967500D03*
%TD*%
D17*
%TO.P,RV3,3,3*%
%TO.N,Net-(R13-Pad1)*%
X89379953Y-160950000D03*
%TO.P,RV3,2,2*%
%TO.N,Net-(U4B--)*%
X94379953Y-160950000D03*
%TO.P,RV3,1,1*%
X99379953Y-160950000D03*
%TD*%
D15*
%TO.P,U5,14,VCC*%
%TO.N,5V*%
X47380000Y-167291425D03*
%TO.P,U5,13*%
%TO.N,Net-(U5-Pad13)*%
X49920000Y-167291425D03*
%TO.P,U5,12*%
%TO.N,RST*%
X52460000Y-167291425D03*
%TO.P,U5,11*%
%TO.N,Net-(U5-Pad11)*%
X55000000Y-167291425D03*
%TO.P,U5,10*%
%TO.N,Net-(U5-Pad10)*%
X57540000Y-167291425D03*
%TO.P,U5,9*%
%TO.N,Net-(U5-Pad9)*%
X60080000Y-167291425D03*
%TO.P,U5,8*%
%TO.N,Net-(U5-Pad8)*%
X62620000Y-167291425D03*
%TO.P,U5,7,GND*%
%TO.N,GND_C*%
X62620000Y-174911425D03*
%TO.P,U5,6*%
%TO.N,Net-(U5-Pad6)*%
X60080000Y-174911425D03*
%TO.P,U5,5*%
%TO.N,Net-(U5-Pad5)*%
X57540000Y-174911425D03*
%TO.P,U5,4*%
%TO.N,SC*%
X55000000Y-174911425D03*
%TO.P,U5,3*%
%TO.N,Net-(U5-Pad3)*%
X52460000Y-174911425D03*
%TO.P,U5,2*%
%TO.N,Net-(U5-Pad2)*%
X49920000Y-174911425D03*
D16*
%TO.P,U5,1*%
%TO.N,Net-(U5-Pad1)*%
X47380000Y-174911425D03*
%TD*%
D25*
%TO.P,U4,8,V+*%
%TO.N,5V*%
X68190000Y-154791425D03*
%TO.P,U4,7*%
%TO.N,SC15*%
X70730000Y-154791425D03*
%TO.P,U4,6,-*%
%TO.N,Net-(U4B--)*%
X73270000Y-154791425D03*
%TO.P,U4,5,+*%
%TO.N,15GIN*%
X75810000Y-154791425D03*
%TO.P,U4,4,V-*%
%TO.N,GND*%
X75810000Y-162411425D03*
%TO.P,U4,3,+*%
%TO.N,3.3GIN*%
X73270000Y-162411425D03*
%TO.P,U4,2,-*%
%TO.N,Net-(U4A--)*%
X70730000Y-162411425D03*
D26*
%TO.P,U4,1*%
%TO.N,SC3.3*%
X68190000Y-162411425D03*
%TD*%
D20*
%TO.P,C6,2*%
%TO.N,GND*%
X71000000Y-106294888D03*
D22*
%TO.P,C6,1*%
%TO.N,Net-(J3-Pin_1)*%
X71000000Y-103794888D03*
%TD*%
D27*
%TO.P,C7,2*%
%TO.N,GND*%
X104000000Y-111184785D03*
D28*
%TO.P,C7,1*%
%TO.N,VAC*%
X104000000Y-106184785D03*
%TD*%
D29*
%TO.P,C5,2*%
%TO.N,GND*%
X81250000Y-98500000D03*
%TO.P,C5,1*%
%TO.N,VAC*%
X78750000Y-98500000D03*
%TD*%
D27*
%TO.P,D1,4,-*%
%TO.N,GND*%
X54230000Y-96692500D03*
%TO.P,D1,3,2*%
%TO.N,Net-(D1-2)*%
X50420000Y-96692500D03*
%TO.P,D1,2,1*%
%TO.N,Net-(D1-1)*%
X46610000Y-96692500D03*
D30*
%TO.P,D1,1,+*%
%TO.N,REG5*%
X42800000Y-96692500D03*
%TD*%
D20*
%TO.P,R9,2*%
%TO.N,GND_C*%
X73000000Y-166606425D03*
%TO.P,R9,1*%
%TO.N,Net-(R9-Pad1)*%
X73000000Y-169146425D03*
%TD*%
%TO.P,R3,2*%
%TO.N,Net-(R3-Pad2)*%
X61330000Y-95000000D03*
%TO.P,R3,1*%
%TO.N,Net-(R3-Pad1)*%
X63870000Y-95000000D03*
%TD*%
D12*
%TO.P,U1,3,IN*%
%TO.N,V_C*%
X98818575Y-176470047D03*
%TO.P,U1,2,OUT*%
%TO.N,5V*%
X101358575Y-176470047D03*
D11*
%TO.P,U1,1*%
%TO.N,Net-(R1-Pad1)*%
X103898575Y-176470047D03*
%TD*%
D17*
%TO.P,RV1,3,3*%
%TO.N,GND*%
X118500000Y-110975000D03*
%TO.P,RV1,2,2*%
X118500000Y-115975000D03*
%TO.P,RV1,1,1*%
%TO.N,Net-(R10-Pad2)*%
X118500000Y-120975000D03*
%TD*%
D20*
%TO.P,R14,2*%
%TO.N,Net-(Q1-B)*%
X68000000Y-173141425D03*
%TO.P,R14,1*%
%TO.N,BJT*%
X68000000Y-175681425D03*
%TD*%
D12*
%TO.P,U3,3,IN*%
%TO.N,VAC*%
X100040000Y-96445000D03*
%TO.P,U3,2,OUT*%
%TO.N,Net-(J2-Pin_1)*%
X97500000Y-96445000D03*
D11*
%TO.P,U3,1*%
%TO.N,Net-(R10-Pad2)*%
X94960000Y-96445000D03*
%TD*%
D23*
%TO.P,C4,2*%
%TO.N,GND*%
X82382323Y-107000000D03*
D31*
%TO.P,C4,1*%
%TO.N,VAC*%
X78882323Y-107000000D03*
%TD*%
D20*
%TO.P,C3,2*%
%TO.N,GND_C*%
X92954953Y-153180112D03*
D32*
%TO.P,C3,1*%
%TO.N,5V*%
X92954953Y-155680112D03*
%TD*%
D20*
%TO.P,R2,2*%
%TO.N,Net-(R1-Pad1)*%
X98954953Y-152980000D03*
%TO.P,R2,1*%
%TO.N,5V*%
X98954953Y-155520000D03*
%TD*%
D33*
%TO.P,K1,5*%
%TO.N,5V_C*%
X56450000Y-103450000D03*
D34*
%TO.P,K1,4*%
%TO.N,VAC*%
X56500000Y-115700000D03*
%TO.P,K1,3*%
%TO.N,unconnected-(K1-Pad3)*%
X44450000Y-115650000D03*
D33*
%TO.P,K1,2*%
%TO.N,RELE_C*%
X44450000Y-103450000D03*
D34*
%TO.P,K1,1*%
%TO.N,REG5*%
X50500000Y-101500000D03*
%TD*%
D27*
%TO.P,R7,2*%
%TO.N,GND_C*%
X85840000Y-168101425D03*
%TO.P,R7,1*%
%TO.N,3.3GIN*%
X80760000Y-168101425D03*
%TD*%
D20*
%TO.P,R15,2*%
%TO.N,SW*%
X76500000Y-173061425D03*
%TO.P,R15,1*%
%TO.N,GND_C*%
X76500000Y-175601425D03*
%TD*%
%TO.P,R6,2*%
%TO.N,Net-(R5-Pad2)*%
X64750000Y-102555000D03*
%TO.P,R6,1*%
%TO.N,GND*%
X64750000Y-105095000D03*
%TD*%
D18*
%TO.P,J7,2,Pin_2*%
%TO.N,V_C*%
X92779953Y-146532500D03*
D35*
%TO.P,J7,1,Pin_1*%
%TO.N,GND_C*%
X97779953Y-146532500D03*
%TD*%
D20*
%TO.P,R8,2*%
%TO.N,Net-(U4A--)*%
X72500000Y-172606425D03*
%TO.P,R8,1*%
%TO.N,5V*%
X72500000Y-175146425D03*
%TD*%
%TO.P,R16,2*%
%TO.N,GND_C*%
X109995000Y-146000000D03*
%TO.P,R16,1*%
%TO.N,15GIN*%
X107455000Y-146000000D03*
%TD*%
%TO.P,R12,2*%
%TO.N,Net-(U4B--)*%
X80500000Y-172561425D03*
%TO.P,R12,1*%
%TO.N,5V*%
X80500000Y-175101425D03*
%TD*%
D18*
%TO.P,J5,2,Pin_2*%
%TO.N,REG5*%
X51467500Y-125467500D03*
D19*
%TO.P,J5,1,Pin_1*%
%TO.N,GND*%
X46467500Y-125467500D03*
%TD*%
D29*
%TO.P,C2,2*%
%TO.N,GND_C*%
X102454953Y-153475000D03*
%TO.P,C2,1*%
%TO.N,V_C*%
X102454953Y-155975000D03*
%TD*%
%TO.P,C8,2*%
%TO.N,GND*%
X81250000Y-95000000D03*
%TO.P,C8,1*%
%TO.N,VAC*%
X78750000Y-95000000D03*
%TD*%
D18*
%TO.P,J8,2,Pin_2*%
%TO.N,5V_C*%
X64750000Y-124967500D03*
D19*
%TO.P,J8,1,Pin_1*%
%TO.N,RELE_C*%
X59750000Y-124967500D03*
%TD*%
D15*
%TO.P,U6,14,VCC*%
%TO.N,5V*%
X47380000Y-154791425D03*
%TO.P,U6,13*%
%TO.N,SC*%
X49920000Y-154791425D03*
%TO.P,U6,12*%
X52460000Y-154791425D03*
%TO.P,U6,11*%
%TO.N,Net-(U5-Pad9)*%
X55000000Y-154791425D03*
%TO.P,U6,10*%
%TO.N,Net-(U5-Pad6)*%
X57540000Y-154791425D03*
%TO.P,U6,9*%
%TO.N,Net-(U5-Pad2)*%
X60080000Y-154791425D03*
%TO.P,U6,8*%
%TO.N,Net-(U5-Pad3)*%
X62620000Y-154791425D03*
%TO.P,U6,7,GND*%
%TO.N,GND_C*%
X62620000Y-162411425D03*
%TO.P,U6,6*%
%TO.N,Net-(U5-Pad5)*%
X60080000Y-162411425D03*
%TO.P,U6,5*%
%TO.N,SC15*%
X57540000Y-162411425D03*
%TO.P,U6,4*%
X55000000Y-162411425D03*
%TO.P,U6,3*%
%TO.N,Net-(U5-Pad1)*%
X52460000Y-162411425D03*
%TO.P,U6,2*%
%TO.N,SC3.3*%
X49920000Y-162411425D03*
D16*
%TO.P,U6,1*%
X47380000Y-162411425D03*
%TD*%
D20*
%TO.P,R5,2*%
%TO.N,Net-(R5-Pad2)*%
X64895000Y-99000000D03*
%TO.P,R5,1*%
%TO.N,Net-(R3-Pad2)*%
X62355000Y-99000000D03*
%TD*%
%TO.P,R10,2*%
%TO.N,Net-(R10-Pad2)*%
X94960000Y-99500000D03*
%TO.P,R10,1*%
%TO.N,Net-(J2-Pin_1)*%
X97500000Y-99500000D03*
%TD*%
D36*
%TO.P,U8,16,VDD*%
%TO.N,5V*%
X68610000Y-179791425D03*
%TO.P,U8,15,R4*%
%TO.N,unconnected-(U8-R4-Pad15)*%
X71150000Y-179791425D03*
%TO.P,U8,14,S4*%
%TO.N,unconnected-(U8-S4-Pad14)*%
X73690000Y-179791425D03*
%TO.P,U8,13*%
%TO.N,N/C*%
X76230000Y-179791425D03*
%TO.P,U8,12,S3*%
%TO.N,unconnected-(U8-S3-Pad12)*%
X78770000Y-179791425D03*
%TO.P,U8,11,R3*%
%TO.N,unconnected-(U8-R3-Pad11)*%
X81310000Y-179791425D03*
%TO.P,U8,10,Q3*%
%TO.N,unconnected-(U8-Q3-Pad10)*%
X83850000Y-179791425D03*
%TO.P,U8,9,Q2*%
%TO.N,unconnected-(U8-Q2-Pad9)*%
X86390000Y-179791425D03*
%TO.P,U8,8,VSS*%
%TO.N,GND_C*%
X86390000Y-187411425D03*
%TO.P,U8,7,R2*%
%TO.N,unconnected-(U8-R2-Pad7)*%
X83850000Y-187411425D03*
%TO.P,U8,6,S2*%
%TO.N,unconnected-(U8-S2-Pad6)*%
X81310000Y-187411425D03*
%TO.P,U8,5,EN*%
%TO.N,5V*%
X78770000Y-187411425D03*
%TO.P,U8,4,S1*%
%TO.N,SC*%
X76230000Y-187411425D03*
%TO.P,U8,3,R1*%
%TO.N,RST*%
X73690000Y-187411425D03*
%TO.P,U8,2,Q1*%
%TO.N,BJT*%
X71150000Y-187411425D03*
D37*
%TO.P,U8,1,Q4*%
%TO.N,unconnected-(U8-Q4-Pad1)*%
X68610000Y-187411425D03*
%TD*%
D38*
%TO.N,Net-(J3-Pin_1)*%
X124290000Y-108072500D02*
X118967500Y-102750000D01*
X124290000Y-122196239D02*
X124290000Y-108072500D01*
X121046239Y-125440000D02*
X124290000Y-122196239D01*
X74740000Y-123870000D02*
X74620000Y-123990000D01*
X74740000Y-106050000D02*
X74740000Y-123870000D01*
X74620000Y-123990000D02*
X76070000Y-125440000D01*
X72484888Y-103794888D02*
X74740000Y-106050000D01*
X71000000Y-103794888D02*
X72484888Y-103794888D01*
X76070000Y-125440000D02*
X121046239Y-125440000D01*
%TO.N,Net-(R10-Pad2)*%
X87100000Y-101300000D02*
X88900000Y-99500000D01*
X88900000Y-99500000D02*
X94960000Y-99500000D01*
X87100000Y-112750000D02*
X87100000Y-101300000D01*
X87180000Y-119540000D02*
X87180000Y-112830000D01*
X88615000Y-120975000D02*
X87180000Y-119540000D01*
X87180000Y-112830000D02*
X87100000Y-112750000D01*
X118500000Y-120975000D02*
X88615000Y-120975000D01*
%TO.N,Net-(J2-Pin_1)*%
X99445000Y-114120000D02*
X93410785Y-108085785D01*
X105755000Y-114120000D02*
X99445000Y-114120000D01*
X93410785Y-108085785D02*
X92290897Y-108085785D01*
X112425000Y-107450000D02*
X105755000Y-114120000D01*
X112425000Y-91600000D02*
X112425000Y-107450000D01*
X113775000Y-90250000D02*
X112425000Y-91600000D01*
X92290897Y-108085785D02*
X92000000Y-107794888D01*
X118967500Y-90250000D02*
X113775000Y-90250000D01*
%TO.N,RELE_C*%
X56067500Y-124967500D02*
X59750000Y-124967500D01*
X48000000Y-116900000D02*
X56067500Y-124967500D01*
X48000000Y-107000000D02*
X48000000Y-116900000D01*
X44450000Y-103450000D02*
X48000000Y-107000000D01*
%TO.N,5V_C*%
X56250000Y-120000000D02*
X59782500Y-120000000D01*
X51500000Y-115250000D02*
X56250000Y-120000000D01*
X59782500Y-120000000D02*
X64750000Y-124967500D01*
X51500000Y-108400000D02*
X51500000Y-115250000D01*
X56450000Y-103450000D02*
X51500000Y-108400000D01*
%TO.N,REG5*%
X40350000Y-103150000D02*
X42800000Y-100700000D01*
X40350000Y-117250000D02*
X40350000Y-103150000D01*
X47175000Y-121200000D02*
X44300000Y-121200000D01*
X48500000Y-122525000D02*
X47175000Y-121200000D01*
X44300000Y-121200000D02*
X40350000Y-117250000D01*
X48525000Y-122525000D02*
X48500000Y-122525000D01*
X51467500Y-125467500D02*
X48525000Y-122525000D01*
%TO.N,VAC*%
X59075000Y-113125000D02*
X56500000Y-115700000D01*
X59075000Y-92525000D02*
X59075000Y-113125000D01*
X77575000Y-86800000D02*
X64800000Y-86800000D01*
X64800000Y-86800000D02*
X59075000Y-92525000D01*
%TO.N,Net-(R3-Pad2)*%
X61330000Y-97975000D02*
X61330000Y-95000000D01*
X62355000Y-99000000D02*
X61330000Y-97975000D01*
%TO.N,Net-(R5-Pad2)*%
X64750000Y-99145000D02*
X64895000Y-99000000D01*
X64750000Y-102555000D02*
X64750000Y-99145000D01*
%TO.N,REG5*%
X42800000Y-99225000D02*
X44275000Y-100700000D01*
X42800000Y-99050000D02*
X42800000Y-96692500D01*
X42800000Y-100700000D02*
X44275000Y-100700000D01*
X42800000Y-99050000D02*
X42800000Y-99225000D01*
X44275000Y-100700000D02*
X49700000Y-100700000D01*
X49700000Y-100700000D02*
X50500000Y-101500000D01*
X42800000Y-100700000D02*
X42800000Y-99050000D01*
%TO.N,Net-(J2-Pin_1)*%
X97500000Y-104525000D02*
X97500000Y-99500000D01*
X94230112Y-107794888D02*
X97500000Y-104525000D01*
X92000000Y-107794888D02*
X94230112Y-107794888D01*
%TO.N,VAC*%
X78750000Y-98500000D02*
X78750000Y-106867677D01*
%TO.N,Net-(R3-Pad1)*%
X68000000Y-95000000D02*
X68500000Y-95500000D01*
%TO.N,VAC*%
X100040000Y-102224785D02*
X104000000Y-106184785D01*
%TO.N,Net-(J3-Pin_1)*%
X71000000Y-100045000D02*
X71045000Y-100000000D01*
%TO.N,Net-(R3-Pad1)*%
X63545000Y-95000000D02*
X68000000Y-95000000D01*
%TO.N,Net-(J3-Pin_1)*%
X71045000Y-95505000D02*
X71040000Y-95500000D01*
%TO.N,VAC*%
X78750000Y-95000000D02*
X78750000Y-98500000D01*
%TO.N,Net-(J2-Pin_1)*%
X97500000Y-99500000D02*
X97500000Y-96445000D01*
%TO.N,Net-(J3-Pin_1)*%
X71000000Y-103794888D02*
X71000000Y-100045000D01*
%TO.N,VAC*%
X78750000Y-106867677D02*
X78882323Y-107000000D01*
X100040000Y-96445000D02*
X100040000Y-102224785D01*
%TO.N,Net-(R3-Pad1)*%
X68505000Y-100000000D02*
X68505000Y-95505000D01*
%TO.N,Net-(J3-Pin_1)*%
X71045000Y-100000000D02*
X71045000Y-95505000D01*
%TO.N,Net-(R3-Pad1)*%
X68505000Y-95505000D02*
X68500000Y-95500000D01*
%TO.N,Net-(R10-Pad2)*%
X94960000Y-96445000D02*
X94960000Y-99500000D01*
%TO.N,Net-(D1-1)*%
X46610000Y-96692500D02*
X46600000Y-96682500D01*
%TO.N,Net-(D1-2)*%
X50775000Y-86992500D02*
X50750000Y-86967500D01*
%TO.N,Net-(D1-1)*%
X46600000Y-87817500D02*
X45750000Y-86967500D01*
%TO.N,VAC*%
X78725000Y-94975000D02*
X78750000Y-95000000D01*
%TO.N,Net-(D1-2)*%
X50420000Y-96692500D02*
X50775000Y-96337500D01*
%TO.N,VAC*%
X73580000Y-95500000D02*
X74105000Y-94975000D01*
%TO.N,Net-(D1-1)*%
X46600000Y-96682500D02*
X46600000Y-87817500D01*
%TO.N,VAC*%
X74105000Y-94975000D02*
X78725000Y-94975000D01*
%TO.N,Net-(D1-2)*%
X50775000Y-96337500D02*
X50775000Y-86992500D01*
%TO.N,VAC*%
X78750000Y-95000000D02*
X78750000Y-87925000D01*
X100040000Y-96445000D02*
X100040000Y-92365000D01*
X94475000Y-86800000D02*
X79825000Y-86800000D01*
X100040000Y-92365000D02*
X94475000Y-86800000D01*
X78750000Y-86975000D02*
X78925000Y-86800000D01*
X78925000Y-86800000D02*
X77575000Y-86800000D01*
X78750000Y-87925000D02*
X78750000Y-86975000D01*
X77575000Y-86800000D02*
X77625000Y-86800000D01*
X78750000Y-87925000D02*
X78750000Y-87875000D01*
X78750000Y-87875000D02*
X79825000Y-86800000D01*
X77625000Y-86800000D02*
X78750000Y-87925000D01*
X79825000Y-86800000D02*
X78925000Y-86800000D01*
%TD*%
%TA.AperFunction,Conductor*%
%TO.N,GND*%
G36*
X125611156Y-82267656D02*
G01*
X125636519Y-82270934D01*
X125644125Y-82277337D01*
X125653663Y-82280138D01*
X125670407Y-82299461D01*
X125689971Y-82315931D01*
X125692907Y-82325428D01*
X125699418Y-82332942D01*
X125703057Y-82358253D01*
X125710611Y-82382682D01*
X125707946Y-82392258D01*
X125709362Y-82402100D01*
X125698738Y-82425362D01*
X125691886Y-82449996D01*
X125684467Y-82456612D01*
X125680337Y-82465656D01*
X125658823Y-82479481D01*
X125639741Y-82496500D01*
X125625481Y-82500908D01*
X125621559Y-82503430D01*
X125606022Y-82506926D01*
X125407868Y-82538310D01*
X125163574Y-82617687D01*
X124934712Y-82734299D01*
X124816152Y-82820438D01*
X124726907Y-82885279D01*
X124726905Y-82885281D01*
X124726904Y-82885281D01*
X124545281Y-83066904D01*
X124545281Y-83066905D01*
X124545279Y-83066907D01*
X124531413Y-83085992D01*
X124394299Y-83274712D01*
X124277687Y-83503574D01*
X124198310Y-83747868D01*
X124158129Y-84001563D01*
X124158129Y-84258436D01*
X124198310Y-84512131D01*
X124277687Y-84756425D01*
X124353560Y-84905332D01*
X124394299Y-84985287D01*
X124545279Y-85193093D01*
X124726907Y-85374721D01*
X124934713Y-85525701D01*
X125042843Y-85580796D01*
X125163574Y-85642312D01*
X125163576Y-85642312D01*
X125163579Y-85642314D01*
X125294524Y-85684860D01*
X125407868Y-85721689D01*
X125661564Y-85761871D01*
X125661569Y-85761871D01*
X125918436Y-85761871D01*
X126172131Y-85721689D01*
X126202818Y-85711718D01*
X126416421Y-85642314D01*
X126645287Y-85525701D01*
X126853093Y-85374721D01*
X127034721Y-85193093D01*
X127185701Y-84985287D01*
X127226440Y-84905331D01*
X127274415Y-84854536D01*
X127342236Y-84837741D01*
X127408370Y-84860278D01*
X127451822Y-84914993D01*
X127460925Y-84961627D01*
X127460925Y-128001621D01*
X127441240Y-128068660D01*
X127388436Y-128114415D01*
X127319278Y-128124359D01*
X127255722Y-128095334D01*
X127217948Y-128036556D01*
X127214452Y-128021020D01*
X127211379Y-128001621D01*
X127210929Y-127998778D01*
X127152515Y-127818997D01*
X127066696Y-127650567D01*
X126955585Y-127497636D01*
X126821918Y-127363969D01*
X126668987Y-127252858D01*
X126500557Y-127167039D01*
X126500554Y-127167037D01*
X126320777Y-127108625D01*
X126134076Y-127079054D01*
X126134071Y-127079054D01*
X125945037Y-127079054D01*
X125945032Y-127079054D01*
X125758330Y-127108625D01*
X125578553Y-127167037D01*
X125578550Y-127167039D01*
X125410120Y-127252858D01*
X125342681Y-127301856D01*
X125257190Y-127363969D01*
X125257188Y-127363971D01*
X125257187Y-127363971D01*
X125123525Y-127497633D01*
X125123525Y-127497634D01*
X125123523Y-127497636D01*
X125096609Y-127534680D01*
X125012412Y-127650566D01*
X124926593Y-127818996D01*
X124926591Y-127818999D01*
X124868179Y-127998776D01*
X124838608Y-128185477D01*
X124838608Y-128374522D01*
X124868179Y-128561223D01*
X124926591Y-128741000D01*
X124926593Y-128741003D01*
X125012412Y-128909433D01*
X125123523Y-129062364D01*
X125123524Y-129062365D01*
X125123671Y-129062567D01*
X125147151Y-129128374D01*
X125131326Y-129196428D01*
X125081220Y-129245123D01*
X125023353Y-129259453D01*
X38085223Y-129259453D01*
X38018184Y-129239768D01*
X37972429Y-129186964D01*
X37962485Y-129117806D01*
X37984905Y-129062567D01*
X38027142Y-129004433D01*
X38112961Y-128836003D01*
X38171375Y-128656222D01*
X38189944Y-128538980D01*
X38200946Y-128469522D01*
X38200946Y-128280477D01*
X38183276Y-128168916D01*
X38171375Y-128093778D01*
X38112961Y-127913997D01*
X38027142Y-127745567D01*
X37916031Y-127592636D01*
X37782364Y-127458969D01*
X37629433Y-127347858D01*
X37461003Y-127262039D01*
X37461000Y-127262037D01*
X37281223Y-127203625D01*
X37094522Y-127174054D01*
X37094517Y-127174054D01*
X36905483Y-127174054D01*
X36905478Y-127174054D01*
X36718776Y-127203625D01*
X36538999Y-127262037D01*
X36538996Y-127262039D01*
X36370563Y-127347860D01*
X36338810Y-127370930D01*
X36273004Y-127394410D01*
X36204950Y-127378584D01*
X36156255Y-127328479D01*
X36141925Y-127270612D01*
X36141925Y-103031902D01*
X38849500Y-103031902D01*
X38849500Y-117368097D01*
X38886446Y-117601368D01*
X38959433Y-117825996D01*
X39003347Y-117912181D01*
X39066657Y-118036434D01*
X39205483Y-118227510D01*
X43322490Y-122344518D01*
X43451919Y-122438553D01*
X43513567Y-122483343D01*
X43612991Y-122534002D01*
X43724003Y-122590566D01*
X43724005Y-122590566D01*
X43724008Y-122590568D01*
X43805102Y-122616917D01*
X43948631Y-122663553D01*
X44181903Y-122700500D01*
X44181908Y-122700500D01*
X44181909Y-122700500D01*
X44418092Y-122700500D01*
X46502111Y-122700500D01*
X46569150Y-122720185D01*
X46589792Y-122736819D01*
X47208792Y-123355819D01*
X47242277Y-123417142D01*
X47237293Y-123486834D01*
X47195421Y-123542767D01*
X47129957Y-123567184D01*
X47121111Y-123567500D01*
X46717500Y-123567500D01*
X46717500Y-124867498D01*
X46657098Y-124842479D01*
X46531519Y-124817500D01*
X46403481Y-124817500D01*
X46277902Y-124842479D01*
X46217500Y-124867498D01*
X46217500Y-123567500D01*
X45267514Y-123567500D01*
X45164810Y-123577993D01*
X45164803Y-123577994D01*
X44998381Y-123633141D01*
X44998376Y-123633143D01*
X44849155Y-123725184D01*
X44725184Y-123849155D01*
X44633143Y-123998376D01*
X44633141Y-123998381D01*
X44577994Y-124164803D01*
X44577993Y-124164810D01*
X44567500Y-124267514D01*
X44567500Y-125217500D01*
X45867499Y-125217500D01*
X45842479Y-125277902D01*
X45817500Y-125403481D01*
X45817500Y-125531519D01*
X45842479Y-125657098D01*
X45867499Y-125717500D01*
X44567500Y-125717500D01*
X44567500Y-126667485D01*
X44577993Y-126770189D01*
X44577994Y-126770196D01*
X44633141Y-126936618D01*
X44633143Y-126936623D01*
X44725184Y-127085844D01*
X44849155Y-127209815D01*
X44998376Y-127301856D01*
X44998381Y-127301858D01*
X45164803Y-127357005D01*
X45164810Y-127357006D01*
X45267514Y-127367499D01*
X45267527Y-127367500D01*
X46217500Y-127367500D01*
X46217500Y-126067501D01*
X46277902Y-126092521D01*
X46403481Y-126117500D01*
X46531519Y-126117500D01*
X46657098Y-126092521D01*
X46717500Y-126067501D01*
X46717500Y-127367500D01*
X47667473Y-127367500D01*
X47667485Y-127367499D01*
X47770189Y-127357006D01*
X47770196Y-127357005D01*
X47936618Y-127301858D01*
X47936623Y-127301856D01*
X48085844Y-127209815D01*
X48209815Y-127085844D01*
X48301856Y-126936623D01*
X48301858Y-126936618D01*
X48357005Y-126770196D01*
X48357006Y-126770189D01*
X48367499Y-126667485D01*
X48367500Y-126667472D01*
X48367500Y-125717500D01*
X47067501Y-125717500D01*
X47092521Y-125657098D01*
X47117500Y-125531519D01*
X47117500Y-125403481D01*
X47092521Y-125277902D01*
X47067501Y-125217500D01*
X48367500Y-125217500D01*
X48367500Y-124788889D01*
X48387185Y-124721850D01*
X48439989Y-124676095D01*
X48509147Y-124666151D01*
X48572703Y-124695176D01*
X48579181Y-124701208D01*
X49551936Y-125673963D01*
X49585421Y-125735286D01*
X49587194Y-125745458D01*
X49599517Y-125839061D01*
X49663998Y-126079707D01*
X49759330Y-126309861D01*
X49759337Y-126309876D01*
X49883900Y-126525626D01*
X50035560Y-126723274D01*
X50035566Y-126723281D01*
X50211718Y-126899433D01*
X50211725Y-126899439D01*
X50409373Y-127051099D01*
X50625123Y-127175662D01*
X50625138Y-127175669D01*
X50707575Y-127209815D01*
X50855293Y-127271002D01*
X51095935Y-127335482D01*
X51342935Y-127368000D01*
X51342942Y-127368000D01*
X51592058Y-127368000D01*
X51592065Y-127368000D01*
X51839065Y-127335482D01*
X52079707Y-127271002D01*
X52309873Y-127175664D01*
X52525627Y-127051099D01*
X52723276Y-126899438D01*
X52899438Y-126723276D01*
X53051099Y-126525627D01*
X53175664Y-126309873D01*
X53271002Y-126079707D01*
X53335482Y-125839065D01*
X53368000Y-125592065D01*
X53368000Y-125342935D01*
X53335482Y-125095935D01*
X53271002Y-124855293D01*
X53175664Y-124625127D01*
X53062713Y-124429489D01*
X53046240Y-124361589D01*
X53069093Y-124295562D01*
X53124014Y-124252371D01*
X53193567Y-124245730D01*
X53255670Y-124277746D01*
X53257781Y-124279808D01*
X55089990Y-126112017D01*
X55281067Y-126250843D01*
X55319244Y-126270295D01*
X55491503Y-126358066D01*
X55491505Y-126358066D01*
X55491508Y-126358068D01*
X55611912Y-126397189D01*
X55716131Y-126431053D01*
X55949403Y-126468000D01*
X55949408Y-126468000D01*
X56185592Y-126468000D01*
X57865203Y-126468000D01*
X57932242Y-126487685D01*
X57970741Y-126526903D01*
X58007286Y-126586151D01*
X58007289Y-126586155D01*
X58131344Y-126710210D01*
X58131348Y-126710213D01*
X58280662Y-126802312D01*
X58280664Y-126802313D01*
X58280666Y-126802314D01*
X58447203Y-126857499D01*
X58549992Y-126868000D01*
X58549997Y-126868000D01*
X60950003Y-126868000D01*
X60950008Y-126868000D01*
X61052797Y-126857499D01*
X61219334Y-126802314D01*
X61368655Y-126710211D01*
X61492711Y-126586155D01*
X61584814Y-126436834D01*
X61639999Y-126270297D01*
X61650500Y-126167508D01*
X61650500Y-124289389D01*
X61670185Y-124222350D01*
X61722989Y-124176595D01*
X61792147Y-124166651D01*
X61855703Y-124195676D01*
X61862181Y-124201708D01*
X62834436Y-125173963D01*
X62867921Y-125235286D01*
X62869694Y-125245458D01*
X62882017Y-125339061D01*
X62946498Y-125579707D01*
X63041830Y-125809861D01*
X63041837Y-125809876D01*
X63166400Y-126025626D01*
X63318060Y-126223274D01*
X63318066Y-126223281D01*
X63494218Y-126399433D01*
X63494225Y-126399439D01*
X63691873Y-126551099D01*
X63907623Y-126675662D01*
X63907638Y-126675669D01*
X64006825Y-126716753D01*
X64137793Y-126771002D01*
X64378435Y-126835482D01*
X64625435Y-126868000D01*
X64625442Y-126868000D01*
X64874558Y-126868000D01*
X64874565Y-126868000D01*
X65121565Y-126835482D01*
X65362207Y-126771002D01*
X65592373Y-126675664D01*
X65808127Y-126551099D01*
X66005776Y-126399438D01*
X66181938Y-126223276D01*
X66333599Y-126025627D01*
X66458164Y-125809873D01*
X66553502Y-125579707D01*
X66617982Y-125339065D01*
X66650500Y-125092065D01*
X66650500Y-124842935D01*
X66617982Y-124595935D01*
X66553502Y-124355293D01*
X66489885Y-124201708D01*
X66458169Y-124125138D01*
X66458162Y-124125123D01*
X66333599Y-123909373D01*
X66181939Y-123711725D01*
X66181933Y-123711718D01*
X66005781Y-123535566D01*
X66005774Y-123535560D01*
X65808126Y-123383900D01*
X65592376Y-123259337D01*
X65592361Y-123259330D01*
X65362207Y-123163998D01*
X65121561Y-123099517D01*
X65027958Y-123087194D01*
X64964062Y-123058927D01*
X64956463Y-123051936D01*
X60760011Y-118855484D01*
X60568934Y-118716657D01*
X60358496Y-118609433D01*
X60133868Y-118536446D01*
X59900597Y-118499500D01*
X59900592Y-118499500D01*
X56922889Y-118499500D01*
X56855850Y-118479815D01*
X56835208Y-118463181D01*
X56284208Y-117912181D01*
X56250723Y-117850858D01*
X56255707Y-117781166D01*
X56297579Y-117725233D01*
X56363043Y-117700816D01*
X56371889Y-117700500D01*
X56631113Y-117700500D01*
X56631120Y-117700500D01*
X56891116Y-117666270D01*
X57144419Y-117598398D01*
X57386697Y-117498043D01*
X57613803Y-117366924D01*
X57821851Y-117207282D01*
X57821855Y-117207277D01*
X57821860Y-117207274D01*
X58007274Y-117021860D01*
X58007277Y-117021855D01*
X58007282Y-117021851D01*
X58166924Y-116813803D01*
X58298043Y-116586697D01*
X58398398Y-116344419D01*
X58466270Y-116091116D01*
X58496460Y-115861801D01*
X58524727Y-115797907D01*
X58531706Y-115790320D01*
X60219517Y-114102510D01*
X60358343Y-113911434D01*
X60465568Y-113700992D01*
X60538553Y-113476368D01*
X60575500Y-113243097D01*
X60575500Y-99641889D01*
X60595185Y-99574850D01*
X60647989Y-99529095D01*
X60717147Y-99519151D01*
X60780703Y-99548176D01*
X60787181Y-99554208D01*
X61377490Y-100144517D01*
X61568567Y-100283343D01*
X61667055Y-100333525D01*
X61779003Y-100390566D01*
X61779005Y-100390566D01*
X61779008Y-100390568D01*
X61899412Y-100429689D01*
X62003631Y-100463553D01*
X62236903Y-100500500D01*
X62236908Y-100500500D01*
X62473097Y-100500500D01*
X62602690Y-100479973D01*
X62706369Y-100463553D01*
X62930992Y-100390568D01*
X63069206Y-100320144D01*
X63137874Y-100307249D01*
X63202615Y-100333525D01*
X63242872Y-100390632D01*
X63249500Y-100430630D01*
X63249500Y-102673097D01*
X63286446Y-102906368D01*
X63359433Y-103130996D01*
X63444550Y-103298046D01*
X63466657Y-103341433D01*
X63605483Y-103532510D01*
X63772490Y-103699517D01*
X63963567Y-103838343D01*
X63963573Y-103838347D01*
X63967719Y-103840888D01*
X63966950Y-103842142D01*
X64012973Y-103885607D01*
X64029771Y-103953427D01*
X64028044Y-103958494D01*
X64028563Y-103958535D01*
X64024077Y-104015524D01*
X64703554Y-104695000D01*
X64697339Y-104695000D01*
X64595606Y-104722259D01*
X64504394Y-104774920D01*
X64429920Y-104849394D01*
X64377259Y-104940606D01*
X64350000Y-105042339D01*
X64350000Y-105048553D01*
X63670524Y-104369077D01*
X63670523Y-104369077D01*
X63638143Y-104413644D01*
X63545244Y-104595968D01*
X63482009Y-104790582D01*
X63450000Y-104992682D01*
X63450000Y-105197317D01*
X63482009Y-105399417D01*
X63545244Y-105594031D01*
X63638141Y-105776350D01*
X63638147Y-105776359D01*
X63670523Y-105820921D01*
X63670524Y-105820922D01*
X64350000Y-105141446D01*
X64350000Y-105147661D01*
X64377259Y-105249394D01*
X64429920Y-105340606D01*
X64504394Y-105415080D01*
X64595606Y-105467741D01*
X64697339Y-105495000D01*
X64703553Y-105495000D01*
X64024076Y-106174474D01*
X64068650Y-106206859D01*
X64250968Y-106299755D01*
X64445582Y-106362990D01*
X64647683Y-106395000D01*
X64852317Y-106395000D01*
X65054417Y-106362990D01*
X65249031Y-106299755D01*
X65431349Y-106206859D01*
X65475921Y-106174475D01*
X65475921Y-106174473D01*
X64796447Y-105495000D01*
X64802661Y-105495000D01*
X64904394Y-105467741D01*
X64995606Y-105415080D01*
X65070080Y-105340606D01*
X65122741Y-105249394D01*
X65150000Y-105147661D01*
X65150000Y-105141447D01*
X65829474Y-105820921D01*
X65861859Y-105776349D01*
X65954755Y-105594031D01*
X66017990Y-105399417D01*
X66050000Y-105197317D01*
X66050000Y-104992682D01*
X66017990Y-104790582D01*
X65954755Y-104595968D01*
X65861859Y-104413650D01*
X65829474Y-104369077D01*
X65829474Y-104369076D01*
X65150000Y-105048551D01*
X65150000Y-105042339D01*
X65122741Y-104940606D01*
X65070080Y-104849394D01*
X64995606Y-104774920D01*
X64904394Y-104722259D01*
X64802661Y-104695000D01*
X64796446Y-104695000D01*
X65475922Y-104015524D01*
X65471437Y-103958535D01*
X65475564Y-103958210D01*
X65472593Y-103923445D01*
X65505224Y-103861664D01*
X65532634Y-103841464D01*
X65532281Y-103840888D01*
X65536426Y-103838347D01*
X65536427Y-103838345D01*
X65536433Y-103838343D01*
X65727510Y-103699517D01*
X65894517Y-103532510D01*
X66033343Y-103341433D01*
X66140568Y-103130992D01*
X66213553Y-102906368D01*
X66231072Y-102795759D01*
X66250500Y-102673097D01*
X66250500Y-99674587D01*
X66264015Y-99618292D01*
X66272518Y-99601605D01*
X66285568Y-99575992D01*
X66358553Y-99351368D01*
X66376755Y-99236446D01*
X66395500Y-99118097D01*
X66395500Y-98881902D01*
X66358553Y-98648631D01*
X66310259Y-98499999D01*
X66285568Y-98424008D01*
X66285566Y-98424005D01*
X66285566Y-98424003D01*
X66196930Y-98250046D01*
X66178343Y-98213566D01*
X66039517Y-98022490D01*
X65872510Y-97855483D01*
X65681434Y-97716657D01*
X65470996Y-97609433D01*
X65246368Y-97536446D01*
X65013097Y-97499500D01*
X65013092Y-97499500D01*
X64776908Y-97499500D01*
X64776903Y-97499500D01*
X64543631Y-97536446D01*
X64319003Y-97609433D01*
X64108565Y-97716657D01*
X63917488Y-97855484D01*
X63707786Y-98065186D01*
X63646463Y-98098671D01*
X63576771Y-98093687D01*
X63520838Y-98051815D01*
X63519842Y-98050466D01*
X63499517Y-98022490D01*
X62866819Y-97389792D01*
X62833334Y-97328469D01*
X62830500Y-97302111D01*
X62830500Y-96516235D01*
X62850185Y-96449196D01*
X62902989Y-96403441D01*
X62972147Y-96393497D01*
X62992811Y-96398302D01*
X63129223Y-96442625D01*
X63193631Y-96463553D01*
X63426903Y-96500500D01*
X63426908Y-96500500D01*
X66880500Y-96500500D01*
X66947539Y-96520185D01*
X66993294Y-96572989D01*
X67004500Y-96624500D01*
X67004500Y-100118097D01*
X67041446Y-100351368D01*
X67114433Y-100575996D01*
X67189847Y-100724003D01*
X67221657Y-100786433D01*
X67360483Y-100977510D01*
X67527490Y-101144517D01*
X67718567Y-101283343D01*
X67785934Y-101317668D01*
X67929003Y-101390566D01*
X67929005Y-101390566D01*
X67929008Y-101390568D01*
X68049412Y-101429689D01*
X68153631Y-101463553D01*
X68386903Y-101500500D01*
X68386908Y-101500500D01*
X68623097Y-101500500D01*
X68856368Y-101463553D01*
X69080992Y-101390568D01*
X69291433Y-101283343D01*
X69302614Y-101275219D01*
X69368418Y-101251739D01*
X69436473Y-101267563D01*
X69485168Y-101317668D01*
X69499500Y-101375537D01*
X69499500Y-103912985D01*
X69536446Y-104146256D01*
X69609433Y-104370884D01*
X69672565Y-104494786D01*
X69716657Y-104581321D01*
X69744047Y-104619020D01*
X69761433Y-104652898D01*
X69765184Y-104664219D01*
X69765186Y-104664222D01*
X69829758Y-104768911D01*
X69857289Y-104813545D01*
X69981344Y-104937600D01*
X70130668Y-105029703D01*
X70130672Y-105029704D01*
X70141984Y-105033453D01*
X70142834Y-105033883D01*
X70143327Y-105033906D01*
X70159058Y-105042093D01*
X70174727Y-105050022D01*
X70175316Y-105050440D01*
X70213567Y-105078231D01*
X70216851Y-105079904D01*
X70223758Y-105084804D01*
X70242919Y-105109080D01*
X70263675Y-105132019D01*
X70264502Y-105136424D01*
X70267047Y-105139648D01*
X70269131Y-105161066D01*
X70275631Y-105195670D01*
X70274077Y-105215412D01*
X70953554Y-105894888D01*
X70947339Y-105894888D01*
X70845606Y-105922147D01*
X70754394Y-105974808D01*
X70679920Y-106049282D01*
X70627259Y-106140494D01*
X70600000Y-106242227D01*
X70600000Y-106248441D01*
X69920524Y-105568965D01*
X69920523Y-105568965D01*
X69888143Y-105613532D01*
X69795244Y-105795856D01*
X69732009Y-105990470D01*
X69700000Y-106192570D01*
X69700000Y-106397205D01*
X69732009Y-106599305D01*
X69795244Y-106793919D01*
X69888141Y-106976238D01*
X69888147Y-106976247D01*
X69920523Y-107020809D01*
X69920524Y-107020810D01*
X70600000Y-106341334D01*
X70600000Y-106347549D01*
X70627259Y-106449282D01*
X70679920Y-106540494D01*
X70754394Y-106614968D01*
X70845606Y-106667629D01*
X70947339Y-106694888D01*
X70953553Y-106694888D01*
X70274076Y-107374362D01*
X70318650Y-107406747D01*
X70500968Y-107499643D01*
X70695582Y-107562878D01*
X70897683Y-107594888D01*
X71102317Y-107594888D01*
X71304417Y-107562878D01*
X71499031Y-107499643D01*
X71681349Y-107406747D01*
X71725921Y-107374362D01*
X71046447Y-106694888D01*
X71052661Y-106694888D01*
X71154394Y-106667629D01*
X71245606Y-106614968D01*
X71320080Y-106540494D01*
X71372741Y-106449282D01*
X71400000Y-106347549D01*
X71400000Y-106341334D01*
X72079474Y-107020809D01*
X72111859Y-106976237D01*
X72204755Y-106793919D01*
X72267990Y-106599305D01*
X72300000Y-106397205D01*
X72300000Y-106192571D01*
X72273029Y-106022290D01*
X72281983Y-105952996D01*
X72326979Y-105899544D01*
X72393731Y-105878904D01*
X72461044Y-105897629D01*
X72483183Y-105915210D01*
X73203181Y-106635208D01*
X73236666Y-106696531D01*
X73239500Y-106722889D01*
X73239500Y-123365036D01*
X73230695Y-123409296D01*
X73230937Y-123409375D01*
X73230275Y-123411411D01*
X73230061Y-123412489D01*
X73229431Y-123414009D01*
X73156447Y-123638627D01*
X73156447Y-123638630D01*
X73119500Y-123871902D01*
X73119500Y-124108097D01*
X73156446Y-124341368D01*
X73229433Y-124565996D01*
X73308845Y-124721850D01*
X73336657Y-124776434D01*
X73475483Y-124967510D01*
X75092490Y-126584518D01*
X75265492Y-126710211D01*
X75283567Y-126723343D01*
X75375521Y-126770196D01*
X75494003Y-126830566D01*
X75494005Y-126830566D01*
X75494008Y-126830568D01*
X75614412Y-126869689D01*
X75718631Y-126903553D01*
X75951903Y-126940500D01*
X75951908Y-126940500D01*
X121164336Y-126940500D01*
X121397607Y-126903553D01*
X121622231Y-126830568D01*
X121832673Y-126723343D01*
X122023749Y-126584517D01*
X125434518Y-123173749D01*
X125573343Y-122982672D01*
X125680568Y-122772231D01*
X125753553Y-122547607D01*
X125763479Y-122484939D01*
X125790500Y-122314336D01*
X125790500Y-107954402D01*
X125753553Y-107721131D01*
X125687351Y-107517384D01*
X125680568Y-107496508D01*
X125680566Y-107496505D01*
X125680566Y-107496503D01*
X125573342Y-107286065D01*
X125553088Y-107258189D01*
X125553087Y-107258187D01*
X125434518Y-107094990D01*
X120904319Y-102564791D01*
X120870834Y-102503468D01*
X120868000Y-102477110D01*
X120868000Y-101549997D01*
X120867999Y-101549984D01*
X120857499Y-101447204D01*
X120857499Y-101447203D01*
X120802314Y-101280666D01*
X120784471Y-101251739D01*
X120710213Y-101131348D01*
X120710210Y-101131344D01*
X120586155Y-101007289D01*
X120586151Y-101007286D01*
X120436837Y-100915187D01*
X120436835Y-100915186D01*
X120353565Y-100887593D01*
X120270297Y-100860001D01*
X120270295Y-100860000D01*
X120167515Y-100849500D01*
X120167508Y-100849500D01*
X117767492Y-100849500D01*
X117767484Y-100849500D01*
X117664704Y-100860000D01*
X117664703Y-100860001D01*
X117498164Y-100915186D01*
X117498162Y-100915187D01*
X117348848Y-101007286D01*
X117348844Y-101007289D01*
X117224789Y-101131344D01*
X117224786Y-101131348D01*
X117132687Y-101280662D01*
X117132686Y-101280664D01*
X117077501Y-101447203D01*
X117077500Y-101447204D01*
X117067000Y-101549984D01*
X117067000Y-103950015D01*
X117077500Y-104052795D01*
X117077501Y-104052796D01*
X117132686Y-104219335D01*
X117132687Y-104219337D01*
X117224786Y-104368651D01*
X117224789Y-104368655D01*
X117348844Y-104492710D01*
X117348848Y-104492713D01*
X117498162Y-104584812D01*
X117498164Y-104584813D01*
X117498166Y-104584814D01*
X117664703Y-104639999D01*
X117767492Y-104650500D01*
X118694611Y-104650500D01*
X118761650Y-104670185D01*
X118782292Y-104686819D01*
X122753181Y-108657708D01*
X122786666Y-108719031D01*
X122789500Y-108745389D01*
X122789500Y-121523349D01*
X122769815Y-121590388D01*
X122753181Y-121611030D01*
X120461031Y-123903181D01*
X120399708Y-123936666D01*
X120373350Y-123939500D01*
X76742890Y-123939500D01*
X76675851Y-123919815D01*
X76655209Y-123903181D01*
X76276819Y-123524791D01*
X76243334Y-123463468D01*
X76240500Y-123437110D01*
X76240500Y-105931902D01*
X76215862Y-105776349D01*
X76203553Y-105698632D01*
X76203552Y-105698628D01*
X76203552Y-105698627D01*
X76130569Y-105474012D01*
X76130568Y-105474008D01*
X76127434Y-105467857D01*
X76023343Y-105263566D01*
X76019619Y-105258441D01*
X75933758Y-105140264D01*
X75884517Y-105072490D01*
X73462398Y-102650371D01*
X73271322Y-102511545D01*
X73255470Y-102503468D01*
X73060884Y-102404321D01*
X72836256Y-102331334D01*
X72605102Y-102294723D01*
X72541967Y-102264794D01*
X72505036Y-102205482D01*
X72500500Y-102172250D01*
X72500500Y-100395791D01*
X72506569Y-100357473D01*
X72508553Y-100351368D01*
X72535988Y-100178149D01*
X72545500Y-100118097D01*
X72545500Y-96846476D01*
X72565185Y-96779437D01*
X72617989Y-96733682D01*
X72687147Y-96723738D01*
X72742385Y-96746157D01*
X72793566Y-96783343D01*
X72892992Y-96834003D01*
X73004003Y-96890566D01*
X73004005Y-96890566D01*
X73004008Y-96890568D01*
X73074561Y-96913492D01*
X73228631Y-96963553D01*
X73461903Y-97000500D01*
X73461908Y-97000500D01*
X73698097Y-97000500D01*
X73931368Y-96963553D01*
X74155992Y-96890568D01*
X74366434Y-96783343D01*
X74557510Y-96644517D01*
X74690208Y-96511819D01*
X74751531Y-96478334D01*
X74777889Y-96475500D01*
X77125500Y-96475500D01*
X77192539Y-96495185D01*
X77238294Y-96547989D01*
X77249500Y-96599500D01*
X77249500Y-106985774D01*
X77286447Y-107219046D01*
X77286447Y-107219049D01*
X77359431Y-107443667D01*
X77359431Y-107443668D01*
X77368308Y-107461090D01*
X77381823Y-107517384D01*
X77381823Y-107800000D01*
X77381824Y-107800019D01*
X77392323Y-107902796D01*
X77392324Y-107902799D01*
X77433147Y-108025993D01*
X77447509Y-108069334D01*
X77539611Y-108218656D01*
X77663667Y-108342712D01*
X77812989Y-108434814D01*
X77979526Y-108489999D01*
X78082314Y-108500500D01*
X78754228Y-108500499D01*
X78754242Y-108500500D01*
X78764231Y-108500500D01*
X79010405Y-108500500D01*
X79010417Y-108500499D01*
X79682325Y-108500499D01*
X79682331Y-108500499D01*
X79785120Y-108489999D01*
X79951657Y-108434814D01*
X80100979Y-108342712D01*
X80225035Y-108218656D01*
X80317137Y-108069334D01*
X80372322Y-107902797D01*
X80382823Y-107800009D01*
X80382823Y-107008454D01*
X80382823Y-106881947D01*
X80882323Y-106881947D01*
X80882323Y-107118052D01*
X80919257Y-107351247D01*
X80992220Y-107575802D01*
X81099410Y-107786174D01*
X81159661Y-107869104D01*
X81159663Y-107869105D01*
X81899360Y-107129408D01*
X81916398Y-107192993D01*
X81982224Y-107307007D01*
X82075316Y-107400099D01*
X82189330Y-107465925D01*
X82252913Y-107482962D01*
X81513216Y-108222658D01*
X81596151Y-108282914D01*
X81806520Y-108390102D01*
X82031075Y-108463065D01*
X82031074Y-108463065D01*
X82264271Y-108500000D01*
X82500375Y-108500000D01*
X82733570Y-108463065D01*
X82958125Y-108390102D01*
X83168486Y-108282918D01*
X83168492Y-108282914D01*
X83251427Y-108222658D01*
X83251428Y-108222658D01*
X82511731Y-107482962D01*
X82575316Y-107465925D01*
X82689330Y-107400099D01*
X82782422Y-107307007D01*
X82848248Y-107192993D01*
X82865285Y-107129409D01*
X83604981Y-107869105D01*
X83604981Y-107869104D01*
X83665237Y-107786169D01*
X83665241Y-107786163D01*
X83772425Y-107575802D01*
X83845388Y-107351247D01*
X83882323Y-107118052D01*
X83882323Y-106881947D01*
X83845388Y-106648752D01*
X83772425Y-106424197D01*
X83665237Y-106213828D01*
X83604981Y-106130894D01*
X83604981Y-106130893D01*
X82865285Y-106870590D01*
X82848248Y-106807007D01*
X82782422Y-106692993D01*
X82689330Y-106599901D01*
X82575316Y-106534075D01*
X82511732Y-106517037D01*
X83251428Y-105777340D01*
X83251427Y-105777338D01*
X83168497Y-105717087D01*
X82958125Y-105609897D01*
X82733570Y-105536934D01*
X82733571Y-105536934D01*
X82500375Y-105500000D01*
X82264271Y-105500000D01*
X82031075Y-105536934D01*
X81806520Y-105609897D01*
X81596153Y-105717084D01*
X81513217Y-105777340D01*
X82252914Y-106517037D01*
X82189330Y-106534075D01*
X82075316Y-106599901D01*
X81982224Y-106692993D01*
X81916398Y-106807007D01*
X81899360Y-106870591D01*
X81159663Y-106130894D01*
X81099407Y-106213830D01*
X80992220Y-106424197D01*
X80919257Y-106648752D01*
X80882323Y-106881947D01*
X80382823Y-106881947D01*
X80382823Y-106881908D01*
X80382823Y-106877120D01*
X80382822Y-106874340D01*
X80382823Y-106874336D01*
X80382823Y-106874313D01*
X80382822Y-106874295D01*
X80382822Y-106199998D01*
X80382821Y-106199981D01*
X80372322Y-106097203D01*
X80372321Y-106097200D01*
X80317137Y-105930666D01*
X80268959Y-105852557D01*
X80250500Y-105787463D01*
X80250500Y-99507882D01*
X80595669Y-99507882D01*
X80595670Y-99507883D01*
X80621059Y-99526329D01*
X80789362Y-99612085D01*
X80968997Y-99670451D01*
X81155553Y-99700000D01*
X81344447Y-99700000D01*
X81531002Y-99670451D01*
X81710637Y-99612085D01*
X81878937Y-99526331D01*
X81904328Y-99507883D01*
X81904328Y-99507882D01*
X81250001Y-98853554D01*
X81250000Y-98853554D01*
X80595669Y-99507882D01*
X80250500Y-99507882D01*
X80250500Y-99197308D01*
X80270185Y-99130269D01*
X80286819Y-99109627D01*
X80896446Y-98500000D01*
X80850368Y-98453922D01*
X80900000Y-98453922D01*
X80900000Y-98546078D01*
X80923852Y-98635095D01*
X80969930Y-98714905D01*
X81035095Y-98780070D01*
X81114905Y-98826148D01*
X81203922Y-98850000D01*
X81296078Y-98850000D01*
X81385095Y-98826148D01*
X81464905Y-98780070D01*
X81530070Y-98714905D01*
X81576148Y-98635095D01*
X81600000Y-98546078D01*
X81600000Y-98499999D01*
X81603554Y-98499999D01*
X81603554Y-98500000D01*
X82257882Y-99154328D01*
X82257883Y-99154328D01*
X82276331Y-99128937D01*
X82362085Y-98960637D01*
X82420451Y-98781002D01*
X82450000Y-98594447D01*
X82450000Y-98405552D01*
X82420451Y-98218997D01*
X82362085Y-98039362D01*
X82276329Y-97871059D01*
X82257883Y-97845670D01*
X82257882Y-97845669D01*
X81603554Y-98499999D01*
X81600000Y-98499999D01*
X81600000Y-98453922D01*
X81576148Y-98364905D01*
X81530070Y-98285095D01*
X81464905Y-98219930D01*
X81385095Y-98173852D01*
X81296078Y-98150000D01*
X81203922Y-98150000D01*
X81114905Y-98173852D01*
X81035095Y-98219930D01*
X80969930Y-98285095D01*
X80923852Y-98364905D01*
X80900000Y-98453922D01*
X80850368Y-98453922D01*
X80286819Y-97890373D01*
X80253334Y-97829050D01*
X80250500Y-97802692D01*
X80250500Y-97492116D01*
X80595669Y-97492116D01*
X81250000Y-98146446D01*
X81250001Y-98146446D01*
X81904328Y-97492116D01*
X81878933Y-97473666D01*
X81710637Y-97387914D01*
X81531002Y-97329548D01*
X81344447Y-97300000D01*
X81155553Y-97300000D01*
X80968997Y-97329548D01*
X80789362Y-97387914D01*
X80621060Y-97473669D01*
X80595670Y-97492116D01*
X80595669Y-97492116D01*
X80250500Y-97492116D01*
X80250500Y-96007882D01*
X80595669Y-96007882D01*
X80595670Y-96007883D01*
X80621059Y-96026329D01*
X80789362Y-96112085D01*
X80968997Y-96170451D01*
X81155553Y-96200000D01*
X81344447Y-96200000D01*
X81531002Y-96170451D01*
X81710637Y-96112085D01*
X81878937Y-96026331D01*
X81904328Y-96007883D01*
X81904328Y-96007882D01*
X81250001Y-95353554D01*
X81250000Y-95353554D01*
X80595669Y-96007882D01*
X80250500Y-96007882D01*
X80250500Y-95697308D01*
X80270185Y-95630269D01*
X80286819Y-95609627D01*
X80896446Y-95000000D01*
X80850368Y-94953922D01*
X80900000Y-94953922D01*
X80900000Y-95046078D01*
X80923852Y-95135095D01*
X80969930Y-95214905D01*
X81035095Y-95280070D01*
X81114905Y-95326148D01*
X81203922Y-95350000D01*
X81296078Y-95350000D01*
X81385095Y-95326148D01*
X81464905Y-95280070D01*
X81530070Y-95214905D01*
X81576148Y-95135095D01*
X81600000Y-95046078D01*
X81600000Y-94999999D01*
X81603554Y-94999999D01*
X81603554Y-95000000D01*
X82257882Y-95654328D01*
X82257883Y-95654328D01*
X82276331Y-95628937D01*
X82362085Y-95460637D01*
X82420451Y-95281002D01*
X82450000Y-95094447D01*
X82450000Y-94905552D01*
X82420451Y-94718997D01*
X82362085Y-94539362D01*
X82276329Y-94371059D01*
X82257883Y-94345670D01*
X82257882Y-94345669D01*
X81603554Y-94999999D01*
X81600000Y-94999999D01*
X81600000Y-94953922D01*
X81576148Y-94864905D01*
X81530070Y-94785095D01*
X81464905Y-94719930D01*
X81385095Y-94673852D01*
X81296078Y-94650000D01*
X81203922Y-94650000D01*
X81114905Y-94673852D01*
X81035095Y-94719930D01*
X80969930Y-94785095D01*
X80923852Y-94864905D01*
X80900000Y-94953922D01*
X80850368Y-94953922D01*
X80286819Y-94390373D01*
X80253334Y-94329050D01*
X80250500Y-94302692D01*
X80250500Y-93992116D01*
X80595669Y-93992116D01*
X81250000Y-94646446D01*
X81250001Y-94646446D01*
X81904328Y-93992116D01*
X81878933Y-93973666D01*
X81710637Y-93887914D01*
X81531002Y-93829548D01*
X81344447Y-93800000D01*
X81155553Y-93800000D01*
X80968997Y-93829548D01*
X80789362Y-93887914D01*
X80621060Y-93973669D01*
X80595670Y-93992116D01*
X80595669Y-93992116D01*
X80250500Y-93992116D01*
X80250500Y-88547889D01*
X80270185Y-88480850D01*
X80286814Y-88460213D01*
X80410210Y-88336817D01*
X80471532Y-88303334D01*
X80497890Y-88300500D01*
X93802111Y-88300500D01*
X93869150Y-88320185D01*
X93889792Y-88336819D01*
X98503181Y-92950208D01*
X98536666Y-93011531D01*
X98539500Y-93037889D01*
X98539500Y-95102157D01*
X98519815Y-95169196D01*
X98467011Y-95214951D01*
X98397853Y-95224895D01*
X98342615Y-95202475D01*
X98286436Y-95161659D01*
X98286435Y-95161658D01*
X98286433Y-95161657D01*
X98169658Y-95102157D01*
X98075996Y-95054433D01*
X97851368Y-94981446D01*
X97618097Y-94944500D01*
X97618092Y-94944500D01*
X97381908Y-94944500D01*
X97381903Y-94944500D01*
X97148631Y-94981446D01*
X96924003Y-95054433D01*
X96713566Y-95161657D01*
X96552469Y-95278702D01*
X96486662Y-95302182D01*
X96418608Y-95286357D01*
X96369913Y-95236251D01*
X96363401Y-95221718D01*
X96356296Y-95202669D01*
X96356293Y-95202664D01*
X96270047Y-95087455D01*
X96270044Y-95087452D01*
X96154835Y-95001206D01*
X96154828Y-95001202D01*
X96019982Y-94950908D01*
X96019983Y-94950908D01*
X95960383Y-94944501D01*
X95960381Y-94944500D01*
X95960373Y-94944500D01*
X95078094Y-94944500D01*
X95078092Y-94944500D01*
X94841908Y-94944500D01*
X94841904Y-94944500D01*
X93959629Y-94944500D01*
X93959623Y-94944501D01*
X93900016Y-94950908D01*
X93765171Y-95001202D01*
X93765164Y-95001206D01*
X93649955Y-95087452D01*
X93649952Y-95087455D01*
X93563706Y-95202664D01*
X93563702Y-95202671D01*
X93513408Y-95337517D01*
X93507001Y-95397116D01*
X93507000Y-95397135D01*
X93507000Y-96041513D01*
X93500931Y-96079832D01*
X93496446Y-96093632D01*
X93459500Y-96326902D01*
X93459500Y-97875500D01*
X93439815Y-97942539D01*
X93387011Y-97988294D01*
X93335500Y-97999500D01*
X88781903Y-97999500D01*
X88548635Y-98036446D01*
X88548634Y-98036446D01*
X88435925Y-98073068D01*
X88435924Y-98073068D01*
X88324012Y-98109429D01*
X88324006Y-98109431D01*
X88113565Y-98216657D01*
X87922488Y-98355484D01*
X85955484Y-100322488D01*
X85816655Y-100513567D01*
X85749434Y-100645499D01*
X85749434Y-100645500D01*
X85709433Y-100724003D01*
X85636446Y-100948631D01*
X85599500Y-101181902D01*
X85599500Y-112868097D01*
X85636446Y-113101368D01*
X85660726Y-113176091D01*
X85673431Y-113215194D01*
X85679500Y-113253510D01*
X85679500Y-119658097D01*
X85716446Y-119891368D01*
X85789433Y-120115996D01*
X85896657Y-120326434D01*
X86035483Y-120517510D01*
X87637490Y-122119517D01*
X87828566Y-122258343D01*
X88039007Y-122365568D01*
X88047908Y-122368460D01*
X88051096Y-122369496D01*
X88051099Y-122369497D01*
X88051109Y-122369500D01*
X88192791Y-122415535D01*
X88263631Y-122438553D01*
X88496903Y-122475500D01*
X88496908Y-122475500D01*
X117732638Y-122475500D01*
X117780089Y-122484938D01*
X117961883Y-122560241D01*
X118173402Y-122616917D01*
X118390510Y-122645500D01*
X118390517Y-122645500D01*
X118609483Y-122645500D01*
X118609490Y-122645500D01*
X118826598Y-122616917D01*
X119038117Y-122560241D01*
X119240428Y-122476440D01*
X119430071Y-122366950D01*
X119603800Y-122233643D01*
X119758643Y-122078800D01*
X119891950Y-121905071D01*
X120001440Y-121715428D01*
X120085241Y-121513117D01*
X120141917Y-121301598D01*
X120170500Y-121084490D01*
X120170500Y-120865510D01*
X120141917Y-120648402D01*
X120085241Y-120436883D01*
X120001440Y-120234572D01*
X119932980Y-120115996D01*
X119891950Y-120044929D01*
X119758644Y-119871201D01*
X119758638Y-119871194D01*
X119603805Y-119716361D01*
X119603798Y-119716355D01*
X119430070Y-119583049D01*
X119240438Y-119473565D01*
X119240433Y-119473562D01*
X119240428Y-119473560D01*
X119038117Y-119389759D01*
X119038118Y-119389759D01*
X119038115Y-119389758D01*
X118932357Y-119361421D01*
X118826598Y-119333083D01*
X118790314Y-119328306D01*
X118609497Y-119304500D01*
X118609490Y-119304500D01*
X118390510Y-119304500D01*
X118390502Y-119304500D01*
X118183853Y-119331707D01*
X118173402Y-119333083D01*
X118128699Y-119345060D01*
X117961884Y-119389758D01*
X117884269Y-119421908D01*
X117780089Y-119465061D01*
X117732638Y-119474500D01*
X89287889Y-119474500D01*
X89220850Y-119454815D01*
X89200208Y-119438181D01*
X88716819Y-118954792D01*
X88683334Y-118893469D01*
X88680500Y-118867111D01*
X88680500Y-115865548D01*
X116830000Y-115865548D01*
X116830000Y-116084451D01*
X116830001Y-116084467D01*
X116858573Y-116301496D01*
X116915234Y-116512956D01*
X116999004Y-116715198D01*
X116999012Y-116715214D01*
X117108460Y-116904782D01*
X117108466Y-116904790D01*
X117155438Y-116966007D01*
X117898958Y-116222487D01*
X117923978Y-116282890D01*
X117995112Y-116389351D01*
X118085649Y-116479888D01*
X118192110Y-116551022D01*
X118252511Y-116576041D01*
X117508991Y-117319560D01*
X117508991Y-117319561D01*
X117570200Y-117366527D01*
X117570208Y-117366532D01*
X117759792Y-117475990D01*
X117759801Y-117475995D01*
X117962043Y-117559765D01*
X118173503Y-117616426D01*
X118390532Y-117644998D01*
X118390549Y-117645000D01*
X118609451Y-117645000D01*
X118609467Y-117644998D01*
X118826496Y-117616426D01*
X119037956Y-117559765D01*
X119240198Y-117475995D01*
X119240214Y-117475987D01*
X119429785Y-117366537D01*
X119429793Y-117366531D01*
X119491007Y-117319560D01*
X118747488Y-116576041D01*
X118807890Y-116551022D01*
X118914351Y-116479888D01*
X119004888Y-116389351D01*
X119076022Y-116282890D01*
X119101041Y-116222488D01*
X119844560Y-116966007D01*
X119891531Y-116904793D01*
X119891537Y-116904785D01*
X120000987Y-116715214D01*
X120000995Y-116715198D01*
X120084765Y-116512956D01*
X120141426Y-116301496D01*
X120169998Y-116084467D01*
X120170000Y-116084451D01*
X120170000Y-115865548D01*
X120169998Y-115865532D01*
X120141426Y-115648503D01*
X120084765Y-115437043D01*
X120000995Y-115234801D01*
X120000990Y-115234792D01*
X119891532Y-115045208D01*
X119891527Y-115045200D01*
X119844560Y-114983991D01*
X119101041Y-115727510D01*
X119076022Y-115667110D01*
X119004888Y-115560649D01*
X118914351Y-115470112D01*
X118807890Y-115398978D01*
X118747487Y-115373957D01*
X119491007Y-114630438D01*
X119491007Y-114630437D01*
X119429790Y-114583466D01*
X119429782Y-114583460D01*
X119240214Y-114474012D01*
X119240198Y-114474004D01*
X119037956Y-114390234D01*
X118826496Y-114333573D01*
X118609467Y-114305001D01*
X118609451Y-114305000D01*
X118390549Y-114305000D01*
X118390532Y-114305001D01*
X118173503Y-114333573D01*
X117962043Y-114390234D01*
X117759801Y-114474004D01*
X117759785Y-114474012D01*
X117570215Y-114583461D01*
X117570200Y-114583471D01*
X117508990Y-114630438D01*
X118252511Y-115373958D01*
X118192110Y-115398978D01*
X118085649Y-115470112D01*
X117995112Y-115560649D01*
X117923978Y-115667110D01*
X117898958Y-115727511D01*
X117155438Y-114983990D01*
X117108471Y-115045200D01*
X117108461Y-115045215D01*
X116999012Y-115234785D01*
X116999004Y-115234801D01*
X116915234Y-115437043D01*
X116858573Y-115648503D01*
X116830001Y-115865532D01*
X116830000Y-115865548D01*
X88680500Y-115865548D01*
X88680500Y-112711902D01*
X88656403Y-112559765D01*
X88643553Y-112478632D01*
X88606569Y-112364806D01*
X88600500Y-112326488D01*
X88600500Y-101972889D01*
X88620185Y-101905850D01*
X88636819Y-101885208D01*
X89485208Y-101036819D01*
X89546531Y-101003334D01*
X89572889Y-101000500D01*
X95078097Y-101000500D01*
X95311368Y-100963553D01*
X95357293Y-100948631D01*
X95535992Y-100890568D01*
X95746433Y-100783343D01*
X95802614Y-100742524D01*
X95868420Y-100719044D01*
X95936474Y-100734869D01*
X95985169Y-100784974D01*
X95999500Y-100842842D01*
X95999500Y-103852111D01*
X95979815Y-103919150D01*
X95963181Y-103939792D01*
X93644904Y-106258069D01*
X93583581Y-106291554D01*
X93557223Y-106294388D01*
X91881903Y-106294388D01*
X91648631Y-106331334D01*
X91424003Y-106404321D01*
X91264207Y-106485741D01*
X91213566Y-106511545D01*
X91213565Y-106511546D01*
X91175863Y-106538937D01*
X91141990Y-106556321D01*
X91130667Y-106560073D01*
X90981342Y-106652177D01*
X90857289Y-106776230D01*
X90765185Y-106925555D01*
X90761433Y-106936878D01*
X90744049Y-106970751D01*
X90740063Y-106976238D01*
X90716657Y-107008454D01*
X90690853Y-107059095D01*
X90609433Y-107218891D01*
X90536446Y-107443519D01*
X90499500Y-107676790D01*
X90499500Y-107912981D01*
X90499499Y-107912983D01*
X90536446Y-108146256D01*
X90609433Y-108370884D01*
X90675476Y-108500500D01*
X90716657Y-108581322D01*
X90744047Y-108619021D01*
X90761433Y-108652899D01*
X90765183Y-108664215D01*
X90765185Y-108664219D01*
X90765186Y-108664222D01*
X90857288Y-108813544D01*
X90981344Y-108937600D01*
X91071677Y-108993317D01*
X91094257Y-109011172D01*
X91235436Y-109152351D01*
X91264809Y-109206144D01*
X91953554Y-109894888D01*
X91947339Y-109894888D01*
X91845606Y-109922147D01*
X91754394Y-109974808D01*
X91679920Y-110049282D01*
X91627259Y-110140494D01*
X91600000Y-110242227D01*
X91600000Y-110248441D01*
X90920524Y-109568965D01*
X90920523Y-109568965D01*
X90888143Y-109613532D01*
X90795244Y-109795856D01*
X90732009Y-109990470D01*
X90700000Y-110192570D01*
X90700000Y-110397205D01*
X90732009Y-110599305D01*
X90795244Y-110793919D01*
X90888141Y-110976238D01*
X90888147Y-110976247D01*
X90920523Y-111020809D01*
X90920524Y-111020810D01*
X91600000Y-110341334D01*
X91600000Y-110347549D01*
X91627259Y-110449282D01*
X91679920Y-110540494D01*
X91754394Y-110614968D01*
X91845606Y-110667629D01*
X91947339Y-110694888D01*
X91953553Y-110694888D01*
X91274076Y-111374362D01*
X91318650Y-111406747D01*
X91500968Y-111499643D01*
X91695582Y-111562878D01*
X91897683Y-111594888D01*
X92102317Y-111594888D01*
X92304417Y-111562878D01*
X92499031Y-111499643D01*
X92681349Y-111406747D01*
X92725921Y-111374362D01*
X92046447Y-110694888D01*
X92052661Y-110694888D01*
X92154394Y-110667629D01*
X92245606Y-110614968D01*
X92320080Y-110540494D01*
X92372741Y-110449282D01*
X92400000Y-110347549D01*
X92400000Y-110341334D01*
X93079474Y-111020809D01*
X93111859Y-110976237D01*
X93204755Y-110793919D01*
X93267990Y-110599305D01*
X93300000Y-110397205D01*
X93300000Y-110396389D01*
X93300087Y-110396089D01*
X93300382Y-110392350D01*
X93301167Y-110392411D01*
X93319685Y-110329350D01*
X93372489Y-110283595D01*
X93441647Y-110273651D01*
X93505203Y-110302676D01*
X93511679Y-110308706D01*
X98467490Y-115264518D01*
X98653278Y-115399500D01*
X98658567Y-115403343D01*
X98724707Y-115437043D01*
X98869003Y-115510566D01*
X98869005Y-115510566D01*
X98869008Y-115510568D01*
X98989412Y-115549689D01*
X99093631Y-115583553D01*
X99326903Y-115620500D01*
X99326908Y-115620500D01*
X105873097Y-115620500D01*
X106106368Y-115583553D01*
X106330992Y-115510568D01*
X106541434Y-115403343D01*
X106732510Y-115264517D01*
X111131479Y-110865548D01*
X116830000Y-110865548D01*
X116830000Y-111084451D01*
X116830001Y-111084467D01*
X116858573Y-111301496D01*
X116915234Y-111512956D01*
X116999004Y-111715198D01*
X116999012Y-111715214D01*
X117108460Y-111904782D01*
X117108466Y-111904790D01*
X117155438Y-111966007D01*
X117898958Y-111222487D01*
X117923978Y-111282890D01*
X117995112Y-111389351D01*
X118085649Y-111479888D01*
X118192110Y-111551022D01*
X118252511Y-111576041D01*
X117508991Y-112319560D01*
X117508991Y-112319561D01*
X117570200Y-112366527D01*
X117570208Y-112366532D01*
X117759792Y-112475990D01*
X117759801Y-112475995D01*
X117962043Y-112559765D01*
X118173503Y-112616426D01*
X118390532Y-112644998D01*
X118390549Y-112645000D01*
X118609451Y-112645000D01*
X118609467Y-112644998D01*
X118826496Y-112616426D01*
X119037956Y-112559765D01*
X119240198Y-112475995D01*
X119240214Y-112475987D01*
X119429785Y-112366537D01*
X119429793Y-112366531D01*
X119491007Y-112319560D01*
X118747488Y-111576041D01*
X118807890Y-111551022D01*
X118914351Y-111479888D01*
X119004888Y-111389351D01*
X119076022Y-111282890D01*
X119101041Y-111222488D01*
X119844560Y-111966007D01*
X119891531Y-111904793D01*
X119891537Y-111904785D01*
X120000987Y-111715214D01*
X120000995Y-111715198D01*
X120084765Y-111512956D01*
X120141426Y-111301496D01*
X120169998Y-111084467D01*
X120170000Y-111084451D01*
X120170000Y-110865548D01*
X120169998Y-110865532D01*
X120141426Y-110648503D01*
X120084765Y-110437043D01*
X120000995Y-110234801D01*
X120000990Y-110234792D01*
X119891532Y-110045208D01*
X119891527Y-110045200D01*
X119844560Y-109983991D01*
X119101041Y-110727510D01*
X119076022Y-110667110D01*
X119004888Y-110560649D01*
X118914351Y-110470112D01*
X118807890Y-110398978D01*
X118747487Y-110373957D01*
X119491007Y-109630438D01*
X119491007Y-109630437D01*
X119429790Y-109583466D01*
X119429782Y-109583460D01*
X119240214Y-109474012D01*
X119240198Y-109474004D01*
X119037956Y-109390234D01*
X118826496Y-109333573D01*
X118609467Y-109305001D01*
X118609451Y-109305000D01*
X118390549Y-109305000D01*
X118390532Y-109305001D01*
X118173503Y-109333573D01*
X117962043Y-109390234D01*
X117759801Y-109474004D01*
X117759785Y-109474012D01*
X117570215Y-109583461D01*
X117570200Y-109583471D01*
X117508990Y-109630438D01*
X118252511Y-110373958D01*
X118192110Y-110398978D01*
X118085649Y-110470112D01*
X117995112Y-110560649D01*
X117923978Y-110667110D01*
X117898958Y-110727511D01*
X117155438Y-109983990D01*
X117108471Y-110045200D01*
X117108461Y-110045215D01*
X116999012Y-110234785D01*
X116999004Y-110234801D01*
X116915234Y-110437043D01*
X116858573Y-110648503D01*
X116830001Y-110865532D01*
X116830000Y-110865548D01*
X111131479Y-110865548D01*
X113569517Y-108427510D01*
X113708343Y-108236434D01*
X113815568Y-108025993D01*
X113838828Y-107954408D01*
X113852288Y-107912981D01*
X113852288Y-107912979D01*
X113855597Y-107902797D01*
X113888553Y-107801368D01*
X113888770Y-107800000D01*
X113925500Y-107568097D01*
X113925500Y-97625441D01*
X117067000Y-97625441D01*
X117067000Y-97874558D01*
X117067001Y-97874575D01*
X117097922Y-98109448D01*
X117099518Y-98121565D01*
X117135420Y-98255551D01*
X117163998Y-98362207D01*
X117259330Y-98592361D01*
X117259337Y-98592376D01*
X117383900Y-98808126D01*
X117535560Y-99005774D01*
X117535566Y-99005781D01*
X117711718Y-99181933D01*
X117711725Y-99181939D01*
X117909373Y-99333599D01*
X118125123Y-99458162D01*
X118125138Y-99458169D01*
X118220100Y-99497503D01*
X118355293Y-99553502D01*
X118595935Y-99617982D01*
X118842935Y-99650500D01*
X118842942Y-99650500D01*
X119092058Y-99650500D01*
X119092065Y-99650500D01*
X119339065Y-99617982D01*
X119579707Y-99553502D01*
X119809873Y-99458164D01*
X120025627Y-99333599D01*
X120223276Y-99181938D01*
X120399438Y-99005776D01*
X120551099Y-98808127D01*
X120675664Y-98592373D01*
X120771002Y-98362207D01*
X120835482Y-98121565D01*
X120868000Y-97874565D01*
X120868000Y-97625435D01*
X120835482Y-97378435D01*
X120771002Y-97137793D01*
X120714133Y-97000500D01*
X120675669Y-96907638D01*
X120675662Y-96907623D01*
X120551099Y-96691873D01*
X120399439Y-96494225D01*
X120399433Y-96494218D01*
X120223281Y-96318066D01*
X120223274Y-96318060D01*
X120025626Y-96166400D01*
X119809876Y-96041837D01*
X119809861Y-96041830D01*
X119579707Y-95946498D01*
X119339061Y-95882017D01*
X119092075Y-95849501D01*
X119092070Y-95849500D01*
X119092065Y-95849500D01*
X118842935Y-95849500D01*
X118842929Y-95849500D01*
X118842924Y-95849501D01*
X118595938Y-95882017D01*
X118355292Y-95946498D01*
X118125138Y-96041830D01*
X118125123Y-96041837D01*
X117909373Y-96166400D01*
X117711725Y-96318060D01*
X117711718Y-96318066D01*
X117535566Y-96494218D01*
X117535560Y-96494225D01*
X117383900Y-96691873D01*
X117259337Y-96907623D01*
X117259330Y-96907638D01*
X117163998Y-97137792D01*
X117099517Y-97378438D01*
X117067001Y-97625424D01*
X117067000Y-97625441D01*
X113925500Y-97625441D01*
X113925500Y-92272889D01*
X113945185Y-92205850D01*
X113961819Y-92185208D01*
X114360208Y-91786819D01*
X114421531Y-91753334D01*
X114447889Y-91750500D01*
X117082703Y-91750500D01*
X117149742Y-91770185D01*
X117188241Y-91809403D01*
X117224786Y-91868651D01*
X117224789Y-91868655D01*
X117348844Y-91992710D01*
X117348848Y-91992713D01*
X117498162Y-92084812D01*
X117498164Y-92084813D01*
X117498166Y-92084814D01*
X117664703Y-92139999D01*
X117767492Y-92150500D01*
X117767497Y-92150500D01*
X120167503Y-92150500D01*
X120167508Y-92150500D01*
X120270297Y-92139999D01*
X120436834Y-92084814D01*
X120586155Y-91992711D01*
X120710211Y-91868655D01*
X120802314Y-91719334D01*
X120857499Y-91552797D01*
X120868000Y-91450008D01*
X120868000Y-89049992D01*
X120857499Y-88947203D01*
X120802314Y-88780666D01*
X120783090Y-88749500D01*
X120710213Y-88631348D01*
X120710210Y-88631344D01*
X120586155Y-88507289D01*
X120586151Y-88507286D01*
X120436837Y-88415187D01*
X120436835Y-88415186D01*
X120353565Y-88387593D01*
X120270297Y-88360001D01*
X120270295Y-88360000D01*
X120167515Y-88349500D01*
X120167508Y-88349500D01*
X117767492Y-88349500D01*
X117767484Y-88349500D01*
X117664704Y-88360000D01*
X117664703Y-88360001D01*
X117498164Y-88415186D01*
X117498162Y-88415187D01*
X117348848Y-88507286D01*
X117348844Y-88507289D01*
X117224789Y-88631344D01*
X117224786Y-88631348D01*
X117188241Y-88690597D01*
X117136293Y-88737322D01*
X117082703Y-88749500D01*
X113656903Y-88749500D01*
X113423631Y-88786446D01*
X113260354Y-88839499D01*
X113220312Y-88852510D01*
X113212850Y-88854934D01*
X113199006Y-88859432D01*
X112988565Y-88966657D01*
X112797488Y-89105484D01*
X111280484Y-90622488D01*
X111141657Y-90813565D01*
X111141654Y-90813570D01*
X111135326Y-90825991D01*
X111135326Y-90825992D01*
X111034433Y-91024003D01*
X110961446Y-91248631D01*
X110924500Y-91481902D01*
X110924500Y-106777111D01*
X110904815Y-106844150D01*
X110888181Y-106864792D01*
X105766009Y-111986963D01*
X105704686Y-112020448D01*
X105634994Y-112015464D01*
X105579061Y-111973592D01*
X105554644Y-111908128D01*
X105563767Y-111851828D01*
X105613237Y-111732400D01*
X105670911Y-111517152D01*
X105670914Y-111517139D01*
X105700000Y-111296209D01*
X105700000Y-111073360D01*
X105670914Y-110852430D01*
X105670911Y-110852417D01*
X105613236Y-110637166D01*
X105527954Y-110431282D01*
X105527949Y-110431270D01*
X105416533Y-110238292D01*
X105365956Y-110172380D01*
X105365955Y-110172380D01*
X104564612Y-110973725D01*
X104559111Y-110953194D01*
X104480119Y-110816377D01*
X104368408Y-110704666D01*
X104231591Y-110625674D01*
X104211058Y-110620172D01*
X105012403Y-109818828D01*
X105012403Y-109818825D01*
X104946504Y-109768258D01*
X104946491Y-109768249D01*
X104753520Y-109656839D01*
X104753502Y-109656830D01*
X104547618Y-109571548D01*
X104332367Y-109513873D01*
X104332354Y-109513870D01*
X104111425Y-109484785D01*
X103888575Y-109484785D01*
X103667645Y-109513870D01*
X103667632Y-109513873D01*
X103452381Y-109571548D01*
X103246497Y-109656830D01*
X103246479Y-109656839D01*
X103053511Y-109768247D01*
X102987595Y-109818827D01*
X103788941Y-110620172D01*
X103768409Y-110625674D01*
X103631592Y-110704666D01*
X103519881Y-110816377D01*
X103440889Y-110953194D01*
X103435387Y-110973725D01*
X102634042Y-110172380D01*
X102583462Y-110238296D01*
X102472054Y-110431264D01*
X102472045Y-110431282D01*
X102386763Y-110637166D01*
X102329088Y-110852417D01*
X102329085Y-110852430D01*
X102300000Y-111073360D01*
X102300000Y-111296209D01*
X102329085Y-111517139D01*
X102329088Y-111517152D01*
X102386763Y-111732403D01*
X102472045Y-111938287D01*
X102472054Y-111938305D01*
X102583464Y-112131276D01*
X102583473Y-112131289D01*
X102634040Y-112197188D01*
X102634043Y-112197188D01*
X103435387Y-111395844D01*
X103440889Y-111416376D01*
X103519881Y-111553193D01*
X103631592Y-111664904D01*
X103768409Y-111743896D01*
X103788940Y-111749397D01*
X102955155Y-112583181D01*
X102893832Y-112616666D01*
X102867474Y-112619500D01*
X100117890Y-112619500D01*
X100050851Y-112599815D01*
X100030209Y-112583181D01*
X95884708Y-108437680D01*
X95851223Y-108376357D01*
X95856207Y-108306665D01*
X95884708Y-108262318D01*
X97212852Y-106934174D01*
X98644517Y-105502510D01*
X98783343Y-105311434D01*
X98890568Y-105100992D01*
X98963553Y-104876368D01*
X98980571Y-104768919D01*
X99000500Y-104643097D01*
X99000500Y-103606674D01*
X99020185Y-103539635D01*
X99072989Y-103493880D01*
X99142147Y-103483936D01*
X99205703Y-103512961D01*
X99212181Y-103518993D01*
X102263181Y-106569993D01*
X102296666Y-106631316D01*
X102299500Y-106657674D01*
X102299500Y-107184800D01*
X102310000Y-107287580D01*
X102310001Y-107287581D01*
X102365186Y-107454120D01*
X102365187Y-107454122D01*
X102457286Y-107603436D01*
X102457289Y-107603440D01*
X102581344Y-107727495D01*
X102581348Y-107727498D01*
X102730662Y-107819597D01*
X102730664Y-107819598D01*
X102730666Y-107819599D01*
X102897203Y-107874784D01*
X102999992Y-107885285D01*
X102999997Y-107885285D01*
X105000003Y-107885285D01*
X105000008Y-107885285D01*
X105102797Y-107874784D01*
X105269334Y-107819599D01*
X105418655Y-107727496D01*
X105542711Y-107603440D01*
X105634814Y-107454119D01*
X105689999Y-107287582D01*
X105700500Y-107184793D01*
X105700500Y-105184777D01*
X105689999Y-105081988D01*
X105634814Y-104915451D01*
X105610707Y-104876368D01*
X105542713Y-104766133D01*
X105542710Y-104766129D01*
X105418655Y-104642074D01*
X105418651Y-104642071D01*
X105269337Y-104549972D01*
X105269335Y-104549971D01*
X105186065Y-104522378D01*
X105102797Y-104494786D01*
X105102795Y-104494785D01*
X105000015Y-104484285D01*
X105000008Y-104484285D01*
X104472890Y-104484285D01*
X104405851Y-104464600D01*
X104385209Y-104447966D01*
X101576819Y-101639576D01*
X101543334Y-101578253D01*
X101540500Y-101551895D01*
X101540500Y-92246902D01*
X101503553Y-92013631D01*
X101456446Y-91868651D01*
X101432072Y-91793639D01*
X101431012Y-91789880D01*
X101430568Y-91789008D01*
X101430568Y-91789007D01*
X101323343Y-91578566D01*
X101184517Y-91387490D01*
X95452510Y-85655483D01*
X95261434Y-85516657D01*
X95050996Y-85409433D01*
X94826368Y-85336446D01*
X94593097Y-85299500D01*
X94593092Y-85299500D01*
X79943092Y-85299500D01*
X79043092Y-85299500D01*
X77743092Y-85299500D01*
X77693092Y-85299500D01*
X64918092Y-85299500D01*
X64681908Y-85299500D01*
X64681903Y-85299500D01*
X64448631Y-85336446D01*
X64224003Y-85409433D01*
X64013563Y-85516659D01*
X63822496Y-85655476D01*
X63822491Y-85655480D01*
X57930485Y-91547487D01*
X57930484Y-91547488D01*
X57791659Y-91738562D01*
X57791658Y-91738564D01*
X57765956Y-91789008D01*
X57684433Y-91949003D01*
X57611446Y-92173631D01*
X57574500Y-92406902D01*
X57574500Y-101863152D01*
X57554815Y-101930191D01*
X57502011Y-101975946D01*
X57432853Y-101985890D01*
X57388501Y-101970539D01*
X57225898Y-101876661D01*
X57225876Y-101876650D01*
X57013887Y-101788842D01*
X56792238Y-101729452D01*
X56754215Y-101724446D01*
X56564741Y-101699500D01*
X56564734Y-101699500D01*
X56335266Y-101699500D01*
X56335258Y-101699500D01*
X56118715Y-101728009D01*
X56107762Y-101729452D01*
X56014076Y-101754554D01*
X55886112Y-101788842D01*
X55674123Y-101876650D01*
X55674109Y-101876657D01*
X55475382Y-101991392D01*
X55293338Y-102131081D01*
X55131081Y-102293338D01*
X54991392Y-102475382D01*
X54876657Y-102674109D01*
X54876653Y-102674118D01*
X54788842Y-102886112D01*
X54759734Y-102994744D01*
X54727640Y-103050331D01*
X50355485Y-107422487D01*
X50355484Y-107422488D01*
X50216655Y-107613567D01*
X50161850Y-107721131D01*
X50161850Y-107721132D01*
X50109433Y-107824003D01*
X50036446Y-108048631D01*
X49999500Y-108281902D01*
X49999500Y-115368097D01*
X50036446Y-115601368D01*
X50109433Y-115825996D01*
X50173049Y-115950849D01*
X50216657Y-116036434D01*
X50355483Y-116227510D01*
X55272490Y-121144517D01*
X55463566Y-121283343D01*
X55566781Y-121335933D01*
X55674006Y-121390568D01*
X55674012Y-121390570D01*
X55733212Y-121409805D01*
X55733213Y-121409805D01*
X55815922Y-121436679D01*
X55898631Y-121463553D01*
X56131903Y-121500500D01*
X56131908Y-121500500D01*
X59109611Y-121500500D01*
X59176650Y-121520185D01*
X59197292Y-121536819D01*
X60515792Y-122855319D01*
X60549277Y-122916642D01*
X60544293Y-122986334D01*
X60502421Y-123042267D01*
X60436957Y-123066684D01*
X60428111Y-123067000D01*
X58549984Y-123067000D01*
X58447204Y-123077500D01*
X58447203Y-123077501D01*
X58280664Y-123132686D01*
X58280662Y-123132687D01*
X58131348Y-123224786D01*
X58131344Y-123224789D01*
X58007289Y-123348844D01*
X58007286Y-123348848D01*
X57970741Y-123408097D01*
X57918793Y-123454822D01*
X57865203Y-123467000D01*
X56740389Y-123467000D01*
X56673350Y-123447315D01*
X56652708Y-123430681D01*
X49536819Y-116314792D01*
X49503334Y-116253469D01*
X49500500Y-116227111D01*
X49500500Y-106881902D01*
X49468827Y-106681933D01*
X49468827Y-106681930D01*
X49464985Y-106657674D01*
X49463553Y-106648631D01*
X49390568Y-106424008D01*
X49390566Y-106424005D01*
X49390566Y-106424003D01*
X49297946Y-106242227D01*
X49283343Y-106213566D01*
X49144517Y-106022490D01*
X46172358Y-103050331D01*
X46140265Y-102994744D01*
X46111158Y-102886113D01*
X46111154Y-102886103D01*
X46023347Y-102674118D01*
X46023342Y-102674109D01*
X46022755Y-102673092D01*
X45908611Y-102475388D01*
X45850752Y-102399985D01*
X45825559Y-102334817D01*
X45839597Y-102266373D01*
X45888411Y-102216383D01*
X45949129Y-102200500D01*
X48541978Y-102200500D01*
X48609017Y-102220185D01*
X48654772Y-102272989D01*
X48656539Y-102277048D01*
X48701951Y-102386685D01*
X48701958Y-102386700D01*
X48833075Y-102613803D01*
X48992718Y-102821851D01*
X48992726Y-102821860D01*
X49178140Y-103007274D01*
X49178148Y-103007281D01*
X49178149Y-103007282D01*
X49210234Y-103031902D01*
X49386196Y-103166924D01*
X49613299Y-103298041D01*
X49613309Y-103298046D01*
X49855571Y-103398394D01*
X49855581Y-103398398D01*
X50108884Y-103466270D01*
X50368880Y-103500500D01*
X50368887Y-103500500D01*
X50631113Y-103500500D01*
X50631120Y-103500500D01*
X50891116Y-103466270D01*
X51144419Y-103398398D01*
X51386697Y-103298043D01*
X51613803Y-103166924D01*
X51821851Y-103007282D01*
X51821855Y-103007277D01*
X51821860Y-103007274D01*
X52007274Y-102821860D01*
X52007277Y-102821855D01*
X52007282Y-102821851D01*
X52166924Y-102613803D01*
X52298043Y-102386697D01*
X52398398Y-102144419D01*
X52466270Y-101891116D01*
X52500500Y-101631120D01*
X52500500Y-101368880D01*
X52466270Y-101108884D01*
X52398398Y-100855581D01*
X52351569Y-100742525D01*
X52298046Y-100613309D01*
X52298041Y-100613299D01*
X52166924Y-100386196D01*
X52007281Y-100178148D01*
X52007274Y-100178140D01*
X51821860Y-99992726D01*
X51821851Y-99992718D01*
X51613803Y-99833075D01*
X51386700Y-99701958D01*
X51386690Y-99701953D01*
X51144428Y-99601605D01*
X51144421Y-99601603D01*
X51144419Y-99601602D01*
X50891116Y-99533730D01*
X50691591Y-99507461D01*
X50627095Y-99498970D01*
X50627288Y-99497503D01*
X50568414Y-99476219D01*
X50486434Y-99416657D01*
X50275996Y-99309433D01*
X50051368Y-99236446D01*
X49818097Y-99199500D01*
X49818092Y-99199500D01*
X44947889Y-99199500D01*
X44880850Y-99179815D01*
X44860208Y-99163181D01*
X44336819Y-98639792D01*
X44322115Y-98612864D01*
X44305523Y-98587046D01*
X44304631Y-98580845D01*
X44303334Y-98578469D01*
X44300500Y-98552111D01*
X44300500Y-98354820D01*
X44320185Y-98287781D01*
X44350192Y-98255551D01*
X44357546Y-98250046D01*
X44443796Y-98134831D01*
X44494091Y-97999983D01*
X44500500Y-97940373D01*
X44500499Y-95444628D01*
X44494091Y-95385017D01*
X44492878Y-95381766D01*
X44443797Y-95250171D01*
X44443793Y-95250164D01*
X44357547Y-95134955D01*
X44357544Y-95134952D01*
X44242335Y-95048706D01*
X44242328Y-95048702D01*
X44107482Y-94998408D01*
X44107483Y-94998408D01*
X44047883Y-94992001D01*
X44047881Y-94992000D01*
X44047873Y-94992000D01*
X44047864Y-94992000D01*
X41552129Y-94992000D01*
X41552123Y-94992001D01*
X41492516Y-94998408D01*
X41357671Y-95048702D01*
X41357664Y-95048706D01*
X41242455Y-95134952D01*
X41242452Y-95134955D01*
X41156206Y-95250164D01*
X41156202Y-95250171D01*
X41105908Y-95385017D01*
X41100736Y-95433129D01*
X41099501Y-95444623D01*
X41099500Y-95444635D01*
X41099500Y-97940370D01*
X41099501Y-97940376D01*
X41105908Y-97999983D01*
X41156202Y-98134828D01*
X41156203Y-98134829D01*
X41156204Y-98134831D01*
X41220638Y-98220904D01*
X41242454Y-98250046D01*
X41249808Y-98255551D01*
X41291681Y-98311483D01*
X41299500Y-98354820D01*
X41299500Y-100027111D01*
X41279815Y-100094150D01*
X41263181Y-100114792D01*
X39205485Y-102172487D01*
X39205484Y-102172488D01*
X39066657Y-102363565D01*
X39048790Y-102398632D01*
X38959434Y-102574003D01*
X38886446Y-102798631D01*
X38849500Y-103031902D01*
X36141925Y-103031902D01*
X36141925Y-85767484D01*
X43849500Y-85767484D01*
X43849500Y-88167515D01*
X43860000Y-88270295D01*
X43860001Y-88270297D01*
X43876532Y-88320185D01*
X43915186Y-88436835D01*
X43915187Y-88436837D01*
X44007286Y-88586151D01*
X44007289Y-88586155D01*
X44131344Y-88710210D01*
X44131348Y-88710213D01*
X44280662Y-88802312D01*
X44280664Y-88802313D01*
X44280666Y-88802314D01*
X44447203Y-88857499D01*
X44549992Y-88868000D01*
X44975500Y-88868000D01*
X45042539Y-88887685D01*
X45088294Y-88940489D01*
X45099500Y-88992000D01*
X45099500Y-95874535D01*
X45083278Y-95935084D01*
X45083388Y-95935139D01*
X45083115Y-95935691D01*
X45082892Y-95936526D01*
X45081600Y-95938763D01*
X45081592Y-95938780D01*
X44996293Y-96144709D01*
X44996290Y-96144719D01*
X44947475Y-96326902D01*
X44938597Y-96360034D01*
X44938594Y-96360047D01*
X44909501Y-96581033D01*
X44909500Y-96581049D01*
X44909500Y-96803950D01*
X44909501Y-96803966D01*
X44938594Y-97024952D01*
X44938595Y-97024957D01*
X44938596Y-97024963D01*
X44996290Y-97240280D01*
X44996293Y-97240290D01*
X45081593Y-97446222D01*
X45081595Y-97446226D01*
X45193052Y-97639274D01*
X45193057Y-97639280D01*
X45193058Y-97639282D01*
X45328751Y-97816122D01*
X45328757Y-97816129D01*
X45486370Y-97973742D01*
X45486377Y-97973748D01*
X45549897Y-98022488D01*
X45663226Y-98109448D01*
X45856274Y-98220905D01*
X45926627Y-98250046D01*
X46061074Y-98305736D01*
X46062219Y-98306210D01*
X46277537Y-98363904D01*
X46498543Y-98393000D01*
X46498550Y-98393000D01*
X46721450Y-98393000D01*
X46721457Y-98393000D01*
X46942463Y-98363904D01*
X47157781Y-98306210D01*
X47363726Y-98220905D01*
X47556774Y-98109448D01*
X47733624Y-97973747D01*
X47891247Y-97816124D01*
X48026948Y-97639274D01*
X48138405Y-97446226D01*
X48223710Y-97240281D01*
X48281404Y-97024963D01*
X48310500Y-96803957D01*
X48310500Y-96581049D01*
X48719500Y-96581049D01*
X48719500Y-96803950D01*
X48719501Y-96803966D01*
X48748594Y-97024952D01*
X48748595Y-97024957D01*
X48748596Y-97024963D01*
X48806290Y-97240280D01*
X48806293Y-97240290D01*
X48891593Y-97446222D01*
X48891595Y-97446226D01*
X49003052Y-97639274D01*
X49003057Y-97639280D01*
X49003058Y-97639282D01*
X49138751Y-97816122D01*
X49138757Y-97816129D01*
X49296370Y-97973742D01*
X49296377Y-97973748D01*
X49359897Y-98022488D01*
X49473226Y-98109448D01*
X49666274Y-98220905D01*
X49736627Y-98250046D01*
X49871074Y-98305736D01*
X49872219Y-98306210D01*
X50087537Y-98363904D01*
X50308543Y-98393000D01*
X50308550Y-98393000D01*
X50531450Y-98393000D01*
X50531457Y-98393000D01*
X50752463Y-98363904D01*
X50967781Y-98306210D01*
X51173726Y-98220905D01*
X51366774Y-98109448D01*
X51543624Y-97973747D01*
X51543629Y-97973742D01*
X51594550Y-97922822D01*
X51701242Y-97816129D01*
X51701247Y-97816124D01*
X51836948Y-97639274D01*
X51948405Y-97446226D01*
X52033710Y-97240281D01*
X52068768Y-97109435D01*
X52078054Y-97085244D01*
X52165568Y-96913492D01*
X52238553Y-96688868D01*
X52255626Y-96581075D01*
X52530000Y-96581075D01*
X52530000Y-96803924D01*
X52559085Y-97024854D01*
X52559088Y-97024867D01*
X52616763Y-97240118D01*
X52702045Y-97446002D01*
X52702054Y-97446020D01*
X52813464Y-97638991D01*
X52813473Y-97639004D01*
X52864040Y-97704903D01*
X52864043Y-97704903D01*
X53665387Y-96903559D01*
X53670889Y-96924091D01*
X53749881Y-97060908D01*
X53861592Y-97172619D01*
X53998409Y-97251611D01*
X54018940Y-97257112D01*
X53217595Y-98058455D01*
X53217595Y-98058456D01*
X53283507Y-98109033D01*
X53476485Y-98220449D01*
X53476497Y-98220454D01*
X53682381Y-98305736D01*
X53897632Y-98363411D01*
X53897645Y-98363414D01*
X54118575Y-98392500D01*
X54341425Y-98392500D01*
X54562354Y-98363414D01*
X54562367Y-98363411D01*
X54777618Y-98305736D01*
X54983502Y-98220454D01*
X54983514Y-98220449D01*
X55176498Y-98109030D01*
X55242403Y-98058457D01*
X55242404Y-98058456D01*
X54441059Y-97257112D01*
X54461591Y-97251611D01*
X54598408Y-97172619D01*
X54710119Y-97060908D01*
X54789111Y-96924091D01*
X54794612Y-96903559D01*
X55595956Y-97704904D01*
X55595957Y-97704903D01*
X55646530Y-97638998D01*
X55757949Y-97446014D01*
X55757954Y-97446002D01*
X55843236Y-97240118D01*
X55900911Y-97024867D01*
X55900914Y-97024854D01*
X55930000Y-96803924D01*
X55930000Y-96581075D01*
X55900914Y-96360145D01*
X55900911Y-96360132D01*
X55843236Y-96144881D01*
X55757954Y-95938997D01*
X55757949Y-95938985D01*
X55646533Y-95746007D01*
X55595956Y-95680095D01*
X55595955Y-95680095D01*
X54794612Y-96481439D01*
X54789111Y-96460909D01*
X54710119Y-96324092D01*
X54598408Y-96212381D01*
X54461591Y-96133389D01*
X54441058Y-96127887D01*
X55242403Y-95326543D01*
X55242403Y-95326540D01*
X55176504Y-95275973D01*
X55176491Y-95275964D01*
X54983520Y-95164554D01*
X54983502Y-95164545D01*
X54777618Y-95079263D01*
X54562367Y-95021588D01*
X54562354Y-95021585D01*
X54341425Y-94992500D01*
X54118575Y-94992500D01*
X53897645Y-95021585D01*
X53897632Y-95021588D01*
X53682381Y-95079263D01*
X53476497Y-95164545D01*
X53476479Y-95164554D01*
X53283511Y-95275962D01*
X53217595Y-95326542D01*
X54018941Y-96127887D01*
X53998409Y-96133389D01*
X53861592Y-96212381D01*
X53749881Y-96324092D01*
X53670889Y-96460909D01*
X53665387Y-96481440D01*
X52864042Y-95680095D01*
X52813462Y-95746011D01*
X52702054Y-95938979D01*
X52702045Y-95938997D01*
X52616763Y-96144881D01*
X52559088Y-96360132D01*
X52559085Y-96360145D01*
X52530000Y-96581075D01*
X52255626Y-96581075D01*
X52259341Y-96557619D01*
X52275500Y-96455597D01*
X52275500Y-88143435D01*
X52295185Y-88076396D01*
X52301125Y-88067948D01*
X52333599Y-88025627D01*
X52458162Y-87809876D01*
X52458164Y-87809873D01*
X52553502Y-87579707D01*
X52617982Y-87339065D01*
X52650500Y-87092065D01*
X52650500Y-86842935D01*
X52617982Y-86595935D01*
X52553502Y-86355293D01*
X52458164Y-86125127D01*
X52439255Y-86092376D01*
X52333599Y-85909373D01*
X52181939Y-85711725D01*
X52181933Y-85711718D01*
X52005781Y-85535566D01*
X52005774Y-85535560D01*
X51808126Y-85383900D01*
X51592376Y-85259337D01*
X51592361Y-85259330D01*
X51535884Y-85235937D01*
X51362207Y-85163998D01*
X51218311Y-85125441D01*
X117067000Y-85125441D01*
X117067000Y-85374558D01*
X117067001Y-85374575D01*
X117088195Y-85535562D01*
X117099518Y-85621565D01*
X117123676Y-85711724D01*
X117163998Y-85862207D01*
X117259330Y-86092361D01*
X117259337Y-86092376D01*
X117383900Y-86308126D01*
X117535560Y-86505774D01*
X117535566Y-86505781D01*
X117711718Y-86681933D01*
X117711725Y-86681939D01*
X117909373Y-86833599D01*
X118125123Y-86958162D01*
X118125138Y-86958169D01*
X118224325Y-86999253D01*
X118355293Y-87053502D01*
X118595935Y-87117982D01*
X118842935Y-87150500D01*
X118842942Y-87150500D01*
X119092058Y-87150500D01*
X119092065Y-87150500D01*
X119339065Y-87117982D01*
X119579707Y-87053502D01*
X119809873Y-86958164D01*
X120025627Y-86833599D01*
X120223276Y-86681938D01*
X120399438Y-86505776D01*
X120551099Y-86308127D01*
X120675664Y-86092373D01*
X120771002Y-85862207D01*
X120835482Y-85621565D01*
X120868000Y-85374565D01*
X120868000Y-85125435D01*
X120835482Y-84878435D01*
X120771002Y-84637793D01*
X120675664Y-84407627D01*
X120611432Y-84296374D01*
X120551099Y-84191873D01*
X120399439Y-83994225D01*
X120399433Y-83994218D01*
X120223281Y-83818066D01*
X120223274Y-83818060D01*
X120025626Y-83666400D01*
X119809876Y-83541837D01*
X119809861Y-83541830D01*
X119579707Y-83446498D01*
X119484958Y-83421110D01*
X119339065Y-83382018D01*
X119339064Y-83382017D01*
X119339061Y-83382017D01*
X119092075Y-83349501D01*
X119092070Y-83349500D01*
X119092065Y-83349500D01*
X118842935Y-83349500D01*
X118842929Y-83349500D01*
X118842924Y-83349501D01*
X118595938Y-83382017D01*
X118355292Y-83446498D01*
X118125138Y-83541830D01*
X118125123Y-83541837D01*
X117909373Y-83666400D01*
X117711725Y-83818060D01*
X117711718Y-83818066D01*
X117535566Y-83994218D01*
X117535560Y-83994225D01*
X117383900Y-84191873D01*
X117259337Y-84407623D01*
X117259330Y-84407638D01*
X117163998Y-84637792D01*
X117099517Y-84878438D01*
X117067001Y-85125424D01*
X117067000Y-85125441D01*
X51218311Y-85125441D01*
X51121561Y-85099517D01*
X50874575Y-85067001D01*
X50874570Y-85067000D01*
X50874565Y-85067000D01*
X50625435Y-85067000D01*
X50625429Y-85067000D01*
X50625424Y-85067001D01*
X50378438Y-85099517D01*
X50137792Y-85163998D01*
X49907638Y-85259330D01*
X49907623Y-85259337D01*
X49691873Y-85383900D01*
X49494225Y-85535560D01*
X49494218Y-85535566D01*
X49318066Y-85711718D01*
X49318060Y-85711725D01*
X49166400Y-85909373D01*
X49041837Y-86125123D01*
X49041830Y-86125138D01*
X48946498Y-86355292D01*
X48882017Y-86595938D01*
X48849501Y-86842924D01*
X48849500Y-86842941D01*
X48849500Y-87092058D01*
X48849501Y-87092075D01*
X48882017Y-87339061D01*
X48946498Y-87579707D01*
X49041830Y-87809861D01*
X49041837Y-87809876D01*
X49166400Y-88025626D01*
X49248876Y-88133111D01*
X49274070Y-88198280D01*
X49274500Y-88208597D01*
X49274500Y-95381766D01*
X49254815Y-95448805D01*
X49238181Y-95469447D01*
X49138757Y-95568870D01*
X49138751Y-95568877D01*
X49003058Y-95745717D01*
X49003052Y-95745726D01*
X48891595Y-95938773D01*
X48891593Y-95938777D01*
X48806293Y-96144709D01*
X48806290Y-96144719D01*
X48757475Y-96326902D01*
X48748597Y-96360034D01*
X48748594Y-96360047D01*
X48719501Y-96581033D01*
X48719500Y-96581049D01*
X48310500Y-96581049D01*
X48310500Y-96581043D01*
X48281404Y-96360037D01*
X48223710Y-96144719D01*
X48138405Y-95938774D01*
X48138403Y-95938771D01*
X48138401Y-95938766D01*
X48117113Y-95901894D01*
X48100500Y-95839894D01*
X48100500Y-87699402D01*
X48063553Y-87466131D01*
X47990566Y-87241503D01*
X47894774Y-87053502D01*
X47883343Y-87031067D01*
X47801261Y-86918091D01*
X47744518Y-86839990D01*
X47683109Y-86778581D01*
X47679732Y-86774579D01*
X47667665Y-86747213D01*
X47653334Y-86720968D01*
X47652444Y-86712695D01*
X47651542Y-86710649D01*
X47651947Y-86708070D01*
X47650500Y-86694610D01*
X47650500Y-85767497D01*
X47650499Y-85767484D01*
X47639999Y-85664704D01*
X47639999Y-85664703D01*
X47584814Y-85498166D01*
X47530082Y-85409433D01*
X47492713Y-85348848D01*
X47492710Y-85348844D01*
X47368655Y-85224789D01*
X47368651Y-85224786D01*
X47219337Y-85132687D01*
X47219335Y-85132686D01*
X47119237Y-85099517D01*
X47052797Y-85077501D01*
X47052795Y-85077500D01*
X46950015Y-85067000D01*
X46950008Y-85067000D01*
X44549992Y-85067000D01*
X44549984Y-85067000D01*
X44447204Y-85077500D01*
X44447203Y-85077501D01*
X44280664Y-85132686D01*
X44280662Y-85132687D01*
X44131348Y-85224786D01*
X44131344Y-85224789D01*
X44007289Y-85348844D01*
X44007286Y-85348848D01*
X43915187Y-85498162D01*
X43915186Y-85498164D01*
X43860001Y-85664703D01*
X43860000Y-85664704D01*
X43849500Y-85767484D01*
X36141925Y-85767484D01*
X36141925Y-84175220D01*
X36161610Y-84108181D01*
X36214414Y-84062426D01*
X36283572Y-84052482D01*
X36338807Y-84074900D01*
X36445121Y-84152142D01*
X36613551Y-84237961D01*
X36613553Y-84237962D01*
X36676567Y-84258436D01*
X36793332Y-84296375D01*
X36879803Y-84310070D01*
X36980032Y-84325946D01*
X36980037Y-84325946D01*
X37169076Y-84325946D01*
X37259586Y-84311609D01*
X37355776Y-84296375D01*
X37535557Y-84237961D01*
X37703987Y-84152142D01*
X37856918Y-84041031D01*
X37990585Y-83907364D01*
X38101696Y-83754433D01*
X38187515Y-83586003D01*
X38245929Y-83406222D01*
X38266758Y-83274712D01*
X38275500Y-83219522D01*
X38275500Y-83030477D01*
X38252502Y-82885279D01*
X38245929Y-82843778D01*
X38187515Y-82663997D01*
X38101696Y-82495567D01*
X38101694Y-82495564D01*
X38101693Y-82495562D01*
X38073922Y-82457339D01*
X38050441Y-82391533D01*
X38066266Y-82323479D01*
X38116371Y-82274784D01*
X38174239Y-82260453D01*
X125586624Y-82260453D01*
X125611156Y-82267656D01*
G37*
%TD.AperFunction*%
%TD*%
M02*
