%TF.GenerationSoftware,KiCad,Pcbnew,9.0.6*%
%TF.CreationDate,2025-12-08T17:51:02-06:00*%
%TF.ProjectId,SCH_PowerSupply,5343485f-506f-4776-9572-537570706c79,rev?*%
%TF.SameCoordinates,Original*%
%TF.FileFunction,Profile,NP*%
%FSLAX46Y46*%
G04 Gerber Fmt 4.6, Leading zero omitted, Abs format (unit mm)*
G04 Created by KiCad (PCBNEW 9.0.6) date 2025-12-08 17:51:02*
%MOMM*%
%LPD*%
G01*
G04 APERTURE LIST*
G04 Aperture macros list*
%AMRoundRect*
0 Rectangle with rounded corners*
0 $1 Rounding radius*
0 $2 $3 $4 $5 $6 $7 $8 $9 X,Y pos of 4 corners*
0 Add a 4 corners polygon primitive as box body*
4,1,4,$2,$3,$4,$5,$6,$7,$8,$9,$2,$3,0*
0 Add four circle primitives for the rounded corners*
1,1,$1+$1,$2,$3*
1,1,$1+$1,$4,$5*
1,1,$1+$1,$6,$7*
1,1,$1+$1,$8,$9*
0 Add four rect primitives between the rounded corners*
20,1,$1+$1,$2,$3,$4,$5,0*
20,1,$1+$1,$4,$5,$6,$7,0*
20,1,$1+$1,$6,$7,$8,$9,0*
20,1,$1+$1,$8,$9,$2,$3,0*%
G04 Aperture macros list end*
%TA.AperFunction,Profile*%
%ADD10C,0.050000*%
%TD*%
%TA.AperFunction,ComponentPad*%
%ADD11RoundRect,0.250000X-0.550000X0.950000X-0.550000X-0.950000X0.550000X-0.950000X0.550000X0.950000X0*%
%TD*%
%TA.AperFunction,ComponentPad*%
%ADD12O,1.600000X2.400000*%
%TD*%
%TA.AperFunction,ComponentPad*%
%ADD13RoundRect,0.250001X-1.149999X-1.149999X1.149999X-1.149999X1.149999X1.149999X-1.149999X1.149999X0*%
%TD*%
%TA.AperFunction,ComponentPad*%
%ADD14C,2.800000*%
%TD*%
%TA.AperFunction,ComponentPad*%
%ADD15R,1.905000X2.000000*%
%TD*%
%TA.AperFunction,ComponentPad*%
%ADD16O,1.905000X2.000000*%
%TD*%
%TA.AperFunction,ComponentPad*%
%ADD17C,1.500000*%
%TD*%
%TA.AperFunction,ComponentPad*%
%ADD18R,1.500000X1.500000*%
%TD*%
%TA.AperFunction,ComponentPad*%
%ADD19RoundRect,0.250000X0.550000X-0.950000X0.550000X0.950000X-0.550000X0.950000X-0.550000X-0.950000X0*%
%TD*%
%TA.AperFunction,ComponentPad*%
%ADD20C,2.340000*%
%TD*%
%TA.AperFunction,ComponentPad*%
%ADD21C,1.600000*%
%TD*%
%TA.AperFunction,ComponentPad*%
%ADD22RoundRect,0.250001X1.149999X-1.149999X1.149999X1.149999X-1.149999X1.149999X-1.149999X-1.149999X0*%
%TD*%
%TA.AperFunction,ComponentPad*%
%ADD23RoundRect,0.250000X-0.550000X0.550000X-0.550000X-0.550000X0.550000X-0.550000X0.550000X0.550000X0*%
%TD*%
%TA.AperFunction,ComponentPad*%
%ADD24C,2.000000*%
%TD*%
%TA.AperFunction,ComponentPad*%
%ADD25RoundRect,0.250000X-0.750000X0.750000X-0.750000X-0.750000X0.750000X-0.750000X0.750000X0.750000X0*%
%TD*%
%TA.AperFunction,ComponentPad*%
%ADD26C,1.371600*%
%TD*%
%TA.AperFunction,ComponentPad*%
%ADD27R,1.371600X1.371600*%
%TD*%
%TA.AperFunction,ComponentPad*%
%ADD28C,2.400000*%
%TD*%
%TA.AperFunction,ComponentPad*%
%ADD29RoundRect,0.250001X-0.949999X0.949999X-0.949999X-0.949999X0.949999X-0.949999X0.949999X0.949999X0*%
%TD*%
%TA.AperFunction,ComponentPad*%
%ADD30C,1.400000*%
%TD*%
%TA.AperFunction,ComponentPad*%
%ADD31R,2.400000X2.400000*%
%TD*%
%TA.AperFunction,ComponentPad*%
%ADD32RoundRect,0.250000X-0.750000X-0.750000X0.750000X-0.750000X0.750000X0.750000X-0.750000X0.750000X0*%
%TD*%
%TA.AperFunction,ComponentPad*%
%ADD33RoundRect,0.250000X0.550000X0.550000X-0.550000X0.550000X-0.550000X-0.550000X0.550000X-0.550000X0*%
%TD*%
%TA.AperFunction,ComponentPad*%
%ADD34C,2.500000*%
%TD*%
%TA.AperFunction,ComponentPad*%
%ADD35C,3.000000*%
%TD*%
%TA.AperFunction,ComponentPad*%
%ADD36C,1.295400*%
%TD*%
%TA.AperFunction,ComponentPad*%
%ADD37R,1.295400X1.295400*%
%TD*%
%TA.AperFunction,Conductor*%
%ADD38C,2.000000*%
%TD*%
%TA.AperFunction,Conductor*%
%ADD39C,0.500000*%
%TD*%
%ADD40RoundRect,0.250000X-0.550000X0.950000X-0.550000X-0.950000X0.550000X-0.950000X0.550000X0.950000X0*%
%ADD41O,1.600000X2.400000*%
%ADD42RoundRect,0.250001X-1.149999X-1.149999X1.149999X-1.149999X1.149999X1.149999X-1.149999X1.149999X0*%
%ADD43C,2.800000*%
%ADD44R,1.905000X2.000000*%
%ADD45O,1.905000X2.000000*%
%ADD46C,1.500000*%
%ADD47R,1.500000X1.500000*%
%ADD48RoundRect,0.250000X0.550000X-0.950000X0.550000X0.950000X-0.550000X0.950000X-0.550000X-0.950000X0*%
%ADD49C,2.340000*%
%ADD50C,1.600000*%
%ADD51RoundRect,0.250001X1.149999X-1.149999X1.149999X1.149999X-1.149999X1.149999X-1.149999X-1.149999X0*%
%ADD52RoundRect,0.250000X-0.550000X0.550000X-0.550000X-0.550000X0.550000X-0.550000X0.550000X0.550000X0*%
%ADD53C,2.000000*%
%ADD54RoundRect,0.250000X-0.750000X0.750000X-0.750000X-0.750000X0.750000X-0.750000X0.750000X0.750000X0*%
%ADD55C,1.371600*%
%ADD56R,1.371600X1.371600*%
%ADD57C,2.400000*%
%ADD58RoundRect,0.250001X-0.949999X0.949999X-0.949999X-0.949999X0.949999X-0.949999X0.949999X0.949999X0*%
%ADD59C,1.400000*%
%ADD60R,2.400000X2.400000*%
%ADD61RoundRect,0.250000X-0.750000X-0.750000X0.750000X-0.750000X0.750000X0.750000X-0.750000X0.750000X0*%
%ADD62RoundRect,0.250000X0.550000X0.550000X-0.550000X0.550000X-0.550000X-0.550000X0.550000X-0.550000X0*%
%ADD63C,2.500000*%
%ADD64C,3.000000*%
%ADD65C,1.295400*%
%ADD66R,1.295400X1.295400*%
G04 APERTURE END LIST*
D10*
X121880446Y-134400000D02*
G75*
G02*
X120479554Y-134400000I-700446J0D01*
G01*
X120479554Y-134400000D02*
G75*
G02*
X121880446Y-134400000I700446J0D01*
G01*
X121170892Y-189580000D02*
G75*
G02*
X119770000Y-189580000I-700446J0D01*
G01*
X119770000Y-189580000D02*
G75*
G02*
X121170892Y-189580000I700446J0D01*
G01*
X37610892Y-189510000D02*
G75*
G02*
X36210000Y-189510000I-700446J0D01*
G01*
X36210000Y-189510000D02*
G75*
G02*
X37610892Y-189510000I700446J0D01*
G01*
X37520892Y-141630000D02*
G75*
G02*
X36120000Y-141630000I-700446J0D01*
G01*
X36120000Y-141630000D02*
G75*
G02*
X37520892Y-141630000I700446J0D01*
G01*
X126921371Y-84130000D02*
G75*
G02*
X124658629Y-84130000I-1131371J0D01*
G01*
X124658629Y-84130000D02*
G75*
G02*
X126921371Y-84130000I1131371J0D01*
G01*
X126740000Y-128280000D02*
G75*
G02*
X125339108Y-128280000I-700446J0D01*
G01*
X125339108Y-128280000D02*
G75*
G02*
X126740000Y-128280000I700446J0D01*
G01*
X37775000Y-83125000D02*
G75*
G02*
X36374108Y-83125000I-700446J0D01*
G01*
X36374108Y-83125000D02*
G75*
G02*
X37775000Y-83125000I700446J0D01*
G01*
X37700446Y-128375000D02*
G75*
G02*
X36299554Y-128375000I-700446J0D01*
G01*
X36299554Y-128375000D02*
G75*
G02*
X37700446Y-128375000I700446J0D01*
G01*
X35641425Y-81759953D02*
X127961425Y-81759953D01*
X127961425Y-129759953D01*
X35641425Y-129759953D01*
X35641425Y-81759953D01*
X35790000Y-133730000D02*
X121790000Y-133730000D01*
X121790000Y-190640000D01*
X35790000Y-190640000D01*
X35790000Y-133730000D01*
D11*
%TO.P,U6,1*%
%TO.N,SC3.3*%
X55500000Y-152430000D03*
D12*
%TO.P,U6,2*%
X52960000Y-152430000D03*
%TO.P,U6,3*%
%TO.N,Net-(U5-Pad1)*%
X50420000Y-152430000D03*
%TO.P,U6,4*%
%TO.N,SC15*%
X47880000Y-152430000D03*
%TO.P,U6,5*%
X45340000Y-152430000D03*
%TO.P,U6,6*%
%TO.N,Net-(U5-Pad5)*%
X42800000Y-152430000D03*
%TO.P,U6,7,GND*%
%TO.N,GND_C*%
X40260000Y-152430000D03*
%TO.P,U6,8*%
%TO.N,Net-(U5-Pad3)*%
X40260000Y-160050000D03*
%TO.P,U6,9*%
%TO.N,Net-(U5-Pad2)*%
X42800000Y-160050000D03*
%TO.P,U6,10*%
%TO.N,Net-(U5-Pad6)*%
X45340000Y-160050000D03*
%TO.P,U6,11*%
%TO.N,Net-(U5-Pad9)*%
X47880000Y-160050000D03*
%TO.P,U6,12*%
%TO.N,SC*%
X50420000Y-160050000D03*
%TO.P,U6,13*%
X52960000Y-160050000D03*
%TO.P,U6,14,VCC*%
%TO.N,5V*%
X55500000Y-160050000D03*
%TD*%
D13*
%TO.P,J9,1,Pin_1*%
%TO.N,RELE*%
X59740000Y-138287500D03*
D14*
%TO.P,J9,2,Pin_2*%
%TO.N,5V*%
X64740000Y-138287500D03*
%TD*%
D15*
%TO.P,U2,1*%
%TO.N,Net-(R3-Pad1)*%
X68500000Y-95500000D03*
D16*
%TO.P,U2,2,OUT*%
%TO.N,Net-(J3-Pin_1)*%
X71040000Y-95500000D03*
%TO.P,U2,3,IN*%
%TO.N,VAC*%
X73580000Y-95500000D03*
%TD*%
D17*
%TO.P,Q1,3,E*%
%TO.N,GND_C*%
X63760000Y-147010000D03*
%TO.P,Q1,2,B*%
%TO.N,Net-(Q1-B)*%
X61220000Y-147010000D03*
D18*
%TO.P,Q1,1,C*%
%TO.N,RELE*%
X58680000Y-147010000D03*
%TD*%
D12*
%TO.P,U7,14*%
%TO.N,N/C*%
X40400000Y-176570000D03*
%TO.P,U7,13*%
X42940000Y-176570000D03*
%TO.P,U7,12*%
X45480000Y-176570000D03*
%TO.P,U7,11*%
X48020000Y-176570000D03*
%TO.P,U7,10*%
X50560000Y-176570000D03*
%TO.P,U7,9*%
X53100000Y-176570000D03*
%TO.P,U7,8*%
X55640000Y-176570000D03*
%TO.P,U7,7*%
X55640000Y-184190000D03*
%TO.P,U7,6*%
%TO.N,Net-(U5-Pad13)*%
X53100000Y-184190000D03*
%TO.P,U7,5*%
%TO.N,Net-(U5-Pad10)*%
X50560000Y-184190000D03*
%TO.P,U7,4*%
X48020000Y-184190000D03*
%TO.P,U7,3*%
%TO.N,Net-(U5-Pad11)*%
X45480000Y-184190000D03*
%TO.P,U7,2*%
%TO.N,SW*%
X42940000Y-184190000D03*
D19*
%TO.P,U7,1*%
%TO.N,Net-(U5-Pad8)*%
X40400000Y-184190000D03*
%TD*%
D20*
%TO.P,RV2,3,3*%
%TO.N,Net-(R9-Pad1)*%
X117630000Y-153340000D03*
%TO.P,RV2,2,2*%
%TO.N,Net-(U4A--)*%
X117630000Y-158340000D03*
%TO.P,RV2,1,1*%
X117630000Y-163340000D03*
%TD*%
D14*
%TO.P,J6,2,Pin_2*%
%TO.N,15GIN*%
X106520000Y-139017500D03*
D13*
%TO.P,J6,1,Pin_1*%
%TO.N,3.3GIN*%
X101520000Y-139017500D03*
%TD*%
D21*
%TO.P,R1,2*%
%TO.N,GND_C*%
X70065000Y-150190000D03*
%TO.P,R1,1*%
%TO.N,Net-(R1-Pad1)*%
X72605000Y-150190000D03*
%TD*%
%TO.P,R4,2*%
%TO.N,Net-(R3-Pad1)*%
X68580000Y-103230000D03*
%TO.P,R4,1*%
%TO.N,Net-(J3-Pin_1)*%
X71120000Y-103230000D03*
%TD*%
D14*
%TO.P,J4,2,Pin_2*%
%TO.N,5V*%
X116980000Y-140320000D03*
D22*
%TO.P,J4,1,Pin_1*%
%TO.N,SW*%
X116980000Y-145320000D03*
%TD*%
D14*
%TO.P,J3,2,Pin_2*%
%TO.N,unconnected-(J3-Pin_2-Pad2)*%
X118967500Y-97750000D03*
D22*
%TO.P,J3,1,Pin_1*%
%TO.N,Net-(J3-Pin_1)*%
X118967500Y-102750000D03*
%TD*%
D21*
%TO.P,C9,2*%
%TO.N,GND*%
X93010000Y-113914888D03*
D23*
%TO.P,C9,1*%
%TO.N,Net-(J2-Pin_1)*%
X93010000Y-111414888D03*
%TD*%
D24*
%TO.P,C1,2*%
%TO.N,GND_C*%
X93620000Y-153542323D03*
D25*
%TO.P,C1,1*%
%TO.N,V_C*%
X93620000Y-150042323D03*
%TD*%
D21*
%TO.P,R11,2*%
%TO.N,GND_C*%
X108505000Y-149920000D03*
%TO.P,R11,1*%
%TO.N,15GIN*%
X105965000Y-149920000D03*
%TD*%
%TO.P,R13,2*%
%TO.N,GND_C*%
X105580000Y-174480000D03*
%TO.P,R13,1*%
%TO.N,Net-(R13-Pad1)*%
X108120000Y-174480000D03*
%TD*%
D14*
%TO.P,J2,2,Pin_2*%
%TO.N,unconnected-(J2-Pin_2-Pad2)*%
X118967500Y-85250000D03*
D22*
%TO.P,J2,1,Pin_1*%
%TO.N,Net-(J2-Pin_1)*%
X118967500Y-90250000D03*
%TD*%
D14*
%TO.P,J1,2,Pin_2*%
%TO.N,Net-(D1-2)*%
X50750000Y-86967500D03*
D13*
%TO.P,J1,1,Pin_1*%
%TO.N,Net-(D1-1)*%
X45750000Y-86967500D03*
%TD*%
D20*
%TO.P,RV3,3,3*%
%TO.N,Net-(R13-Pad1)*%
X117210000Y-174180000D03*
%TO.P,RV3,2,2*%
%TO.N,Net-(U4B--)*%
X117210000Y-179180000D03*
%TO.P,RV3,1,1*%
X117210000Y-184180000D03*
%TD*%
D26*
%TO.P,U4,8,V+*%
%TO.N,5V*%
X73860000Y-168390000D03*
%TO.P,U4,7*%
%TO.N,SC15*%
X73860000Y-165850000D03*
%TO.P,U4,6,-*%
%TO.N,Net-(U4B--)*%
X73860000Y-163310000D03*
%TO.P,U4,5,+*%
%TO.N,15GIN*%
X73860000Y-160770000D03*
%TO.P,U4,4,V-*%
%TO.N,GND_C*%
X81480000Y-160770000D03*
%TO.P,U4,3,+*%
%TO.N,3.3GIN*%
X81480000Y-163310000D03*
%TO.P,U4,2,-*%
%TO.N,Net-(U4A--)*%
X81480000Y-165850000D03*
D27*
%TO.P,U4,1*%
%TO.N,SC3.3*%
X81480000Y-168390000D03*
%TD*%
D21*
%TO.P,C6,2*%
%TO.N,GND*%
X71075000Y-109524888D03*
D23*
%TO.P,C6,1*%
%TO.N,Net-(J3-Pin_1)*%
X71075000Y-107024888D03*
%TD*%
D28*
%TO.P,C7,2*%
%TO.N,GND*%
X104010000Y-114564785D03*
D29*
%TO.P,C7,1*%
%TO.N,VAC*%
X104010000Y-109564785D03*
%TD*%
D30*
%TO.P,C5,2*%
%TO.N,GND*%
X81270000Y-105230000D03*
%TO.P,C5,1*%
%TO.N,VAC*%
X78770000Y-105230000D03*
%TD*%
D28*
%TO.P,D1,4,-*%
%TO.N,GND*%
X54230000Y-96692500D03*
%TO.P,D1,3,2*%
%TO.N,Net-(D1-2)*%
X50420000Y-96692500D03*
%TO.P,D1,2,1*%
%TO.N,Net-(D1-1)*%
X46610000Y-96692500D03*
D31*
%TO.P,D1,1,+*%
%TO.N,REG5*%
X42800000Y-96692500D03*
%TD*%
D21*
%TO.P,R9,2*%
%TO.N,GND_C*%
X105495000Y-161950000D03*
%TO.P,R9,1*%
%TO.N,Net-(R9-Pad1)*%
X108035000Y-161950000D03*
%TD*%
%TO.P,R3,2*%
%TO.N,Net-(R3-Pad2)*%
X63070000Y-106100000D03*
%TO.P,R3,1*%
%TO.N,Net-(R3-Pad1)*%
X65610000Y-106100000D03*
%TD*%
D16*
%TO.P,U1,3,IN*%
%TO.N,V_C*%
X86220000Y-146170000D03*
%TO.P,U1,2,OUT*%
%TO.N,5V*%
X83680000Y-146170000D03*
D15*
%TO.P,U1,1*%
%TO.N,Net-(R1-Pad1)*%
X81140000Y-146170000D03*
%TD*%
D20*
%TO.P,RV1,3,3*%
%TO.N,GND*%
X118500000Y-110975000D03*
%TO.P,RV1,2,2*%
X118500000Y-115975000D03*
%TO.P,RV1,1,1*%
%TO.N,Net-(R10-Pad2)*%
X118500000Y-120975000D03*
%TD*%
D21*
%TO.P,R14,2*%
%TO.N,Net-(Q1-B)*%
X61270000Y-151575000D03*
%TO.P,R14,1*%
%TO.N,BJT*%
X61270000Y-154115000D03*
%TD*%
D16*
%TO.P,U3,3,IN*%
%TO.N,VAC*%
X100040000Y-96445000D03*
%TO.P,U3,2,OUT*%
%TO.N,Net-(J2-Pin_1)*%
X97500000Y-96445000D03*
D15*
%TO.P,U3,1*%
%TO.N,Net-(R10-Pad2)*%
X94960000Y-96445000D03*
%TD*%
D24*
%TO.P,C4,2*%
%TO.N,GND*%
X82300000Y-115320000D03*
D32*
%TO.P,C4,1*%
%TO.N,VAC*%
X78800000Y-115320000D03*
%TD*%
D21*
%TO.P,C3,2*%
%TO.N,GND_C*%
X79860000Y-150710000D03*
D33*
%TO.P,C3,1*%
%TO.N,5V*%
X82360000Y-150710000D03*
%TD*%
D21*
%TO.P,R2,2*%
%TO.N,Net-(R1-Pad1)*%
X72790000Y-146140000D03*
%TO.P,R2,1*%
%TO.N,5V*%
X70250000Y-146140000D03*
%TD*%
D34*
%TO.P,K1,5*%
%TO.N,5V_C*%
X56450000Y-103450000D03*
D35*
%TO.P,K1,4*%
%TO.N,VAC*%
X56500000Y-115700000D03*
%TO.P,K1,3*%
%TO.N,unconnected-(K1-Pad3)*%
X44450000Y-115650000D03*
D34*
%TO.P,K1,2*%
%TO.N,RELE_C*%
X44450000Y-103450000D03*
D35*
%TO.P,K1,1*%
%TO.N,REG5*%
X50500000Y-101500000D03*
%TD*%
D28*
%TO.P,R7,2*%
%TO.N,GND_C*%
X95170000Y-161050000D03*
%TO.P,R7,1*%
%TO.N,3.3GIN*%
X100250000Y-161050000D03*
%TD*%
D21*
%TO.P,R15,2*%
%TO.N,SW*%
X45095000Y-187910000D03*
%TO.P,R15,1*%
%TO.N,GND_C*%
X47635000Y-187910000D03*
%TD*%
%TO.P,R6,2*%
%TO.N,Net-(R5-Pad2)*%
X64815000Y-114055000D03*
%TO.P,R6,1*%
%TO.N,GND*%
X64815000Y-116595000D03*
%TD*%
D14*
%TO.P,J7,2,Pin_2*%
%TO.N,V_C*%
X51230000Y-138320000D03*
D13*
%TO.P,J7,1,Pin_1*%
%TO.N,GND_C*%
X46230000Y-138320000D03*
%TD*%
D21*
%TO.P,R8,2*%
%TO.N,Net-(U4A--)*%
X66970000Y-163855000D03*
%TO.P,R8,1*%
%TO.N,5V*%
X66970000Y-161315000D03*
%TD*%
%TO.P,R16,2*%
%TO.N,GND_C*%
X108585000Y-146160000D03*
%TO.P,R16,1*%
%TO.N,15GIN*%
X106045000Y-146160000D03*
%TD*%
%TO.P,R12,2*%
%TO.N,Net-(U4B--)*%
X62250000Y-163685000D03*
%TO.P,R12,1*%
%TO.N,5V*%
X62250000Y-161145000D03*
%TD*%
D14*
%TO.P,J5,2,Pin_2*%
%TO.N,REG5*%
X51467500Y-125467500D03*
D13*
%TO.P,J5,1,Pin_1*%
%TO.N,GND*%
X46467500Y-125467500D03*
%TD*%
D30*
%TO.P,C2,2*%
%TO.N,GND_C*%
X48880000Y-144590000D03*
%TO.P,C2,1*%
%TO.N,V_C*%
X51380000Y-144590000D03*
%TD*%
%TO.P,C8,2*%
%TO.N,GND*%
X81270000Y-100840000D03*
%TO.P,C8,1*%
%TO.N,VAC*%
X78770000Y-100840000D03*
%TD*%
D14*
%TO.P,J8,2,Pin_2*%
%TO.N,5V_C*%
X64750000Y-124967500D03*
D13*
%TO.P,J8,1,Pin_1*%
%TO.N,RELE_C*%
X59750000Y-124967500D03*
%TD*%
D21*
%TO.P,R5,2*%
%TO.N,Net-(R5-Pad2)*%
X65665000Y-110060000D03*
%TO.P,R5,1*%
%TO.N,Net-(R3-Pad2)*%
X63125000Y-110060000D03*
%TD*%
%TO.P,R10,2*%
%TO.N,Net-(R10-Pad2)*%
X96455000Y-103710000D03*
%TO.P,R10,1*%
%TO.N,Net-(J2-Pin_1)*%
X98995000Y-103710000D03*
%TD*%
D36*
%TO.P,U8,16,VDD*%
%TO.N,5V*%
X62860000Y-177850000D03*
%TO.P,U8,15,R4*%
%TO.N,unconnected-(U8-R4-Pad15)*%
X65400000Y-177850000D03*
%TO.P,U8,14,S4*%
%TO.N,unconnected-(U8-S4-Pad14)*%
X67940000Y-177850000D03*
%TO.P,U8,13*%
%TO.N,N/C*%
X70480000Y-177850000D03*
%TO.P,U8,12,S3*%
%TO.N,unconnected-(U8-S3-Pad12)*%
X73020000Y-177850000D03*
%TO.P,U8,11,R3*%
%TO.N,unconnected-(U8-R3-Pad11)*%
X75560000Y-177850000D03*
%TO.P,U8,10,Q3*%
%TO.N,unconnected-(U8-Q3-Pad10)*%
X78100000Y-177850000D03*
%TO.P,U8,9,Q2*%
%TO.N,unconnected-(U8-Q2-Pad9)*%
X80640000Y-177850000D03*
%TO.P,U8,8,VSS*%
%TO.N,GND_C*%
X80640000Y-185470000D03*
%TO.P,U8,7,R2*%
%TO.N,unconnected-(U8-R2-Pad7)*%
X78100000Y-185470000D03*
%TO.P,U8,6,S2*%
%TO.N,unconnected-(U8-S2-Pad6)*%
X75560000Y-185470000D03*
%TO.P,U8,5,EN*%
%TO.N,5V*%
X73020000Y-185470000D03*
%TO.P,U8,4,S1*%
%TO.N,SC*%
X70480000Y-185470000D03*
%TO.P,U8,3,R1*%
%TO.N,RST*%
X67940000Y-185470000D03*
%TO.P,U8,2,Q1*%
%TO.N,BJT*%
X65400000Y-185470000D03*
D37*
%TO.P,U8,1,Q4*%
%TO.N,unconnected-(U8-Q4-Pad1)*%
X62860000Y-185470000D03*
%TD*%
D12*
%TO.P,U5,14,VCC*%
%TO.N,5V*%
X55360000Y-172240000D03*
%TO.P,U5,13*%
%TO.N,Net-(U5-Pad13)*%
X52820000Y-172240000D03*
%TO.P,U5,12*%
%TO.N,RST*%
X50280000Y-172240000D03*
%TO.P,U5,11*%
%TO.N,Net-(U5-Pad11)*%
X47740000Y-172240000D03*
%TO.P,U5,10*%
%TO.N,Net-(U5-Pad10)*%
X45200000Y-172240000D03*
%TO.P,U5,9*%
%TO.N,Net-(U5-Pad9)*%
X42660000Y-172240000D03*
%TO.P,U5,8*%
%TO.N,Net-(U5-Pad8)*%
X40120000Y-172240000D03*
%TO.P,U5,7,GND*%
%TO.N,GND_C*%
X40120000Y-164620000D03*
%TO.P,U5,6*%
%TO.N,Net-(U5-Pad6)*%
X42660000Y-164620000D03*
%TO.P,U5,5*%
%TO.N,Net-(U5-Pad5)*%
X45200000Y-164620000D03*
%TO.P,U5,4*%
%TO.N,SC*%
X47740000Y-164620000D03*
%TO.P,U5,3*%
%TO.N,Net-(U5-Pad3)*%
X50280000Y-164620000D03*
%TO.P,U5,2*%
%TO.N,Net-(U5-Pad2)*%
X52820000Y-164620000D03*
D11*
%TO.P,U5,1*%
%TO.N,Net-(U5-Pad1)*%
X55360000Y-164620000D03*
%TD*%
D38*
%TO.N,Net-(J3-Pin_1)*%
X119876239Y-126610000D02*
X124290000Y-122196239D01*
X124290000Y-122196239D02*
X124290000Y-108072500D01*
X74620000Y-123990000D02*
X77240000Y-126610000D01*
X77240000Y-126610000D02*
X119876239Y-126610000D01*
X74620000Y-109769888D02*
X74620000Y-123990000D01*
X71875000Y-107024888D02*
X74620000Y-109769888D01*
X71075000Y-107024888D02*
X71875000Y-107024888D01*
X124290000Y-108072500D02*
X118967500Y-102750000D01*
%TO.N,Net-(J2-Pin_1)*%
X97500000Y-97017684D02*
X97500000Y-96445000D01*
X98995000Y-98512684D02*
X97500000Y-97017684D01*
X98995000Y-103710000D02*
X98995000Y-98512684D01*
X97400000Y-111414888D02*
X97400000Y-111405000D01*
X97400000Y-111405000D02*
X98995000Y-109810000D01*
X98995000Y-109810000D02*
X98995000Y-103710000D01*
X98700000Y-112950000D02*
X98700000Y-112100000D01*
X97400000Y-111414888D02*
X93010000Y-111414888D01*
X97400000Y-111414888D02*
X97400000Y-111650000D01*
X97400000Y-111650000D02*
X98700000Y-112950000D01*
X98995000Y-111805000D02*
X98995000Y-110644000D01*
X98700000Y-115010000D02*
X98700000Y-112950000D01*
X98700000Y-112100000D02*
X98995000Y-111805000D01*
X100760000Y-117070000D02*
X98700000Y-115010000D01*
X106390000Y-117070000D02*
X100760000Y-117070000D01*
X109590000Y-113870000D02*
X106390000Y-117070000D01*
X118967500Y-90250000D02*
X113775000Y-90250000D01*
X113775000Y-90250000D02*
X109590000Y-94435000D01*
X109590000Y-94435000D02*
X109590000Y-113870000D01*
%TO.N,Net-(R10-Pad2)*%
X88615000Y-120975000D02*
X118500000Y-120975000D01*
X87180000Y-119540000D02*
X88615000Y-120975000D01*
X87100000Y-112750000D02*
X87180000Y-112830000D01*
X87100000Y-101300000D02*
X87100000Y-112750000D01*
X87180000Y-112830000D02*
X87180000Y-119540000D01*
X91955000Y-96445000D02*
X87100000Y-101300000D01*
X94960000Y-96445000D02*
X91955000Y-96445000D01*
%TO.N,Net-(J2-Pin_1)*%
X98995000Y-110644000D02*
X98995000Y-109810000D01*
X98224112Y-111414888D02*
X98995000Y-110644000D01*
X98014888Y-111414888D02*
X98224112Y-111414888D01*
X98014888Y-111414888D02*
X97400000Y-111414888D01*
%TO.N,VAC*%
X104010000Y-100415000D02*
X104010000Y-109564785D01*
X100040000Y-96445000D02*
X104010000Y-100415000D01*
%TO.N,Net-(R10-Pad2)*%
X94960000Y-102215000D02*
X94960000Y-96445000D01*
X96455000Y-103710000D02*
X94960000Y-102215000D01*
D39*
%TO.N,Net-(U4A--)*%
X74996800Y-162839122D02*
X74330878Y-162173200D01*
X68651800Y-162173200D02*
X66970000Y-163855000D01*
X74996800Y-163926800D02*
X74996800Y-162839122D01*
X74330878Y-162173200D02*
X68651800Y-162173200D01*
X80596800Y-169526800D02*
X74996800Y-163926800D01*
X82616800Y-169526800D02*
X80596800Y-169526800D01*
X81480000Y-165850000D02*
X82616800Y-166986800D01*
X82616800Y-166986800D02*
X82616800Y-169526800D01*
%TO.N,SC3.3*%
X71650000Y-156680000D02*
X68440000Y-156680000D01*
X77870000Y-159430000D02*
X75120000Y-156680000D01*
X77960000Y-159430000D02*
X77870000Y-159430000D01*
X77960000Y-164870000D02*
X77960000Y-159430000D01*
X75120000Y-156680000D02*
X71650000Y-156680000D01*
X81480000Y-168390000D02*
X77960000Y-164870000D01*
%TO.N,Net-(U4B--)*%
X63671000Y-165106000D02*
X62250000Y-163685000D01*
X72064000Y-165106000D02*
X63671000Y-165106000D01*
X73860000Y-163310000D02*
X72064000Y-165106000D01*
D38*
%TO.N,Net-(J3-Pin_1)*%
X71075000Y-103275000D02*
X71120000Y-103230000D01*
X71075000Y-107024888D02*
X71075000Y-103275000D01*
%TO.N,VAC*%
X77300000Y-95500000D02*
X77300000Y-95770000D01*
X78770000Y-97240000D02*
X78770000Y-100840000D01*
X77300000Y-95770000D02*
X78770000Y-97240000D01*
X77300000Y-95490000D02*
X78750000Y-94040000D01*
X77300000Y-95500000D02*
X77300000Y-95490000D01*
X78750000Y-94040000D02*
X78750000Y-87925000D01*
X77300000Y-95500000D02*
X78420000Y-95500000D01*
X78420000Y-95500000D02*
X78750000Y-95830000D01*
X73580000Y-95500000D02*
X77300000Y-95500000D01*
%TO.N,Net-(R3-Pad1)*%
X68500000Y-103150000D02*
X68580000Y-103230000D01*
X68500000Y-95500000D02*
X68500000Y-103150000D01*
%TO.N,Net-(J3-Pin_1)*%
X71120000Y-95580000D02*
X71040000Y-95500000D01*
X71120000Y-103230000D02*
X71120000Y-95580000D01*
%TO.N,VAC*%
X78770000Y-115290000D02*
X78800000Y-115320000D01*
X78770000Y-105230000D02*
X78770000Y-115290000D01*
X78770000Y-100840000D02*
X78770000Y-105230000D01*
X78770000Y-95850000D02*
X78770000Y-97240000D01*
X78750000Y-95830000D02*
X78770000Y-95850000D01*
X78750000Y-95000000D02*
X78750000Y-95830000D01*
%TO.N,Net-(R3-Pad1)*%
X65710000Y-106100000D02*
X68580000Y-103230000D01*
X65610000Y-106100000D02*
X65710000Y-106100000D01*
%TO.N,Net-(R3-Pad2)*%
X63125000Y-110060000D02*
X63125000Y-106155000D01*
X63125000Y-106155000D02*
X63070000Y-106100000D01*
%TO.N,Net-(R5-Pad2)*%
X65665000Y-113205000D02*
X65665000Y-110060000D01*
X64815000Y-114055000D02*
X65665000Y-113205000D01*
D39*
%TO.N,SC*%
X52960000Y-157668636D02*
X52960000Y-160050000D01*
X51709000Y-156417636D02*
X52960000Y-157668636D01*
X51709000Y-151511819D02*
X51709000Y-156417636D01*
X52441819Y-150779000D02*
X51709000Y-151511819D01*
X56347292Y-150779000D02*
X52441819Y-150779000D01*
X56751000Y-151182708D02*
X56347292Y-150779000D01*
X56751000Y-151365182D02*
X56751000Y-151182708D01*
X61364818Y-155979000D02*
X56751000Y-151365182D01*
X72722600Y-155979000D02*
X61364818Y-155979000D01*
%TO.N,Net-(U5-Pad1)*%
X55360000Y-163420000D02*
X55360000Y-164620000D01*
X51709000Y-161187636D02*
X52250364Y-161729000D01*
X52250364Y-161729000D02*
X53669000Y-161729000D01*
X50390000Y-152460000D02*
X50390000Y-156090000D01*
X50390000Y-156090000D02*
X51709000Y-157409000D01*
X51709000Y-157409000D02*
X51709000Y-161187636D01*
X53669000Y-161729000D02*
X55360000Y-163420000D01*
X50420000Y-152430000D02*
X50390000Y-152460000D01*
%TO.N,SC3.3*%
X59750000Y-156680000D02*
X71150000Y-156680000D01*
X55500000Y-152430000D02*
X59750000Y-156680000D01*
%TO.N,Net-(Q1-B)*%
X61270000Y-147060000D02*
X61220000Y-147010000D01*
X61270000Y-151575000D02*
X61270000Y-147060000D01*
%TO.N,BJT*%
X61270000Y-154115000D02*
X73145000Y-154115000D01*
X82969364Y-187622000D02*
X88052000Y-182539364D01*
X67552000Y-187622000D02*
X82969364Y-187622000D01*
X65400000Y-185470000D02*
X67552000Y-187622000D01*
%TO.N,SC*%
X71931000Y-186921000D02*
X70480000Y-185470000D01*
X87351000Y-182249000D02*
X82679000Y-186921000D01*
X82679000Y-186921000D02*
X71931000Y-186921000D01*
X54071000Y-165910000D02*
X54432000Y-166271000D01*
X54432000Y-166271000D02*
X54090000Y-166271000D01*
X54071000Y-165910000D02*
X54051000Y-165910000D01*
X53690000Y-166271000D02*
X53338181Y-166271000D01*
X54071000Y-165910000D02*
X54071000Y-166252000D01*
X54051000Y-165910000D02*
X53690000Y-166271000D01*
X54071000Y-166252000D02*
X54090000Y-166271000D01*
X52910000Y-162430000D02*
X54071000Y-163591000D01*
X51960000Y-162430000D02*
X52910000Y-162430000D01*
X54071000Y-163591000D02*
X54071000Y-165910000D01*
X50420000Y-160890000D02*
X51960000Y-162430000D01*
X50420000Y-160050000D02*
X50420000Y-160890000D01*
X54090000Y-166271000D02*
X53690000Y-166271000D01*
D38*
%TO.N,5V*%
X57615000Y-160050000D02*
X58710000Y-161145000D01*
X55500000Y-160050000D02*
X57615000Y-160050000D01*
D39*
%TO.N,SC*%
X56207292Y-166271000D02*
X54432000Y-166271000D01*
X56611000Y-163372708D02*
X56611000Y-165867292D01*
X56611000Y-165867292D02*
X56207292Y-166271000D01*
X53288292Y-160050000D02*
X56611000Y-163372708D01*
X52960000Y-160050000D02*
X53288292Y-160050000D01*
X49391000Y-166271000D02*
X47740000Y-164620000D01*
X53338181Y-166271000D02*
X49391000Y-166271000D01*
%TO.N,SW*%
X86389000Y-189161000D02*
X112620000Y-162930000D01*
X112620000Y-162930000D02*
X112620000Y-149680000D01*
X46346000Y-189161000D02*
X86389000Y-189161000D01*
X112620000Y-149680000D02*
X116980000Y-145320000D01*
X45095000Y-187910000D02*
X46346000Y-189161000D01*
X42940000Y-185755000D02*
X42940000Y-184190000D01*
X45095000Y-187910000D02*
X42940000Y-185755000D01*
%TO.N,Net-(U5-Pad13)*%
X51449000Y-185841000D02*
X53100000Y-184190000D01*
X44961819Y-185841000D02*
X51449000Y-185841000D01*
X44229000Y-185108181D02*
X44961819Y-185841000D01*
X44229000Y-175689819D02*
X44229000Y-185108181D01*
X43949000Y-175409819D02*
X44229000Y-175689819D01*
X43949000Y-171321819D02*
X43949000Y-175409819D01*
X45382819Y-169888000D02*
X43949000Y-171321819D01*
X50468000Y-169888000D02*
X45382819Y-169888000D01*
X52820000Y-172240000D02*
X50468000Y-169888000D01*
%TO.N,RST*%
X67024014Y-185470000D02*
X67940000Y-185470000D01*
X56473014Y-174919000D02*
X67024014Y-185470000D01*
X52959000Y-174919000D02*
X56473014Y-174919000D01*
X50280000Y-172240000D02*
X52959000Y-174919000D01*
D38*
%TO.N,5V*%
X58710000Y-170480000D02*
X57970000Y-171220000D01*
X58710000Y-161145000D02*
X58710000Y-170480000D01*
X66800000Y-161145000D02*
X66970000Y-161315000D01*
X62250000Y-161145000D02*
X66800000Y-161145000D01*
X62250000Y-161145000D02*
X58710000Y-161145000D01*
D39*
%TO.N,Net-(U5-Pad10)*%
X50560000Y-184190000D02*
X48020000Y-184190000D01*
X49271000Y-182939000D02*
X48020000Y-184190000D01*
X49029000Y-171359819D02*
X49029000Y-175409819D01*
X46851000Y-170589000D02*
X48258181Y-170589000D01*
X48258181Y-170589000D02*
X49029000Y-171359819D01*
X49271000Y-175651819D02*
X49271000Y-182939000D01*
X45200000Y-172240000D02*
X46851000Y-170589000D01*
X49029000Y-175409819D02*
X49271000Y-175651819D01*
%TO.N,Net-(U5-Pad11)*%
X46730000Y-173250000D02*
X47740000Y-172240000D01*
X46730000Y-182940000D02*
X46730000Y-173250000D01*
X45480000Y-184190000D02*
X46730000Y-182940000D01*
%TO.N,Net-(U5-Pad8)*%
X38020000Y-181810000D02*
X40400000Y-184190000D01*
X38020000Y-174340000D02*
X38020000Y-181810000D01*
X40120000Y-172240000D02*
X38020000Y-174340000D01*
%TO.N,Net-(U5-Pad9)*%
X37607000Y-152913819D02*
X37607000Y-167187000D01*
X39741819Y-150779000D02*
X37607000Y-152913819D01*
X43318181Y-150779000D02*
X39741819Y-150779000D01*
X44051000Y-151511819D02*
X43318181Y-150779000D01*
X44051000Y-156221000D02*
X44051000Y-151511819D01*
X37607000Y-167187000D02*
X42660000Y-172240000D01*
X47880000Y-160050000D02*
X44051000Y-156221000D01*
%TO.N,Net-(U5-Pad5)*%
X39601819Y-166271000D02*
X43549000Y-166271000D01*
X43549000Y-166271000D02*
X45200000Y-164620000D01*
X38308000Y-164977181D02*
X39601819Y-166271000D01*
X38308000Y-156922000D02*
X38308000Y-164977181D01*
X42800000Y-152430000D02*
X38308000Y-156922000D01*
%TO.N,Net-(U5-Pad6)*%
X39009000Y-159131819D02*
X39009000Y-160969000D01*
X39009000Y-160969000D02*
X42660000Y-164620000D01*
X43689000Y-158399000D02*
X39741819Y-158399000D01*
X39741819Y-158399000D02*
X39009000Y-159131819D01*
X45340000Y-160050000D02*
X43689000Y-158399000D01*
%TO.N,Net-(U5-Pad2)*%
X49901000Y-161701000D02*
X52820000Y-164620000D01*
X44451000Y-161701000D02*
X49901000Y-161701000D01*
X42800000Y-160050000D02*
X44451000Y-161701000D01*
%TO.N,Net-(U5-Pad3)*%
X48629000Y-162969000D02*
X50280000Y-164620000D01*
X43179000Y-162969000D02*
X48629000Y-162969000D01*
X40260000Y-160050000D02*
X43179000Y-162969000D01*
%TO.N,SC3.3*%
X52960000Y-152430000D02*
X55500000Y-152430000D01*
%TO.N,SC15*%
X45340000Y-152430000D02*
X47880000Y-152430000D01*
D38*
%TO.N,5V*%
X73020000Y-181310000D02*
X74360000Y-179970000D01*
X74360000Y-179970000D02*
X83400000Y-179970000D01*
X71440000Y-179970000D02*
X71680000Y-179970000D01*
X71680000Y-179970000D02*
X73020000Y-181310000D01*
X73020000Y-185470000D02*
X73020000Y-181310000D01*
X71440000Y-179970000D02*
X73120000Y-179970000D01*
X73020000Y-181310000D02*
X73020000Y-180070000D01*
X73120000Y-179970000D02*
X74360000Y-179970000D01*
X73020000Y-180070000D02*
X73120000Y-179970000D01*
X85900000Y-174440000D02*
X83670000Y-172210000D01*
X85900000Y-177470000D02*
X85900000Y-174440000D01*
X83400000Y-179970000D02*
X85900000Y-177470000D01*
X64064014Y-179970000D02*
X71440000Y-179970000D01*
X62860000Y-178765986D02*
X64064014Y-179970000D01*
X62860000Y-177850000D02*
X62860000Y-178765986D01*
X56950000Y-172240000D02*
X57970000Y-171220000D01*
X57970000Y-171220000D02*
X57970000Y-172090000D01*
X56950000Y-172240000D02*
X57820000Y-172240000D01*
X57820000Y-172240000D02*
X57970000Y-172090000D01*
X55360000Y-172240000D02*
X56950000Y-172240000D01*
X57970000Y-172090000D02*
X57970000Y-172960000D01*
X57970000Y-172960000D02*
X62860000Y-177850000D01*
X85170000Y-142300000D02*
X115000000Y-142300000D01*
X83680000Y-143790000D02*
X83680000Y-146170000D01*
X85170000Y-142300000D02*
X83680000Y-143790000D01*
X116980000Y-140320000D02*
X115000000Y-142300000D01*
X83680000Y-149390000D02*
X83680000Y-146170000D01*
X82360000Y-150710000D02*
X83680000Y-149390000D01*
%TO.N,V_C*%
X51230000Y-144440000D02*
X51380000Y-144590000D01*
X51230000Y-138320000D02*
X51230000Y-144440000D01*
%TO.N,RELE*%
X58680000Y-139347500D02*
X58680000Y-147010000D01*
X59740000Y-138287500D02*
X58680000Y-139347500D01*
%TO.N,5V*%
X68127500Y-138287500D02*
X70250000Y-140410000D01*
X64740000Y-138287500D02*
X68127500Y-138287500D01*
X70250000Y-140410000D02*
X70250000Y-146140000D01*
%TO.N,RELE_C*%
X56067500Y-124967500D02*
X59750000Y-124967500D01*
X48000000Y-116900000D02*
X56067500Y-124967500D01*
X48000000Y-107000000D02*
X48000000Y-116900000D01*
X44450000Y-103450000D02*
X48000000Y-107000000D01*
%TO.N,5V_C*%
X56250000Y-120000000D02*
X59782500Y-120000000D01*
X51500000Y-115250000D02*
X56250000Y-120000000D01*
X59782500Y-120000000D02*
X64750000Y-124967500D01*
X51500000Y-108400000D02*
X51500000Y-115250000D01*
X56450000Y-103450000D02*
X51500000Y-108400000D01*
%TO.N,REG5*%
X40350000Y-103150000D02*
X42800000Y-100700000D01*
X40350000Y-117250000D02*
X40350000Y-103150000D01*
X47175000Y-121200000D02*
X44300000Y-121200000D01*
X48500000Y-122525000D02*
X47175000Y-121200000D01*
X44300000Y-121200000D02*
X40350000Y-117250000D01*
X48525000Y-122525000D02*
X48500000Y-122525000D01*
X51467500Y-125467500D02*
X48525000Y-122525000D01*
%TO.N,VAC*%
X59075000Y-113125000D02*
X56500000Y-115700000D01*
X59075000Y-92525000D02*
X59075000Y-113125000D01*
X77575000Y-86800000D02*
X64800000Y-86800000D01*
X64800000Y-86800000D02*
X59075000Y-92525000D01*
%TO.N,REG5*%
X42800000Y-99225000D02*
X44275000Y-100700000D01*
X42800000Y-99050000D02*
X42800000Y-96692500D01*
X42800000Y-100700000D02*
X44275000Y-100700000D01*
X42800000Y-99050000D02*
X42800000Y-99225000D01*
X44275000Y-100700000D02*
X49700000Y-100700000D01*
X49700000Y-100700000D02*
X50500000Y-101500000D01*
X42800000Y-100700000D02*
X42800000Y-99050000D01*
%TO.N,Net-(R3-Pad1)*%
X68505000Y-95505000D02*
X68500000Y-95500000D01*
%TO.N,Net-(D1-1)*%
X46610000Y-96692500D02*
X46600000Y-96682500D01*
%TO.N,Net-(D1-2)*%
X50775000Y-86992500D02*
X50750000Y-86967500D01*
%TO.N,Net-(D1-1)*%
X46600000Y-87817500D02*
X45750000Y-86967500D01*
%TO.N,VAC*%
X78725000Y-94975000D02*
X78750000Y-95000000D01*
%TO.N,Net-(D1-2)*%
X50420000Y-96692500D02*
X50775000Y-96337500D01*
%TO.N,Net-(D1-1)*%
X46600000Y-96682500D02*
X46600000Y-87817500D01*
%TO.N,Net-(D1-2)*%
X50775000Y-96337500D02*
X50775000Y-86992500D01*
%TO.N,VAC*%
X78750000Y-95000000D02*
X78750000Y-94040000D01*
X100040000Y-96445000D02*
X100040000Y-92365000D01*
X94475000Y-86800000D02*
X79825000Y-86800000D01*
X100040000Y-92365000D02*
X94475000Y-86800000D01*
X78750000Y-86975000D02*
X78925000Y-86800000D01*
X78925000Y-86800000D02*
X77575000Y-86800000D01*
X78750000Y-87925000D02*
X78750000Y-86975000D01*
X77575000Y-86800000D02*
X77625000Y-86800000D01*
X78750000Y-87925000D02*
X78750000Y-87875000D01*
X78750000Y-87875000D02*
X79825000Y-86800000D01*
X77625000Y-86800000D02*
X78750000Y-87925000D01*
X79825000Y-86800000D02*
X78925000Y-86800000D01*
%TD*%
%TA.AperFunction,Conductor*%
%TO.N,GND*%
G36*
X125653663Y-82280138D02*
G01*
X125699418Y-82332942D01*
X125709362Y-82402100D01*
X125680337Y-82465656D01*
X125621559Y-82503430D01*
X125606022Y-82506926D01*
X125407868Y-82538310D01*
X125163574Y-82617687D01*
X124934712Y-82734299D01*
X124816152Y-82820438D01*
X124726907Y-82885279D01*
X124726905Y-82885281D01*
X124726904Y-82885281D01*
X124545281Y-83066904D01*
X124545281Y-83066905D01*
X124545279Y-83066907D01*
X124531413Y-83085992D01*
X124394299Y-83274712D01*
X124277687Y-83503574D01*
X124198310Y-83747868D01*
X124158129Y-84001563D01*
X124158129Y-84258436D01*
X124198310Y-84512131D01*
X124277687Y-84756425D01*
X124353560Y-84905332D01*
X124394299Y-84985287D01*
X124545279Y-85193093D01*
X124726907Y-85374721D01*
X124934713Y-85525701D01*
X125042843Y-85580796D01*
X125163574Y-85642312D01*
X125163576Y-85642312D01*
X125163579Y-85642314D01*
X125294524Y-85684860D01*
X125407868Y-85721689D01*
X125661564Y-85761871D01*
X125661569Y-85761871D01*
X125918436Y-85761871D01*
X126172131Y-85721689D01*
X126202818Y-85711718D01*
X126416421Y-85642314D01*
X126645287Y-85525701D01*
X126853093Y-85374721D01*
X127034721Y-85193093D01*
X127185701Y-84985287D01*
X127226440Y-84905331D01*
X127274415Y-84854536D01*
X127342236Y-84837741D01*
X127408370Y-84860278D01*
X127451822Y-84914993D01*
X127460925Y-84961627D01*
X127460925Y-128001621D01*
X127441240Y-128068660D01*
X127388436Y-128114415D01*
X127319278Y-128124359D01*
X127255722Y-128095334D01*
X127217948Y-128036556D01*
X127214452Y-128021020D01*
X127211379Y-128001621D01*
X127210929Y-127998778D01*
X127152515Y-127818997D01*
X127066696Y-127650567D01*
X126955585Y-127497636D01*
X126821918Y-127363969D01*
X126668987Y-127252858D01*
X126500557Y-127167039D01*
X126500554Y-127167037D01*
X126320777Y-127108625D01*
X126134076Y-127079054D01*
X126134071Y-127079054D01*
X125945037Y-127079054D01*
X125945032Y-127079054D01*
X125758330Y-127108625D01*
X125578553Y-127167037D01*
X125578550Y-127167039D01*
X125410120Y-127252858D01*
X125342681Y-127301856D01*
X125257190Y-127363969D01*
X125257188Y-127363971D01*
X125257187Y-127363971D01*
X125123525Y-127497633D01*
X125123525Y-127497634D01*
X125123523Y-127497636D01*
X125096609Y-127534680D01*
X125012412Y-127650566D01*
X124926593Y-127818996D01*
X124926591Y-127818999D01*
X124868179Y-127998776D01*
X124838608Y-128185477D01*
X124838608Y-128374522D01*
X124868179Y-128561223D01*
X124926591Y-128741000D01*
X124926593Y-128741003D01*
X125012412Y-128909433D01*
X125123523Y-129062364D01*
X125123524Y-129062365D01*
X125123671Y-129062567D01*
X125147151Y-129128374D01*
X125131326Y-129196428D01*
X125081220Y-129245123D01*
X125023353Y-129259453D01*
X38085223Y-129259453D01*
X38018184Y-129239768D01*
X37972429Y-129186964D01*
X37962485Y-129117806D01*
X37984905Y-129062567D01*
X38027142Y-129004433D01*
X38112961Y-128836003D01*
X38171375Y-128656222D01*
X38189944Y-128538980D01*
X38200946Y-128469522D01*
X38200946Y-128280477D01*
X38183276Y-128168916D01*
X38171375Y-128093778D01*
X38112961Y-127913997D01*
X38027142Y-127745567D01*
X37916031Y-127592636D01*
X37782364Y-127458969D01*
X37629433Y-127347858D01*
X37461003Y-127262039D01*
X37461000Y-127262037D01*
X37281223Y-127203625D01*
X37094522Y-127174054D01*
X37094517Y-127174054D01*
X36905483Y-127174054D01*
X36905478Y-127174054D01*
X36718776Y-127203625D01*
X36538999Y-127262037D01*
X36538996Y-127262039D01*
X36370563Y-127347860D01*
X36338810Y-127370930D01*
X36273004Y-127394410D01*
X36204950Y-127378584D01*
X36156255Y-127328479D01*
X36141925Y-127270612D01*
X36141925Y-103031902D01*
X38849500Y-103031902D01*
X38849500Y-117368097D01*
X38886446Y-117601368D01*
X38959433Y-117825996D01*
X39003347Y-117912181D01*
X39066657Y-118036434D01*
X39205483Y-118227510D01*
X43322490Y-122344518D01*
X43451919Y-122438553D01*
X43513567Y-122483343D01*
X43612991Y-122534002D01*
X43724003Y-122590566D01*
X43724005Y-122590566D01*
X43724008Y-122590568D01*
X43805102Y-122616917D01*
X43948631Y-122663553D01*
X44181903Y-122700500D01*
X44181908Y-122700500D01*
X44181909Y-122700500D01*
X44418092Y-122700500D01*
X46502111Y-122700500D01*
X46569150Y-122720185D01*
X46589792Y-122736819D01*
X47208792Y-123355819D01*
X47242277Y-123417142D01*
X47237293Y-123486834D01*
X47195421Y-123542767D01*
X47129957Y-123567184D01*
X47121111Y-123567500D01*
X46717500Y-123567500D01*
X46717500Y-124867498D01*
X46657098Y-124842479D01*
X46531519Y-124817500D01*
X46403481Y-124817500D01*
X46277902Y-124842479D01*
X46217500Y-124867498D01*
X46217500Y-123567500D01*
X45267514Y-123567500D01*
X45164810Y-123577993D01*
X45164803Y-123577994D01*
X44998381Y-123633141D01*
X44998376Y-123633143D01*
X44849155Y-123725184D01*
X44725184Y-123849155D01*
X44633143Y-123998376D01*
X44633141Y-123998381D01*
X44577994Y-124164803D01*
X44577993Y-124164810D01*
X44567500Y-124267514D01*
X44567500Y-125217500D01*
X45867499Y-125217500D01*
X45842479Y-125277902D01*
X45817500Y-125403481D01*
X45817500Y-125531519D01*
X45842479Y-125657098D01*
X45867499Y-125717500D01*
X44567500Y-125717500D01*
X44567500Y-126667485D01*
X44577993Y-126770189D01*
X44577994Y-126770196D01*
X44633141Y-126936618D01*
X44633143Y-126936623D01*
X44725184Y-127085844D01*
X44849155Y-127209815D01*
X44998376Y-127301856D01*
X44998381Y-127301858D01*
X45164803Y-127357005D01*
X45164810Y-127357006D01*
X45267514Y-127367499D01*
X45267527Y-127367500D01*
X46217500Y-127367500D01*
X46217500Y-126067501D01*
X46277902Y-126092521D01*
X46403481Y-126117500D01*
X46531519Y-126117500D01*
X46657098Y-126092521D01*
X46717500Y-126067501D01*
X46717500Y-127367500D01*
X47667473Y-127367500D01*
X47667485Y-127367499D01*
X47770189Y-127357006D01*
X47770196Y-127357005D01*
X47936618Y-127301858D01*
X47936623Y-127301856D01*
X48085844Y-127209815D01*
X48209815Y-127085844D01*
X48301856Y-126936623D01*
X48301858Y-126936618D01*
X48357005Y-126770196D01*
X48357006Y-126770189D01*
X48367499Y-126667485D01*
X48367500Y-126667472D01*
X48367500Y-125717500D01*
X47067501Y-125717500D01*
X47092521Y-125657098D01*
X47117500Y-125531519D01*
X47117500Y-125403481D01*
X47092521Y-125277902D01*
X47067501Y-125217500D01*
X48367500Y-125217500D01*
X48367500Y-124788889D01*
X48387185Y-124721850D01*
X48439989Y-124676095D01*
X48509147Y-124666151D01*
X48572703Y-124695176D01*
X48579181Y-124701208D01*
X49551936Y-125673963D01*
X49585421Y-125735286D01*
X49587194Y-125745458D01*
X49599517Y-125839061D01*
X49663998Y-126079707D01*
X49759330Y-126309861D01*
X49759337Y-126309876D01*
X49883900Y-126525626D01*
X50035560Y-126723274D01*
X50035566Y-126723281D01*
X50211718Y-126899433D01*
X50211725Y-126899439D01*
X50409373Y-127051099D01*
X50625123Y-127175662D01*
X50625138Y-127175669D01*
X50707575Y-127209815D01*
X50855293Y-127271002D01*
X51095935Y-127335482D01*
X51342935Y-127368000D01*
X51342942Y-127368000D01*
X51592058Y-127368000D01*
X51592065Y-127368000D01*
X51839065Y-127335482D01*
X52079707Y-127271002D01*
X52309873Y-127175664D01*
X52525627Y-127051099D01*
X52723276Y-126899438D01*
X52899438Y-126723276D01*
X53051099Y-126525627D01*
X53175664Y-126309873D01*
X53271002Y-126079707D01*
X53335482Y-125839065D01*
X53368000Y-125592065D01*
X53368000Y-125342935D01*
X53335482Y-125095935D01*
X53271002Y-124855293D01*
X53175664Y-124625127D01*
X53062713Y-124429489D01*
X53046240Y-124361589D01*
X53069093Y-124295562D01*
X53124014Y-124252371D01*
X53193567Y-124245730D01*
X53255670Y-124277746D01*
X53257781Y-124279808D01*
X55089990Y-126112017D01*
X55281067Y-126250843D01*
X55319244Y-126270295D01*
X55491503Y-126358066D01*
X55491505Y-126358066D01*
X55491508Y-126358068D01*
X55611912Y-126397189D01*
X55716131Y-126431053D01*
X55949403Y-126468000D01*
X55949408Y-126468000D01*
X56185592Y-126468000D01*
X57865203Y-126468000D01*
X57932242Y-126487685D01*
X57970741Y-126526903D01*
X58007286Y-126586151D01*
X58007289Y-126586155D01*
X58131344Y-126710210D01*
X58131348Y-126710213D01*
X58280662Y-126802312D01*
X58280664Y-126802313D01*
X58280666Y-126802314D01*
X58447203Y-126857499D01*
X58549992Y-126868000D01*
X58549997Y-126868000D01*
X60950003Y-126868000D01*
X60950008Y-126868000D01*
X61052797Y-126857499D01*
X61219334Y-126802314D01*
X61368655Y-126710211D01*
X61492711Y-126586155D01*
X61584814Y-126436834D01*
X61639999Y-126270297D01*
X61650500Y-126167508D01*
X61650500Y-124289389D01*
X61670185Y-124222350D01*
X61722989Y-124176595D01*
X61792147Y-124166651D01*
X61855703Y-124195676D01*
X61862181Y-124201708D01*
X62834436Y-125173963D01*
X62867921Y-125235286D01*
X62869694Y-125245458D01*
X62882017Y-125339061D01*
X62946498Y-125579707D01*
X63041830Y-125809861D01*
X63041837Y-125809876D01*
X63166400Y-126025626D01*
X63318060Y-126223274D01*
X63318066Y-126223281D01*
X63494218Y-126399433D01*
X63494225Y-126399439D01*
X63691873Y-126551099D01*
X63907623Y-126675662D01*
X63907638Y-126675669D01*
X64006825Y-126716753D01*
X64137793Y-126771002D01*
X64378435Y-126835482D01*
X64625435Y-126868000D01*
X64625442Y-126868000D01*
X64874558Y-126868000D01*
X64874565Y-126868000D01*
X65121565Y-126835482D01*
X65362207Y-126771002D01*
X65592373Y-126675664D01*
X65808127Y-126551099D01*
X66005776Y-126399438D01*
X66181938Y-126223276D01*
X66333599Y-126025627D01*
X66458164Y-125809873D01*
X66553502Y-125579707D01*
X66617982Y-125339065D01*
X66650500Y-125092065D01*
X66650500Y-124842935D01*
X66617982Y-124595935D01*
X66553502Y-124355293D01*
X66489885Y-124201708D01*
X66458169Y-124125138D01*
X66458162Y-124125123D01*
X66333599Y-123909373D01*
X66181939Y-123711725D01*
X66181933Y-123711718D01*
X66005781Y-123535566D01*
X66005774Y-123535560D01*
X65808126Y-123383900D01*
X65592376Y-123259337D01*
X65592361Y-123259330D01*
X65362207Y-123163998D01*
X65121561Y-123099517D01*
X65027958Y-123087194D01*
X64964062Y-123058927D01*
X64956463Y-123051936D01*
X60760011Y-118855484D01*
X60568934Y-118716657D01*
X60358496Y-118609433D01*
X60133868Y-118536446D01*
X59900597Y-118499500D01*
X59900592Y-118499500D01*
X56922889Y-118499500D01*
X56855850Y-118479815D01*
X56835208Y-118463181D01*
X56284208Y-117912181D01*
X56250723Y-117850858D01*
X56255707Y-117781166D01*
X56297579Y-117725233D01*
X56363043Y-117700816D01*
X56371889Y-117700500D01*
X56631113Y-117700500D01*
X56631120Y-117700500D01*
X56891116Y-117666270D01*
X57144419Y-117598398D01*
X57237687Y-117559765D01*
X57351424Y-117512654D01*
X57386690Y-117498046D01*
X57386691Y-117498045D01*
X57386697Y-117498043D01*
X57613803Y-117366924D01*
X57821851Y-117207282D01*
X57821855Y-117207277D01*
X57821860Y-117207274D01*
X58007274Y-117021860D01*
X58007277Y-117021855D01*
X58007282Y-117021851D01*
X58166924Y-116813803D01*
X58298043Y-116586697D01*
X58317943Y-116538655D01*
X58358657Y-116440363D01*
X58398394Y-116344428D01*
X58398398Y-116344419D01*
X58466270Y-116091116D01*
X58496460Y-115861801D01*
X58524727Y-115797907D01*
X58531706Y-115790320D01*
X60219517Y-114102510D01*
X60358343Y-113911434D01*
X60465568Y-113700992D01*
X60538553Y-113476368D01*
X60562829Y-113323097D01*
X60575500Y-113243097D01*
X60575500Y-93197889D01*
X60595185Y-93130850D01*
X60611819Y-93110208D01*
X65385209Y-88336819D01*
X65446532Y-88303334D01*
X65472890Y-88300500D01*
X76952111Y-88300500D01*
X76981551Y-88309144D01*
X77011538Y-88315668D01*
X77016553Y-88319422D01*
X77019150Y-88320185D01*
X77039791Y-88336818D01*
X77213181Y-88510208D01*
X77246666Y-88571531D01*
X77249500Y-88597889D01*
X77249500Y-93367110D01*
X77229815Y-93434149D01*
X77213181Y-93454791D01*
X76704792Y-93963181D01*
X76643469Y-93996666D01*
X76617111Y-93999500D01*
X73461903Y-93999500D01*
X73228631Y-94036446D01*
X73004003Y-94109433D01*
X72793566Y-94216657D01*
X72737116Y-94257671D01*
X72602490Y-94355483D01*
X72602488Y-94355485D01*
X72602487Y-94355485D01*
X72435485Y-94522487D01*
X72435478Y-94522496D01*
X72415211Y-94550391D01*
X72359881Y-94593057D01*
X72290268Y-94599035D01*
X72228473Y-94566429D01*
X72227213Y-94565186D01*
X72017511Y-94355484D01*
X71964416Y-94316908D01*
X71826434Y-94216657D01*
X71615996Y-94109433D01*
X71391368Y-94036446D01*
X71158097Y-93999500D01*
X71158092Y-93999500D01*
X70921908Y-93999500D01*
X70921903Y-93999500D01*
X70688631Y-94036446D01*
X70464003Y-94109433D01*
X70253565Y-94216657D01*
X70092468Y-94333702D01*
X70026661Y-94357182D01*
X69958607Y-94341357D01*
X69909912Y-94291251D01*
X69903399Y-94276714D01*
X69896296Y-94257669D01*
X69896294Y-94257666D01*
X69896293Y-94257664D01*
X69810047Y-94142455D01*
X69810044Y-94142452D01*
X69694835Y-94056206D01*
X69694828Y-94056202D01*
X69559982Y-94005908D01*
X69559983Y-94005908D01*
X69500383Y-93999501D01*
X69500381Y-93999500D01*
X69500373Y-93999500D01*
X68618094Y-93999500D01*
X68618092Y-93999500D01*
X68381908Y-93999500D01*
X68381904Y-93999500D01*
X67499629Y-93999500D01*
X67499623Y-93999501D01*
X67440016Y-94005908D01*
X67305171Y-94056202D01*
X67305164Y-94056206D01*
X67189955Y-94142452D01*
X67189952Y-94142455D01*
X67103706Y-94257664D01*
X67103702Y-94257671D01*
X67053408Y-94392517D01*
X67047001Y-94452116D01*
X67047000Y-94452135D01*
X67047000Y-95096513D01*
X67040931Y-95134832D01*
X67036446Y-95148632D01*
X66999500Y-95381902D01*
X66999500Y-102637110D01*
X66979815Y-102704149D01*
X66963181Y-102724791D01*
X64934805Y-104753166D01*
X64903419Y-104775970D01*
X64823566Y-104816657D01*
X64771460Y-104854515D01*
X64632490Y-104955483D01*
X64632488Y-104955485D01*
X64632487Y-104955485D01*
X64465485Y-105122487D01*
X64465480Y-105122493D01*
X64445210Y-105150392D01*
X64389879Y-105193056D01*
X64320266Y-105199034D01*
X64258472Y-105166426D01*
X64257213Y-105165185D01*
X64047513Y-104955486D01*
X64047511Y-104955484D01*
X64043438Y-104952525D01*
X63856434Y-104816657D01*
X63809076Y-104792527D01*
X63645996Y-104709433D01*
X63421368Y-104636446D01*
X63188097Y-104599500D01*
X63188092Y-104599500D01*
X62951908Y-104599500D01*
X62951903Y-104599500D01*
X62718631Y-104636446D01*
X62494003Y-104709433D01*
X62283565Y-104816657D01*
X62092488Y-104955484D01*
X61925484Y-105122488D01*
X61786657Y-105313565D01*
X61679433Y-105524003D01*
X61606446Y-105748631D01*
X61569500Y-105981902D01*
X61569500Y-106218097D01*
X61606446Y-106451364D01*
X61606446Y-106451365D01*
X61618431Y-106488250D01*
X61624500Y-106526568D01*
X61624500Y-110178097D01*
X61661446Y-110411368D01*
X61734433Y-110635996D01*
X61810560Y-110785402D01*
X61841657Y-110846433D01*
X61980483Y-111037510D01*
X62147490Y-111204517D01*
X62338567Y-111343343D01*
X62428863Y-111389351D01*
X62549003Y-111450566D01*
X62549005Y-111450566D01*
X62549008Y-111450568D01*
X62669412Y-111489689D01*
X62773631Y-111523553D01*
X63006903Y-111560500D01*
X63006908Y-111560500D01*
X63243097Y-111560500D01*
X63476368Y-111523553D01*
X63508982Y-111512956D01*
X63700992Y-111450568D01*
X63911433Y-111343343D01*
X63967614Y-111302524D01*
X64033420Y-111279044D01*
X64101474Y-111294869D01*
X64150169Y-111344974D01*
X64164500Y-111402842D01*
X64164500Y-112532110D01*
X64144815Y-112599149D01*
X64128181Y-112619791D01*
X63670484Y-113077488D01*
X63531657Y-113268565D01*
X63424433Y-113479003D01*
X63351446Y-113703631D01*
X63314500Y-113936902D01*
X63314500Y-114173097D01*
X63351446Y-114406368D01*
X63424433Y-114630996D01*
X63517327Y-114813309D01*
X63531657Y-114841434D01*
X63670483Y-115032510D01*
X63837490Y-115199517D01*
X64028566Y-115338343D01*
X64028572Y-115338347D01*
X64032718Y-115340888D01*
X64031947Y-115342145D01*
X64077965Y-115385592D01*
X64094772Y-115453410D01*
X64093040Y-115458493D01*
X64093563Y-115458535D01*
X64089077Y-115515524D01*
X64768554Y-116195000D01*
X64762339Y-116195000D01*
X64660606Y-116222259D01*
X64569394Y-116274920D01*
X64494920Y-116349394D01*
X64442259Y-116440606D01*
X64415000Y-116542339D01*
X64415000Y-116548553D01*
X63735524Y-115869077D01*
X63735523Y-115869077D01*
X63703143Y-115913644D01*
X63610244Y-116095968D01*
X63547009Y-116290582D01*
X63515000Y-116492682D01*
X63515000Y-116697317D01*
X63547009Y-116899417D01*
X63610244Y-117094031D01*
X63703141Y-117276350D01*
X63703147Y-117276359D01*
X63735523Y-117320921D01*
X63735524Y-117320922D01*
X64415000Y-116641446D01*
X64415000Y-116647661D01*
X64442259Y-116749394D01*
X64494920Y-116840606D01*
X64569394Y-116915080D01*
X64660606Y-116967741D01*
X64762339Y-116995000D01*
X64768553Y-116995000D01*
X64089076Y-117674474D01*
X64133650Y-117706859D01*
X64315968Y-117799755D01*
X64510582Y-117862990D01*
X64712683Y-117895000D01*
X64917317Y-117895000D01*
X65119417Y-117862990D01*
X65314031Y-117799755D01*
X65496349Y-117706859D01*
X65540921Y-117674474D01*
X64861447Y-116995000D01*
X64867661Y-116995000D01*
X64969394Y-116967741D01*
X65060606Y-116915080D01*
X65135080Y-116840606D01*
X65187741Y-116749394D01*
X65215000Y-116647661D01*
X65215000Y-116641447D01*
X65894474Y-117320921D01*
X65926859Y-117276349D01*
X66019755Y-117094031D01*
X66082990Y-116899417D01*
X66115000Y-116697317D01*
X66115000Y-116492682D01*
X66082990Y-116290582D01*
X66019755Y-116095968D01*
X65926859Y-115913650D01*
X65894474Y-115869077D01*
X65894474Y-115869076D01*
X65215000Y-116548551D01*
X65215000Y-116542339D01*
X65187741Y-116440606D01*
X65135080Y-116349394D01*
X65060606Y-116274920D01*
X64969394Y-116222259D01*
X64867661Y-116195000D01*
X64861446Y-116195000D01*
X65540922Y-115515524D01*
X65536437Y-115458535D01*
X65540564Y-115458210D01*
X65537576Y-115423531D01*
X65570164Y-115361727D01*
X65597635Y-115341464D01*
X65597282Y-115340888D01*
X65601427Y-115338347D01*
X65601428Y-115338345D01*
X65601434Y-115338343D01*
X65792510Y-115199517D01*
X66809518Y-114182510D01*
X66948343Y-113991433D01*
X67055568Y-113780992D01*
X67128553Y-113556368D01*
X67140496Y-113480965D01*
X67150808Y-113415856D01*
X67165500Y-113323097D01*
X67165500Y-109941902D01*
X67128553Y-109708631D01*
X67102096Y-109627205D01*
X67055568Y-109484008D01*
X66948343Y-109273567D01*
X66809517Y-109082490D01*
X66642510Y-108915483D01*
X66451433Y-108776657D01*
X66448228Y-108775024D01*
X66240996Y-108669433D01*
X66016368Y-108596446D01*
X65783097Y-108559500D01*
X65783092Y-108559500D01*
X65546908Y-108559500D01*
X65546903Y-108559500D01*
X65313631Y-108596446D01*
X65089003Y-108669433D01*
X64878563Y-108776659D01*
X64822385Y-108817475D01*
X64756579Y-108840955D01*
X64688525Y-108825130D01*
X64639830Y-108775024D01*
X64625500Y-108717157D01*
X64625500Y-107482802D01*
X64645185Y-107415763D01*
X64697989Y-107370008D01*
X64767147Y-107360064D01*
X64819174Y-107381183D01*
X64819411Y-107380797D01*
X64821745Y-107382227D01*
X64822394Y-107382490D01*
X64823567Y-107383343D01*
X64823569Y-107383344D01*
X65034003Y-107490566D01*
X65034005Y-107490566D01*
X65034008Y-107490568D01*
X65154412Y-107529689D01*
X65258631Y-107563553D01*
X65491903Y-107600500D01*
X65491908Y-107600500D01*
X65828097Y-107600500D01*
X66061368Y-107563553D01*
X66285992Y-107490568D01*
X66496434Y-107383343D01*
X66687510Y-107244517D01*
X69362819Y-104569208D01*
X69424142Y-104535723D01*
X69493834Y-104540707D01*
X69549767Y-104582579D01*
X69574184Y-104648043D01*
X69574500Y-104656889D01*
X69574500Y-107142985D01*
X69611446Y-107376256D01*
X69650519Y-107496508D01*
X69684432Y-107600880D01*
X69791657Y-107811321D01*
X69819047Y-107849020D01*
X69836433Y-107882898D01*
X69840184Y-107894219D01*
X69932289Y-108043545D01*
X70056344Y-108167600D01*
X70205668Y-108259703D01*
X70205672Y-108259704D01*
X70216984Y-108263453D01*
X70217834Y-108263883D01*
X70218327Y-108263906D01*
X70234058Y-108272093D01*
X70249727Y-108280022D01*
X70250316Y-108280440D01*
X70288567Y-108308231D01*
X70291851Y-108309904D01*
X70298758Y-108314804D01*
X70317919Y-108339080D01*
X70338675Y-108362019D01*
X70339502Y-108366424D01*
X70342047Y-108369648D01*
X70344131Y-108391066D01*
X70350631Y-108425670D01*
X70349077Y-108445412D01*
X71028554Y-109124888D01*
X71022339Y-109124888D01*
X70920606Y-109152147D01*
X70829394Y-109204808D01*
X70754920Y-109279282D01*
X70702259Y-109370494D01*
X70675000Y-109472227D01*
X70675000Y-109478441D01*
X69995524Y-108798965D01*
X69995523Y-108798965D01*
X69963143Y-108843532D01*
X69870244Y-109025856D01*
X69807009Y-109220470D01*
X69775000Y-109422570D01*
X69775000Y-109627205D01*
X69807009Y-109829305D01*
X69870244Y-110023919D01*
X69963141Y-110206238D01*
X69963147Y-110206247D01*
X69995523Y-110250809D01*
X69995524Y-110250810D01*
X70675000Y-109571334D01*
X70675000Y-109577549D01*
X70702259Y-109679282D01*
X70754920Y-109770494D01*
X70829394Y-109844968D01*
X70920606Y-109897629D01*
X71022339Y-109924888D01*
X71028553Y-109924888D01*
X70349076Y-110604362D01*
X70393650Y-110636747D01*
X70575968Y-110729643D01*
X70770582Y-110792878D01*
X70972683Y-110824888D01*
X71177317Y-110824888D01*
X71379417Y-110792878D01*
X71574031Y-110729643D01*
X71756349Y-110636747D01*
X71800921Y-110604362D01*
X71121447Y-109924888D01*
X71127661Y-109924888D01*
X71229394Y-109897629D01*
X71320606Y-109844968D01*
X71395080Y-109770494D01*
X71447741Y-109679282D01*
X71475000Y-109577549D01*
X71475000Y-109571334D01*
X72154474Y-110250809D01*
X72186859Y-110206237D01*
X72279755Y-110023917D01*
X72333039Y-109859929D01*
X72372476Y-109802253D01*
X72436835Y-109775055D01*
X72505681Y-109786970D01*
X72538651Y-109810566D01*
X73083181Y-110355096D01*
X73116666Y-110416419D01*
X73119500Y-110442777D01*
X73119500Y-124108097D01*
X73156446Y-124341368D01*
X73229433Y-124565996D01*
X73308845Y-124721850D01*
X73336657Y-124776434D01*
X73471924Y-124962612D01*
X73475484Y-124967511D01*
X73475485Y-124967512D01*
X76262491Y-127754519D01*
X76262496Y-127754523D01*
X76429155Y-127875606D01*
X76453567Y-127893343D01*
X76587659Y-127961666D01*
X76664003Y-128000566D01*
X76664005Y-128000566D01*
X76664008Y-128000568D01*
X76726953Y-128021020D01*
X76888631Y-128073553D01*
X77121903Y-128110500D01*
X77121908Y-128110500D01*
X119994336Y-128110500D01*
X120227607Y-128073553D01*
X120242666Y-128068660D01*
X120452231Y-128000568D01*
X120662673Y-127893343D01*
X120853749Y-127754517D01*
X125434518Y-123173749D01*
X125573343Y-122982672D01*
X125680568Y-122772231D01*
X125753553Y-122547607D01*
X125763479Y-122484939D01*
X125790500Y-122314336D01*
X125790500Y-107954402D01*
X125753553Y-107721131D01*
X125680566Y-107496503D01*
X125622908Y-107383344D01*
X125573343Y-107286067D01*
X125538077Y-107237527D01*
X125434523Y-107094996D01*
X125434519Y-107094991D01*
X120904319Y-102564791D01*
X120870834Y-102503468D01*
X120868000Y-102477110D01*
X120868000Y-101549997D01*
X120867999Y-101549984D01*
X120857499Y-101447204D01*
X120857499Y-101447203D01*
X120802314Y-101280666D01*
X120748582Y-101193554D01*
X120710213Y-101131348D01*
X120710210Y-101131344D01*
X120586155Y-101007289D01*
X120586151Y-101007286D01*
X120436837Y-100915187D01*
X120436835Y-100915186D01*
X120348992Y-100886078D01*
X120270297Y-100860001D01*
X120270295Y-100860000D01*
X120167515Y-100849500D01*
X120167508Y-100849500D01*
X117767492Y-100849500D01*
X117767484Y-100849500D01*
X117664704Y-100860000D01*
X117664703Y-100860001D01*
X117498164Y-100915186D01*
X117498162Y-100915187D01*
X117348848Y-101007286D01*
X117348844Y-101007289D01*
X117224789Y-101131344D01*
X117224786Y-101131348D01*
X117132687Y-101280662D01*
X117132686Y-101280664D01*
X117077501Y-101447203D01*
X117077500Y-101447204D01*
X117067000Y-101549984D01*
X117067000Y-103950015D01*
X117077500Y-104052795D01*
X117077501Y-104052796D01*
X117132686Y-104219335D01*
X117132687Y-104219337D01*
X117224786Y-104368651D01*
X117224789Y-104368655D01*
X117348844Y-104492710D01*
X117348848Y-104492713D01*
X117498162Y-104584812D01*
X117498164Y-104584813D01*
X117498166Y-104584814D01*
X117664703Y-104639999D01*
X117767492Y-104650500D01*
X118694611Y-104650500D01*
X118761650Y-104670185D01*
X118782292Y-104686819D01*
X122753181Y-108657708D01*
X122786666Y-108719031D01*
X122789500Y-108745389D01*
X122789500Y-121523349D01*
X122769815Y-121590388D01*
X122753181Y-121611030D01*
X119291031Y-125073181D01*
X119229708Y-125106666D01*
X119203350Y-125109500D01*
X77912890Y-125109500D01*
X77845851Y-125089815D01*
X77825209Y-125073181D01*
X76156819Y-123404791D01*
X76123334Y-123343468D01*
X76120500Y-123317110D01*
X76120500Y-109651790D01*
X76083553Y-109418519D01*
X76067948Y-109370494D01*
X76010568Y-109193896D01*
X75993042Y-109159500D01*
X75993041Y-109159498D01*
X75903344Y-108983455D01*
X75801683Y-108843532D01*
X75764517Y-108792378D01*
X72852510Y-105880371D01*
X72756972Y-105810958D01*
X72661433Y-105741544D01*
X72643201Y-105732254D01*
X72592407Y-105684278D01*
X72575500Y-105621771D01*
X72575500Y-103625791D01*
X72581569Y-103587473D01*
X72583553Y-103581368D01*
X72601783Y-103466269D01*
X72620500Y-103348097D01*
X72620500Y-96897510D01*
X72640185Y-96830471D01*
X72692989Y-96784716D01*
X72762147Y-96774772D01*
X72800790Y-96787023D01*
X72886061Y-96830471D01*
X73004003Y-96890566D01*
X73004005Y-96890566D01*
X73004008Y-96890568D01*
X73074561Y-96913492D01*
X73228631Y-96963553D01*
X73461903Y-97000500D01*
X73461908Y-97000500D01*
X73465646Y-97000500D01*
X73694354Y-97000500D01*
X76357111Y-97000500D01*
X76424150Y-97020185D01*
X76444792Y-97036819D01*
X77233181Y-97825208D01*
X77266666Y-97886531D01*
X77269500Y-97912889D01*
X77269500Y-115408096D01*
X77291640Y-115547884D01*
X77297676Y-115585996D01*
X77297973Y-115587868D01*
X77299500Y-115607266D01*
X77299500Y-116120001D01*
X77299501Y-116120019D01*
X77310000Y-116222796D01*
X77310001Y-116222799D01*
X77351951Y-116349394D01*
X77365186Y-116389334D01*
X77457288Y-116538656D01*
X77581344Y-116662712D01*
X77730666Y-116754814D01*
X77897203Y-116809999D01*
X77999991Y-116820500D01*
X79600008Y-116820499D01*
X79702797Y-116809999D01*
X79869334Y-116754814D01*
X80018656Y-116662712D01*
X80142712Y-116538656D01*
X80234814Y-116389334D01*
X80289999Y-116222797D01*
X80300500Y-116120009D01*
X80300499Y-115201947D01*
X80800000Y-115201947D01*
X80800000Y-115438052D01*
X80836934Y-115671247D01*
X80909897Y-115895802D01*
X81017087Y-116106174D01*
X81077338Y-116189104D01*
X81077340Y-116189105D01*
X81817037Y-115449408D01*
X81834075Y-115512993D01*
X81899901Y-115627007D01*
X81992993Y-115720099D01*
X82107007Y-115785925D01*
X82170590Y-115802962D01*
X81430893Y-116542658D01*
X81513828Y-116602914D01*
X81724197Y-116710102D01*
X81948752Y-116783065D01*
X81948751Y-116783065D01*
X82181948Y-116820000D01*
X82418052Y-116820000D01*
X82651247Y-116783065D01*
X82875802Y-116710102D01*
X83086163Y-116602918D01*
X83086169Y-116602914D01*
X83169104Y-116542658D01*
X83169105Y-116542658D01*
X82429408Y-115802962D01*
X82492993Y-115785925D01*
X82607007Y-115720099D01*
X82700099Y-115627007D01*
X82765925Y-115512993D01*
X82782962Y-115449409D01*
X83522658Y-116189105D01*
X83522658Y-116189104D01*
X83582914Y-116106169D01*
X83582918Y-116106163D01*
X83690102Y-115895802D01*
X83763065Y-115671247D01*
X83800000Y-115438052D01*
X83800000Y-115201947D01*
X83763065Y-114968752D01*
X83690102Y-114744197D01*
X83582914Y-114533828D01*
X83522658Y-114450894D01*
X83522658Y-114450893D01*
X82782962Y-115190590D01*
X82765925Y-115127007D01*
X82700099Y-115012993D01*
X82607007Y-114919901D01*
X82492993Y-114854075D01*
X82429409Y-114837037D01*
X83169105Y-114097340D01*
X83169104Y-114097338D01*
X83086174Y-114037087D01*
X82875802Y-113929897D01*
X82651247Y-113856934D01*
X82651248Y-113856934D01*
X82418052Y-113820000D01*
X82181948Y-113820000D01*
X81948752Y-113856934D01*
X81724197Y-113929897D01*
X81513830Y-114037084D01*
X81430894Y-114097340D01*
X82170591Y-114837037D01*
X82107007Y-114854075D01*
X81992993Y-114919901D01*
X81899901Y-115012993D01*
X81834075Y-115127007D01*
X81817037Y-115190591D01*
X81077340Y-114450894D01*
X81017084Y-114533830D01*
X80909897Y-114744197D01*
X80836934Y-114968752D01*
X80800000Y-115201947D01*
X80300499Y-115201947D01*
X80300499Y-114519992D01*
X80293692Y-114453360D01*
X80289999Y-114417203D01*
X80289998Y-114417200D01*
X80276794Y-114377352D01*
X80276343Y-114374559D01*
X80275523Y-114373283D01*
X80270500Y-114338348D01*
X80270500Y-106237882D01*
X80615669Y-106237882D01*
X80615670Y-106237883D01*
X80641059Y-106256329D01*
X80809362Y-106342085D01*
X80988997Y-106400451D01*
X81175553Y-106430000D01*
X81364447Y-106430000D01*
X81551002Y-106400451D01*
X81730637Y-106342085D01*
X81898937Y-106256331D01*
X81924328Y-106237883D01*
X81924328Y-106237882D01*
X81270001Y-105583554D01*
X81270000Y-105583554D01*
X80615669Y-106237882D01*
X80270500Y-106237882D01*
X80270500Y-105927308D01*
X80290185Y-105860269D01*
X80306819Y-105839627D01*
X80916446Y-105230000D01*
X80870368Y-105183922D01*
X80920000Y-105183922D01*
X80920000Y-105276078D01*
X80943852Y-105365095D01*
X80989930Y-105444905D01*
X81055095Y-105510070D01*
X81134905Y-105556148D01*
X81223922Y-105580000D01*
X81316078Y-105580000D01*
X81405095Y-105556148D01*
X81484905Y-105510070D01*
X81550070Y-105444905D01*
X81596148Y-105365095D01*
X81620000Y-105276078D01*
X81620000Y-105229999D01*
X81623554Y-105229999D01*
X81623554Y-105230000D01*
X82277882Y-105884328D01*
X82277883Y-105884328D01*
X82296331Y-105858937D01*
X82382085Y-105690637D01*
X82440451Y-105511002D01*
X82470000Y-105324447D01*
X82470000Y-105135552D01*
X82440451Y-104948997D01*
X82382085Y-104769362D01*
X82296329Y-104601059D01*
X82277883Y-104575670D01*
X82277882Y-104575669D01*
X81623554Y-105229999D01*
X81620000Y-105229999D01*
X81620000Y-105183922D01*
X81596148Y-105094905D01*
X81550070Y-105015095D01*
X81484905Y-104949930D01*
X81405095Y-104903852D01*
X81316078Y-104880000D01*
X81223922Y-104880000D01*
X81134905Y-104903852D01*
X81055095Y-104949930D01*
X80989930Y-105015095D01*
X80943852Y-105094905D01*
X80920000Y-105183922D01*
X80870368Y-105183922D01*
X80306819Y-104620373D01*
X80273334Y-104559050D01*
X80270500Y-104532692D01*
X80270500Y-104222116D01*
X80615669Y-104222116D01*
X81270000Y-104876446D01*
X81270001Y-104876446D01*
X81924328Y-104222116D01*
X81898933Y-104203666D01*
X81730637Y-104117914D01*
X81551002Y-104059548D01*
X81364447Y-104030000D01*
X81175553Y-104030000D01*
X80988997Y-104059548D01*
X80809362Y-104117914D01*
X80641060Y-104203669D01*
X80615670Y-104222116D01*
X80615669Y-104222116D01*
X80270500Y-104222116D01*
X80270500Y-101847882D01*
X80615669Y-101847882D01*
X80615670Y-101847883D01*
X80641059Y-101866329D01*
X80809362Y-101952085D01*
X80988997Y-102010451D01*
X81175553Y-102040000D01*
X81364447Y-102040000D01*
X81551002Y-102010451D01*
X81730637Y-101952085D01*
X81898937Y-101866331D01*
X81924328Y-101847883D01*
X81924328Y-101847882D01*
X81270001Y-101193554D01*
X81270000Y-101193554D01*
X80615669Y-101847882D01*
X80270500Y-101847882D01*
X80270500Y-101537308D01*
X80290185Y-101470269D01*
X80306819Y-101449627D01*
X80916446Y-100840000D01*
X80870368Y-100793922D01*
X80920000Y-100793922D01*
X80920000Y-100886078D01*
X80943852Y-100975095D01*
X80989930Y-101054905D01*
X81055095Y-101120070D01*
X81134905Y-101166148D01*
X81223922Y-101190000D01*
X81316078Y-101190000D01*
X81405095Y-101166148D01*
X81484905Y-101120070D01*
X81550070Y-101054905D01*
X81596148Y-100975095D01*
X81620000Y-100886078D01*
X81620000Y-100839999D01*
X81623554Y-100839999D01*
X81623554Y-100840000D01*
X82277882Y-101494328D01*
X82277883Y-101494328D01*
X82296331Y-101468937D01*
X82382085Y-101300637D01*
X82440451Y-101121002D01*
X82470000Y-100934447D01*
X82470000Y-100745552D01*
X82440451Y-100558997D01*
X82382085Y-100379362D01*
X82296329Y-100211059D01*
X82277883Y-100185670D01*
X82277882Y-100185669D01*
X81623554Y-100839999D01*
X81620000Y-100839999D01*
X81620000Y-100793922D01*
X81596148Y-100704905D01*
X81550070Y-100625095D01*
X81484905Y-100559930D01*
X81405095Y-100513852D01*
X81316078Y-100490000D01*
X81223922Y-100490000D01*
X81134905Y-100513852D01*
X81055095Y-100559930D01*
X80989930Y-100625095D01*
X80943852Y-100704905D01*
X80920000Y-100793922D01*
X80870368Y-100793922D01*
X80306819Y-100230373D01*
X80273334Y-100169050D01*
X80270500Y-100142692D01*
X80270500Y-99832116D01*
X80615669Y-99832116D01*
X81270000Y-100486446D01*
X81270001Y-100486446D01*
X81924328Y-99832116D01*
X81898933Y-99813666D01*
X81730637Y-99727914D01*
X81551002Y-99669548D01*
X81364447Y-99640000D01*
X81175553Y-99640000D01*
X80988997Y-99669548D01*
X80809362Y-99727914D01*
X80641060Y-99813669D01*
X80615670Y-99832116D01*
X80615669Y-99832116D01*
X80270500Y-99832116D01*
X80270500Y-95731902D01*
X80252027Y-95615271D01*
X80250500Y-95595873D01*
X80250500Y-88547889D01*
X80259144Y-88518448D01*
X80265668Y-88488462D01*
X80269422Y-88483446D01*
X80270185Y-88480850D01*
X80286814Y-88460213D01*
X80410210Y-88336817D01*
X80471532Y-88303334D01*
X80497890Y-88300500D01*
X93802111Y-88300500D01*
X93869150Y-88320185D01*
X93889792Y-88336819D01*
X98503181Y-92950208D01*
X98536666Y-93011531D01*
X98539500Y-93037889D01*
X98539500Y-95102157D01*
X98519815Y-95169196D01*
X98467011Y-95214951D01*
X98397853Y-95224895D01*
X98342615Y-95202475D01*
X98286436Y-95161659D01*
X98286435Y-95161658D01*
X98286433Y-95161657D01*
X98220715Y-95128172D01*
X98075996Y-95054433D01*
X97851368Y-94981446D01*
X97618097Y-94944500D01*
X97618092Y-94944500D01*
X97381908Y-94944500D01*
X97381903Y-94944500D01*
X97148631Y-94981446D01*
X96924003Y-95054433D01*
X96713566Y-95161657D01*
X96552469Y-95278702D01*
X96486662Y-95302182D01*
X96418608Y-95286357D01*
X96369913Y-95236251D01*
X96363401Y-95221718D01*
X96356296Y-95202669D01*
X96356293Y-95202664D01*
X96270047Y-95087455D01*
X96270044Y-95087452D01*
X96154835Y-95001206D01*
X96154828Y-95001202D01*
X96019982Y-94950908D01*
X96019983Y-94950908D01*
X95960383Y-94944501D01*
X95960381Y-94944500D01*
X95960373Y-94944500D01*
X95078094Y-94944500D01*
X95078092Y-94944500D01*
X92073092Y-94944500D01*
X91836908Y-94944500D01*
X91836903Y-94944500D01*
X91603631Y-94981446D01*
X91379003Y-95054433D01*
X91168566Y-95161657D01*
X91065897Y-95236251D01*
X90977490Y-95300483D01*
X90977488Y-95300485D01*
X90977487Y-95300485D01*
X85955484Y-100322488D01*
X85816657Y-100513565D01*
X85776735Y-100591918D01*
X85709433Y-100724003D01*
X85636446Y-100948631D01*
X85599500Y-101181902D01*
X85599500Y-112868097D01*
X85636446Y-113101368D01*
X85660726Y-113176091D01*
X85673431Y-113215194D01*
X85679500Y-113253510D01*
X85679500Y-119658097D01*
X85716446Y-119891368D01*
X85789433Y-120115996D01*
X85896657Y-120326434D01*
X86035483Y-120517510D01*
X87637490Y-122119517D01*
X87828566Y-122258343D01*
X87931781Y-122310933D01*
X88039006Y-122365568D01*
X88039012Y-122365570D01*
X88111991Y-122389282D01*
X88111992Y-122389282D01*
X88187812Y-122413917D01*
X88263631Y-122438553D01*
X88496903Y-122475500D01*
X88496908Y-122475500D01*
X117732638Y-122475500D01*
X117780089Y-122484938D01*
X117961883Y-122560241D01*
X118173402Y-122616917D01*
X118390510Y-122645500D01*
X118390517Y-122645500D01*
X118609483Y-122645500D01*
X118609490Y-122645500D01*
X118826598Y-122616917D01*
X119038117Y-122560241D01*
X119240428Y-122476440D01*
X119430071Y-122366950D01*
X119603800Y-122233643D01*
X119758643Y-122078800D01*
X119891950Y-121905071D01*
X120001440Y-121715428D01*
X120085241Y-121513117D01*
X120141917Y-121301598D01*
X120170500Y-121084490D01*
X120170500Y-120865510D01*
X120141917Y-120648402D01*
X120085241Y-120436883D01*
X120001440Y-120234572D01*
X119932980Y-120115996D01*
X119891950Y-120044929D01*
X119758644Y-119871201D01*
X119758638Y-119871194D01*
X119603805Y-119716361D01*
X119603798Y-119716355D01*
X119430070Y-119583049D01*
X119240438Y-119473565D01*
X119240433Y-119473562D01*
X119240428Y-119473560D01*
X119038117Y-119389759D01*
X119038118Y-119389759D01*
X119038115Y-119389758D01*
X118932357Y-119361421D01*
X118826598Y-119333083D01*
X118790314Y-119328306D01*
X118609497Y-119304500D01*
X118609490Y-119304500D01*
X118390510Y-119304500D01*
X118390502Y-119304500D01*
X118183853Y-119331707D01*
X118173402Y-119333083D01*
X118128699Y-119345060D01*
X117961884Y-119389758D01*
X117884269Y-119421908D01*
X117780089Y-119465061D01*
X117732638Y-119474500D01*
X89287889Y-119474500D01*
X89220850Y-119454815D01*
X89200208Y-119438181D01*
X88716819Y-118954792D01*
X88683334Y-118893469D01*
X88680500Y-118867111D01*
X88680500Y-112711902D01*
X88656060Y-112557600D01*
X88643553Y-112478632D01*
X88606569Y-112364806D01*
X88600500Y-112326488D01*
X88600500Y-101972889D01*
X88620185Y-101905850D01*
X88636819Y-101885208D01*
X92540208Y-97981819D01*
X92601531Y-97948334D01*
X92627889Y-97945500D01*
X93335500Y-97945500D01*
X93402539Y-97965185D01*
X93448294Y-98017989D01*
X93459500Y-98069500D01*
X93459500Y-102333097D01*
X93496446Y-102566368D01*
X93569433Y-102790996D01*
X93617898Y-102886113D01*
X93676657Y-103001434D01*
X93815483Y-103192510D01*
X95477490Y-104854517D01*
X95668566Y-104993343D01*
X95879008Y-105100568D01*
X95879010Y-105100569D01*
X95986678Y-105135552D01*
X96103631Y-105173552D01*
X96211673Y-105190663D01*
X96336903Y-105210499D01*
X96336908Y-105210499D01*
X96573097Y-105210499D01*
X96686184Y-105192587D01*
X96806368Y-105173552D01*
X97030992Y-105100568D01*
X97241433Y-104993343D01*
X97297614Y-104952524D01*
X97363420Y-104929044D01*
X97431474Y-104944869D01*
X97480169Y-104994974D01*
X97494500Y-105052842D01*
X97494500Y-109137110D01*
X97474815Y-109204149D01*
X97458181Y-109224791D01*
X96804904Y-109878069D01*
X96743581Y-109911554D01*
X96717223Y-109914388D01*
X92891903Y-109914388D01*
X92658631Y-109951334D01*
X92434003Y-110024321D01*
X92223568Y-110131544D01*
X92185865Y-110158936D01*
X92151990Y-110176321D01*
X92140668Y-110180073D01*
X91991342Y-110272177D01*
X91867289Y-110396230D01*
X91775185Y-110545556D01*
X91771433Y-110556878D01*
X91754048Y-110590753D01*
X91726656Y-110628456D01*
X91619433Y-110838891D01*
X91546446Y-111063519D01*
X91509500Y-111296790D01*
X91509500Y-111532985D01*
X91546446Y-111766256D01*
X91619433Y-111990884D01*
X91703752Y-112156368D01*
X91726657Y-112201321D01*
X91754047Y-112239020D01*
X91771433Y-112272898D01*
X91775184Y-112284219D01*
X91796983Y-112319561D01*
X91867288Y-112433544D01*
X91991344Y-112557600D01*
X92092172Y-112619791D01*
X92140668Y-112649703D01*
X92140672Y-112649704D01*
X92151984Y-112653453D01*
X92152834Y-112653883D01*
X92153327Y-112653906D01*
X92169058Y-112662093D01*
X92184727Y-112670022D01*
X92185316Y-112670440D01*
X92223567Y-112698231D01*
X92226851Y-112699904D01*
X92233758Y-112704804D01*
X92252919Y-112729080D01*
X92273675Y-112752019D01*
X92274502Y-112756424D01*
X92277047Y-112759648D01*
X92279131Y-112781066D01*
X92285631Y-112815670D01*
X92284077Y-112835412D01*
X92963554Y-113514888D01*
X92957339Y-113514888D01*
X92855606Y-113542147D01*
X92764394Y-113594808D01*
X92689920Y-113669282D01*
X92637259Y-113760494D01*
X92610000Y-113862227D01*
X92610000Y-113868441D01*
X91930524Y-113188965D01*
X91930523Y-113188965D01*
X91898143Y-113233532D01*
X91805244Y-113415856D01*
X91742009Y-113610470D01*
X91710000Y-113812570D01*
X91710000Y-114017205D01*
X91742009Y-114219305D01*
X91805244Y-114413919D01*
X91898141Y-114596238D01*
X91898147Y-114596247D01*
X91930523Y-114640809D01*
X91930524Y-114640810D01*
X92610000Y-113961334D01*
X92610000Y-113967549D01*
X92637259Y-114069282D01*
X92689920Y-114160494D01*
X92764394Y-114234968D01*
X92855606Y-114287629D01*
X92957339Y-114314888D01*
X92963553Y-114314888D01*
X92284076Y-114994362D01*
X92328650Y-115026747D01*
X92510968Y-115119643D01*
X92705582Y-115182878D01*
X92907683Y-115214888D01*
X93112317Y-115214888D01*
X93314417Y-115182878D01*
X93509031Y-115119643D01*
X93691349Y-115026747D01*
X93735921Y-114994362D01*
X93056447Y-114314888D01*
X93062661Y-114314888D01*
X93164394Y-114287629D01*
X93255606Y-114234968D01*
X93330080Y-114160494D01*
X93382741Y-114069282D01*
X93410000Y-113967549D01*
X93410000Y-113961334D01*
X94089474Y-114640809D01*
X94121859Y-114596237D01*
X94214755Y-114413919D01*
X94277990Y-114219305D01*
X94310000Y-114017205D01*
X94310000Y-113812570D01*
X94277990Y-113610470D01*
X94214755Y-113415856D01*
X94121859Y-113233538D01*
X94033755Y-113112274D01*
X94010275Y-113046468D01*
X94026100Y-112978414D01*
X94076206Y-112929719D01*
X94134073Y-112915388D01*
X96491999Y-112915388D01*
X96559038Y-112935073D01*
X96579680Y-112951707D01*
X97163181Y-113535208D01*
X97196666Y-113596531D01*
X97199500Y-113622889D01*
X97199500Y-115128097D01*
X97236446Y-115361368D01*
X97309433Y-115585996D01*
X97405125Y-115773802D01*
X97416657Y-115796434D01*
X97555483Y-115987510D01*
X99782490Y-118214517D01*
X99973566Y-118353343D01*
X100072992Y-118404003D01*
X100184003Y-118460566D01*
X100184005Y-118460566D01*
X100184008Y-118460568D01*
X100303828Y-118499500D01*
X100408631Y-118533553D01*
X100641903Y-118570500D01*
X100641908Y-118570500D01*
X106508097Y-118570500D01*
X106741368Y-118533553D01*
X106965992Y-118460568D01*
X107176434Y-118353343D01*
X107367510Y-118214517D01*
X109716479Y-115865548D01*
X116830000Y-115865548D01*
X116830000Y-116084451D01*
X116830001Y-116084467D01*
X116858573Y-116301496D01*
X116915234Y-116512956D01*
X116999004Y-116715198D01*
X116999012Y-116715214D01*
X117108460Y-116904782D01*
X117108466Y-116904790D01*
X117155438Y-116966007D01*
X117898958Y-116222487D01*
X117923978Y-116282890D01*
X117995112Y-116389351D01*
X118085649Y-116479888D01*
X118192110Y-116551022D01*
X118252511Y-116576041D01*
X117508991Y-117319560D01*
X117508991Y-117319561D01*
X117570200Y-117366527D01*
X117570208Y-117366532D01*
X117759792Y-117475990D01*
X117759801Y-117475995D01*
X117962043Y-117559765D01*
X118173503Y-117616426D01*
X118390532Y-117644998D01*
X118390549Y-117645000D01*
X118609451Y-117645000D01*
X118609467Y-117644998D01*
X118826496Y-117616426D01*
X119037956Y-117559765D01*
X119240198Y-117475995D01*
X119240214Y-117475987D01*
X119429785Y-117366537D01*
X119429793Y-117366531D01*
X119491007Y-117319560D01*
X118747488Y-116576041D01*
X118807890Y-116551022D01*
X118914351Y-116479888D01*
X119004888Y-116389351D01*
X119076022Y-116282890D01*
X119101041Y-116222488D01*
X119844560Y-116966007D01*
X119891531Y-116904793D01*
X119891537Y-116904785D01*
X120000987Y-116715214D01*
X120000995Y-116715198D01*
X120084765Y-116512956D01*
X120141426Y-116301496D01*
X120169998Y-116084467D01*
X120170000Y-116084451D01*
X120170000Y-115865548D01*
X120169998Y-115865532D01*
X120141426Y-115648503D01*
X120084765Y-115437043D01*
X120000995Y-115234801D01*
X120000990Y-115234792D01*
X119891532Y-115045208D01*
X119891527Y-115045200D01*
X119844560Y-114983991D01*
X119101041Y-115727510D01*
X119076022Y-115667110D01*
X119004888Y-115560649D01*
X118914351Y-115470112D01*
X118807890Y-115398978D01*
X118747487Y-115373957D01*
X119491007Y-114630438D01*
X119491007Y-114630437D01*
X119429790Y-114583466D01*
X119429782Y-114583460D01*
X119240214Y-114474012D01*
X119240198Y-114474004D01*
X119037956Y-114390234D01*
X118826496Y-114333573D01*
X118609467Y-114305001D01*
X118609451Y-114305000D01*
X118390549Y-114305000D01*
X118390532Y-114305001D01*
X118173503Y-114333573D01*
X117962043Y-114390234D01*
X117759801Y-114474004D01*
X117759785Y-114474012D01*
X117570215Y-114583461D01*
X117570200Y-114583471D01*
X117508990Y-114630438D01*
X118252511Y-115373958D01*
X118192110Y-115398978D01*
X118085649Y-115470112D01*
X117995112Y-115560649D01*
X117923978Y-115667110D01*
X117898958Y-115727511D01*
X117155438Y-114983990D01*
X117108471Y-115045200D01*
X117108461Y-115045215D01*
X116999012Y-115234785D01*
X116999004Y-115234801D01*
X116915234Y-115437043D01*
X116858573Y-115648503D01*
X116830001Y-115865532D01*
X116830000Y-115865548D01*
X109716479Y-115865548D01*
X110734517Y-114847510D01*
X110873343Y-114656434D01*
X110980568Y-114445992D01*
X110989923Y-114417200D01*
X110993444Y-114406366D01*
X111018861Y-114328140D01*
X111053553Y-114221368D01*
X111082740Y-114037087D01*
X111090500Y-113988097D01*
X111090500Y-110865548D01*
X116830000Y-110865548D01*
X116830000Y-111084451D01*
X116830001Y-111084467D01*
X116858573Y-111301496D01*
X116915234Y-111512956D01*
X116999004Y-111715198D01*
X116999012Y-111715214D01*
X117108460Y-111904782D01*
X117108466Y-111904790D01*
X117155438Y-111966007D01*
X117898958Y-111222487D01*
X117923978Y-111282890D01*
X117995112Y-111389351D01*
X118085649Y-111479888D01*
X118192110Y-111551022D01*
X118252511Y-111576041D01*
X117508991Y-112319560D01*
X117508991Y-112319561D01*
X117570200Y-112366527D01*
X117570208Y-112366532D01*
X117759792Y-112475990D01*
X117759801Y-112475995D01*
X117962043Y-112559765D01*
X118173503Y-112616426D01*
X118390532Y-112644998D01*
X118390549Y-112645000D01*
X118609451Y-112645000D01*
X118609467Y-112644998D01*
X118826496Y-112616426D01*
X119037956Y-112559765D01*
X119240198Y-112475995D01*
X119240214Y-112475987D01*
X119429785Y-112366537D01*
X119429793Y-112366531D01*
X119491007Y-112319560D01*
X118747488Y-111576041D01*
X118807890Y-111551022D01*
X118914351Y-111479888D01*
X119004888Y-111389351D01*
X119076022Y-111282890D01*
X119101041Y-111222488D01*
X119844560Y-111966007D01*
X119891531Y-111904793D01*
X119891537Y-111904785D01*
X120000987Y-111715214D01*
X120000995Y-111715198D01*
X120084765Y-111512956D01*
X120141426Y-111301496D01*
X120169998Y-111084467D01*
X120170000Y-111084451D01*
X120170000Y-110865548D01*
X120169998Y-110865532D01*
X120141426Y-110648503D01*
X120084765Y-110437043D01*
X120000995Y-110234801D01*
X120000990Y-110234792D01*
X119891532Y-110045208D01*
X119891527Y-110045200D01*
X119844560Y-109983991D01*
X119101041Y-110727510D01*
X119076022Y-110667110D01*
X119004888Y-110560649D01*
X118914351Y-110470112D01*
X118807890Y-110398978D01*
X118747487Y-110373957D01*
X119491007Y-109630438D01*
X119491007Y-109630437D01*
X119429790Y-109583466D01*
X119429782Y-109583460D01*
X119240214Y-109474012D01*
X119240198Y-109474004D01*
X119037956Y-109390234D01*
X118826496Y-109333573D01*
X118609467Y-109305001D01*
X118609451Y-109305000D01*
X118390549Y-109305000D01*
X118390532Y-109305001D01*
X118173503Y-109333573D01*
X117962043Y-109390234D01*
X117759801Y-109474004D01*
X117759785Y-109474012D01*
X117570215Y-109583461D01*
X117570200Y-109583471D01*
X117508990Y-109630438D01*
X118252511Y-110373958D01*
X118192110Y-110398978D01*
X118085649Y-110470112D01*
X117995112Y-110560649D01*
X117923978Y-110667110D01*
X117898958Y-110727511D01*
X117155438Y-109983990D01*
X117108471Y-110045200D01*
X117108461Y-110045215D01*
X116999012Y-110234785D01*
X116999004Y-110234801D01*
X116915234Y-110437043D01*
X116858573Y-110648503D01*
X116830001Y-110865532D01*
X116830000Y-110865548D01*
X111090500Y-110865548D01*
X111090500Y-97625441D01*
X117067000Y-97625441D01*
X117067000Y-97874558D01*
X117067001Y-97874575D01*
X117097922Y-98109448D01*
X117099518Y-98121565D01*
X117135420Y-98255551D01*
X117163998Y-98362207D01*
X117259330Y-98592361D01*
X117259337Y-98592376D01*
X117383900Y-98808126D01*
X117535560Y-99005774D01*
X117535566Y-99005781D01*
X117711718Y-99181933D01*
X117711725Y-99181939D01*
X117909373Y-99333599D01*
X118125123Y-99458162D01*
X118125138Y-99458169D01*
X118220100Y-99497503D01*
X118355293Y-99553502D01*
X118595935Y-99617982D01*
X118842935Y-99650500D01*
X118842942Y-99650500D01*
X119092058Y-99650500D01*
X119092065Y-99650500D01*
X119339065Y-99617982D01*
X119579707Y-99553502D01*
X119809873Y-99458164D01*
X120025627Y-99333599D01*
X120223276Y-99181938D01*
X120399438Y-99005776D01*
X120551099Y-98808127D01*
X120675664Y-98592373D01*
X120771002Y-98362207D01*
X120835482Y-98121565D01*
X120868000Y-97874565D01*
X120868000Y-97625435D01*
X120835482Y-97378435D01*
X120771002Y-97137793D01*
X120714133Y-97000500D01*
X120675669Y-96907638D01*
X120675662Y-96907623D01*
X120551099Y-96691873D01*
X120399439Y-96494225D01*
X120399433Y-96494218D01*
X120223281Y-96318066D01*
X120223274Y-96318060D01*
X120025626Y-96166400D01*
X119809876Y-96041837D01*
X119809861Y-96041830D01*
X119579707Y-95946498D01*
X119339061Y-95882017D01*
X119092075Y-95849501D01*
X119092070Y-95849500D01*
X119092065Y-95849500D01*
X118842935Y-95849500D01*
X118842929Y-95849500D01*
X118842924Y-95849501D01*
X118595938Y-95882017D01*
X118355292Y-95946498D01*
X118125138Y-96041830D01*
X118125123Y-96041837D01*
X117909373Y-96166400D01*
X117711725Y-96318060D01*
X117711718Y-96318066D01*
X117535566Y-96494218D01*
X117535560Y-96494225D01*
X117383900Y-96691873D01*
X117259337Y-96907623D01*
X117259330Y-96907638D01*
X117163998Y-97137792D01*
X117099517Y-97378438D01*
X117067001Y-97625424D01*
X117067000Y-97625441D01*
X111090500Y-97625441D01*
X111090500Y-95107889D01*
X111110185Y-95040850D01*
X111126819Y-95020208D01*
X114360209Y-91786819D01*
X114421532Y-91753334D01*
X114447890Y-91750500D01*
X117082703Y-91750500D01*
X117149742Y-91770185D01*
X117188241Y-91809403D01*
X117224786Y-91868651D01*
X117224789Y-91868655D01*
X117348844Y-91992710D01*
X117348848Y-91992713D01*
X117498162Y-92084812D01*
X117498164Y-92084813D01*
X117498166Y-92084814D01*
X117664703Y-92139999D01*
X117767492Y-92150500D01*
X117767497Y-92150500D01*
X120167503Y-92150500D01*
X120167508Y-92150500D01*
X120270297Y-92139999D01*
X120436834Y-92084814D01*
X120586155Y-91992711D01*
X120710211Y-91868655D01*
X120802314Y-91719334D01*
X120857499Y-91552797D01*
X120868000Y-91450008D01*
X120868000Y-89049992D01*
X120857499Y-88947203D01*
X120802314Y-88780666D01*
X120783090Y-88749500D01*
X120710213Y-88631348D01*
X120710210Y-88631344D01*
X120586155Y-88507289D01*
X120586151Y-88507286D01*
X120436837Y-88415187D01*
X120436835Y-88415186D01*
X120353565Y-88387593D01*
X120270297Y-88360001D01*
X120270295Y-88360000D01*
X120167515Y-88349500D01*
X120167508Y-88349500D01*
X117767492Y-88349500D01*
X117767484Y-88349500D01*
X117664704Y-88360000D01*
X117664703Y-88360001D01*
X117498164Y-88415186D01*
X117498162Y-88415187D01*
X117348848Y-88507286D01*
X117348844Y-88507289D01*
X117224789Y-88631344D01*
X117224786Y-88631348D01*
X117188241Y-88690597D01*
X117136293Y-88737322D01*
X117082703Y-88749500D01*
X113656903Y-88749500D01*
X113423631Y-88786446D01*
X113199003Y-88859433D01*
X112988563Y-88966659D01*
X112797496Y-89105476D01*
X112797491Y-89105480D01*
X108445485Y-93457487D01*
X108445484Y-93457488D01*
X108306657Y-93648565D01*
X108271963Y-93716657D01*
X108199434Y-93859003D01*
X108126446Y-94083631D01*
X108089500Y-94316902D01*
X108089500Y-113197111D01*
X108069815Y-113264150D01*
X108053181Y-113284792D01*
X105804792Y-115533181D01*
X105777864Y-115547884D01*
X105752046Y-115564477D01*
X105745845Y-115565368D01*
X105743469Y-115566666D01*
X105717111Y-115569500D01*
X105607693Y-115569500D01*
X105540654Y-115549815D01*
X105494899Y-115497011D01*
X105484955Y-115427853D01*
X105500305Y-115383501D01*
X105537951Y-115318294D01*
X105537954Y-115318287D01*
X105623236Y-115112403D01*
X105680911Y-114897152D01*
X105680914Y-114897139D01*
X105710000Y-114676209D01*
X105710000Y-114453360D01*
X105680914Y-114232430D01*
X105680911Y-114232417D01*
X105623236Y-114017166D01*
X105537954Y-113811282D01*
X105537949Y-113811270D01*
X105426533Y-113618292D01*
X105375956Y-113552380D01*
X105375955Y-113552380D01*
X104574612Y-114353724D01*
X104569111Y-114333194D01*
X104490119Y-114196377D01*
X104378408Y-114084666D01*
X104241591Y-114005674D01*
X104221058Y-114000172D01*
X105022403Y-113198828D01*
X105022403Y-113198825D01*
X104956504Y-113148258D01*
X104956491Y-113148249D01*
X104763520Y-113036839D01*
X104763502Y-113036830D01*
X104557618Y-112951548D01*
X104342367Y-112893873D01*
X104342354Y-112893870D01*
X104121425Y-112864785D01*
X103898575Y-112864785D01*
X103677645Y-112893870D01*
X103677632Y-112893873D01*
X103462381Y-112951548D01*
X103256497Y-113036830D01*
X103256479Y-113036839D01*
X103063511Y-113148247D01*
X102997595Y-113198827D01*
X103798941Y-114000172D01*
X103778409Y-114005674D01*
X103641592Y-114084666D01*
X103529881Y-114196377D01*
X103450889Y-114333194D01*
X103445387Y-114353725D01*
X102644042Y-113552380D01*
X102593462Y-113618296D01*
X102482054Y-113811264D01*
X102482045Y-113811282D01*
X102396763Y-114017166D01*
X102339088Y-114232417D01*
X102339085Y-114232430D01*
X102310000Y-114453360D01*
X102310000Y-114676209D01*
X102339085Y-114897139D01*
X102339088Y-114897152D01*
X102396763Y-115112403D01*
X102482045Y-115318287D01*
X102482048Y-115318294D01*
X102519695Y-115383501D01*
X102536167Y-115451401D01*
X102513314Y-115517428D01*
X102458392Y-115560618D01*
X102412307Y-115569500D01*
X101432889Y-115569500D01*
X101365850Y-115549815D01*
X101345208Y-115533181D01*
X100236819Y-114424792D01*
X100203334Y-114363469D01*
X100200500Y-114337111D01*
X100200500Y-112738864D01*
X100220185Y-112671825D01*
X100224169Y-112665995D01*
X100278343Y-112591434D01*
X100385568Y-112380992D01*
X100458553Y-112156368D01*
X100484764Y-111990880D01*
X100495500Y-111923097D01*
X100495500Y-99321889D01*
X100515185Y-99254850D01*
X100567989Y-99209095D01*
X100637147Y-99199151D01*
X100700703Y-99228176D01*
X100707181Y-99234208D01*
X102473181Y-101000208D01*
X102506666Y-101061531D01*
X102509500Y-101087889D01*
X102509500Y-108052557D01*
X102489815Y-108119596D01*
X102473181Y-108140238D01*
X102467289Y-108146129D01*
X102467286Y-108146133D01*
X102375187Y-108295447D01*
X102375186Y-108295449D01*
X102320001Y-108461988D01*
X102320000Y-108461989D01*
X102309500Y-108564769D01*
X102309500Y-110564800D01*
X102320000Y-110667580D01*
X102320001Y-110667581D01*
X102375186Y-110834120D01*
X102375187Y-110834122D01*
X102467286Y-110983436D01*
X102467289Y-110983440D01*
X102591344Y-111107495D01*
X102591348Y-111107498D01*
X102740662Y-111199597D01*
X102740664Y-111199598D01*
X102740666Y-111199599D01*
X102907203Y-111254784D01*
X103009992Y-111265285D01*
X103009997Y-111265285D01*
X105010003Y-111265285D01*
X105010008Y-111265285D01*
X105112797Y-111254784D01*
X105279334Y-111199599D01*
X105428655Y-111107496D01*
X105552711Y-110983440D01*
X105644814Y-110834119D01*
X105699999Y-110667582D01*
X105710500Y-110564793D01*
X105710500Y-108564777D01*
X105699999Y-108461988D01*
X105644814Y-108295451D01*
X105635297Y-108280022D01*
X105552713Y-108146133D01*
X105552710Y-108146129D01*
X105546819Y-108140238D01*
X105513334Y-108078915D01*
X105510500Y-108052557D01*
X105510500Y-100296902D01*
X105473553Y-100063631D01*
X105400566Y-99839003D01*
X105343963Y-99727914D01*
X105293343Y-99628567D01*
X105154517Y-99437490D01*
X104987510Y-99270483D01*
X101576819Y-95859792D01*
X101543334Y-95798469D01*
X101540500Y-95772111D01*
X101540500Y-92246902D01*
X101503553Y-92013631D01*
X101456446Y-91868651D01*
X101432072Y-91793639D01*
X101431012Y-91789880D01*
X101430568Y-91789008D01*
X101430568Y-91789007D01*
X101323343Y-91578566D01*
X101184517Y-91387490D01*
X95452510Y-85655483D01*
X95261434Y-85516657D01*
X95050996Y-85409433D01*
X94826368Y-85336446D01*
X94593097Y-85299500D01*
X94593092Y-85299500D01*
X79943092Y-85299500D01*
X79043092Y-85299500D01*
X77743092Y-85299500D01*
X77693092Y-85299500D01*
X64918092Y-85299500D01*
X64681908Y-85299500D01*
X64681903Y-85299500D01*
X64448631Y-85336446D01*
X64224003Y-85409433D01*
X64013563Y-85516659D01*
X63822496Y-85655476D01*
X63822491Y-85655480D01*
X57930485Y-91547487D01*
X57930484Y-91547488D01*
X57791659Y-91738562D01*
X57791658Y-91738564D01*
X57765956Y-91789008D01*
X57684433Y-91949003D01*
X57611446Y-92173631D01*
X57574500Y-92406902D01*
X57574500Y-101863152D01*
X57554815Y-101930191D01*
X57502011Y-101975946D01*
X57432853Y-101985890D01*
X57388501Y-101970539D01*
X57225898Y-101876661D01*
X57225876Y-101876650D01*
X57013887Y-101788842D01*
X56792238Y-101729452D01*
X56754215Y-101724446D01*
X56564741Y-101699500D01*
X56564734Y-101699500D01*
X56335266Y-101699500D01*
X56335258Y-101699500D01*
X56118715Y-101728009D01*
X56107762Y-101729452D01*
X56014076Y-101754554D01*
X55886112Y-101788842D01*
X55674123Y-101876650D01*
X55674109Y-101876657D01*
X55475382Y-101991392D01*
X55293338Y-102131081D01*
X55131081Y-102293338D01*
X54991392Y-102475382D01*
X54876657Y-102674109D01*
X54876653Y-102674118D01*
X54788842Y-102886112D01*
X54759734Y-102994744D01*
X54727640Y-103050331D01*
X50355485Y-107422487D01*
X50355483Y-107422490D01*
X50226150Y-107600500D01*
X50216657Y-107613566D01*
X50216653Y-107613572D01*
X50210883Y-107624896D01*
X50210884Y-107624897D01*
X50109433Y-107824003D01*
X50036446Y-108048631D01*
X49999500Y-108281902D01*
X49999500Y-115368097D01*
X50036446Y-115601368D01*
X50109433Y-115825996D01*
X50216657Y-116036434D01*
X50355483Y-116227510D01*
X55272490Y-121144517D01*
X55463566Y-121283343D01*
X55566781Y-121335933D01*
X55674006Y-121390568D01*
X55674012Y-121390570D01*
X55733212Y-121409805D01*
X55733213Y-121409805D01*
X55815922Y-121436679D01*
X55898631Y-121463553D01*
X56131903Y-121500500D01*
X56131908Y-121500500D01*
X59109611Y-121500500D01*
X59176650Y-121520185D01*
X59197292Y-121536819D01*
X60515792Y-122855319D01*
X60549277Y-122916642D01*
X60544293Y-122986334D01*
X60502421Y-123042267D01*
X60436957Y-123066684D01*
X60428111Y-123067000D01*
X58549984Y-123067000D01*
X58447204Y-123077500D01*
X58447203Y-123077501D01*
X58280664Y-123132686D01*
X58280662Y-123132687D01*
X58131348Y-123224786D01*
X58131344Y-123224789D01*
X58007289Y-123348844D01*
X58007286Y-123348848D01*
X57970741Y-123408097D01*
X57918793Y-123454822D01*
X57865203Y-123467000D01*
X56740389Y-123467000D01*
X56673350Y-123447315D01*
X56652708Y-123430681D01*
X49536819Y-116314792D01*
X49503334Y-116253469D01*
X49500500Y-116227111D01*
X49500500Y-106881903D01*
X49485810Y-106789158D01*
X49485810Y-106789157D01*
X49463553Y-106648634D01*
X49463553Y-106648631D01*
X49390568Y-106424008D01*
X49283343Y-106213566D01*
X49144517Y-106022490D01*
X46172358Y-103050331D01*
X46140265Y-102994744D01*
X46111158Y-102886113D01*
X46111154Y-102886103D01*
X46023347Y-102674118D01*
X46023342Y-102674109D01*
X45996417Y-102627473D01*
X45908611Y-102475388D01*
X45850752Y-102399985D01*
X45825559Y-102334817D01*
X45839597Y-102266373D01*
X45888411Y-102216383D01*
X45949129Y-102200500D01*
X48541978Y-102200500D01*
X48609017Y-102220185D01*
X48654772Y-102272989D01*
X48656539Y-102277048D01*
X48701951Y-102386685D01*
X48701958Y-102386700D01*
X48833075Y-102613803D01*
X48992718Y-102821851D01*
X48992726Y-102821860D01*
X49178140Y-103007274D01*
X49178148Y-103007281D01*
X49178149Y-103007282D01*
X49210234Y-103031902D01*
X49386196Y-103166924D01*
X49613299Y-103298041D01*
X49613309Y-103298046D01*
X49855571Y-103398394D01*
X49855581Y-103398398D01*
X50108884Y-103466270D01*
X50368880Y-103500500D01*
X50368887Y-103500500D01*
X50631113Y-103500500D01*
X50631120Y-103500500D01*
X50891116Y-103466270D01*
X51144419Y-103398398D01*
X51386697Y-103298043D01*
X51613803Y-103166924D01*
X51821851Y-103007282D01*
X51821855Y-103007277D01*
X51821860Y-103007274D01*
X52007274Y-102821860D01*
X52007277Y-102821855D01*
X52007282Y-102821851D01*
X52166924Y-102613803D01*
X52298043Y-102386697D01*
X52398398Y-102144419D01*
X52466270Y-101891116D01*
X52500500Y-101631120D01*
X52500500Y-101368880D01*
X52466270Y-101108884D01*
X52398398Y-100855581D01*
X52372858Y-100793922D01*
X52298046Y-100613309D01*
X52298041Y-100613299D01*
X52166924Y-100386196D01*
X52007281Y-100178148D01*
X52007274Y-100178140D01*
X51821860Y-99992726D01*
X51821851Y-99992718D01*
X51613803Y-99833075D01*
X51386700Y-99701958D01*
X51386690Y-99701953D01*
X51144428Y-99601605D01*
X51144421Y-99601603D01*
X51144419Y-99601602D01*
X50891116Y-99533730D01*
X50691591Y-99507461D01*
X50627095Y-99498970D01*
X50627288Y-99497503D01*
X50568414Y-99476219D01*
X50486434Y-99416657D01*
X50275996Y-99309433D01*
X50051368Y-99236446D01*
X49818097Y-99199500D01*
X49818092Y-99199500D01*
X44947889Y-99199500D01*
X44880850Y-99179815D01*
X44860208Y-99163181D01*
X44336819Y-98639792D01*
X44322115Y-98612864D01*
X44305523Y-98587046D01*
X44304631Y-98580845D01*
X44303334Y-98578469D01*
X44300500Y-98552111D01*
X44300500Y-98354820D01*
X44320185Y-98287781D01*
X44350192Y-98255551D01*
X44357546Y-98250046D01*
X44443796Y-98134831D01*
X44494091Y-97999983D01*
X44500500Y-97940373D01*
X44500499Y-95444628D01*
X44494091Y-95385017D01*
X44492931Y-95381908D01*
X44443797Y-95250171D01*
X44443793Y-95250164D01*
X44357547Y-95134955D01*
X44357544Y-95134952D01*
X44242335Y-95048706D01*
X44242328Y-95048702D01*
X44107482Y-94998408D01*
X44107483Y-94998408D01*
X44047883Y-94992001D01*
X44047881Y-94992000D01*
X44047873Y-94992000D01*
X44047864Y-94992000D01*
X41552129Y-94992000D01*
X41552123Y-94992001D01*
X41492516Y-94998408D01*
X41357671Y-95048702D01*
X41357664Y-95048706D01*
X41242455Y-95134952D01*
X41242452Y-95134955D01*
X41156206Y-95250164D01*
X41156202Y-95250171D01*
X41105908Y-95385017D01*
X41100736Y-95433129D01*
X41099501Y-95444623D01*
X41099500Y-95444635D01*
X41099500Y-97940370D01*
X41099501Y-97940376D01*
X41105908Y-97999983D01*
X41156202Y-98134828D01*
X41156203Y-98134829D01*
X41156204Y-98134831D01*
X41220638Y-98220904D01*
X41242454Y-98250046D01*
X41249808Y-98255551D01*
X41291681Y-98311483D01*
X41299500Y-98354820D01*
X41299500Y-100027111D01*
X41279815Y-100094150D01*
X41263181Y-100114792D01*
X39205485Y-102172487D01*
X39205484Y-102172488D01*
X39066657Y-102363565D01*
X39048790Y-102398632D01*
X38959434Y-102574003D01*
X38886446Y-102798631D01*
X38849500Y-103031902D01*
X36141925Y-103031902D01*
X36141925Y-85767484D01*
X43849500Y-85767484D01*
X43849500Y-88167515D01*
X43860000Y-88270295D01*
X43860001Y-88270297D01*
X43876532Y-88320185D01*
X43915186Y-88436835D01*
X43915187Y-88436837D01*
X44007286Y-88586151D01*
X44007289Y-88586155D01*
X44131344Y-88710210D01*
X44131348Y-88710213D01*
X44280662Y-88802312D01*
X44280664Y-88802313D01*
X44280666Y-88802314D01*
X44447203Y-88857499D01*
X44549992Y-88868000D01*
X44975500Y-88868000D01*
X45042539Y-88887685D01*
X45088294Y-88940489D01*
X45099500Y-88992000D01*
X45099500Y-95874535D01*
X45083278Y-95935084D01*
X45083388Y-95935139D01*
X45083115Y-95935691D01*
X45082892Y-95936526D01*
X45081600Y-95938763D01*
X45081592Y-95938780D01*
X44996293Y-96144709D01*
X44996290Y-96144719D01*
X44948228Y-96324092D01*
X44938597Y-96360034D01*
X44938594Y-96360047D01*
X44909501Y-96581033D01*
X44909500Y-96581049D01*
X44909500Y-96803950D01*
X44909501Y-96803966D01*
X44938594Y-97024952D01*
X44938595Y-97024957D01*
X44938596Y-97024963D01*
X44996290Y-97240280D01*
X44996293Y-97240290D01*
X45081593Y-97446222D01*
X45081595Y-97446226D01*
X45193052Y-97639274D01*
X45193057Y-97639280D01*
X45193058Y-97639282D01*
X45328751Y-97816122D01*
X45328757Y-97816129D01*
X45486370Y-97973742D01*
X45486377Y-97973748D01*
X45596770Y-98058455D01*
X45663226Y-98109448D01*
X45856274Y-98220905D01*
X45926627Y-98250046D01*
X46061074Y-98305736D01*
X46062219Y-98306210D01*
X46277537Y-98363904D01*
X46498543Y-98393000D01*
X46498550Y-98393000D01*
X46721450Y-98393000D01*
X46721457Y-98393000D01*
X46942463Y-98363904D01*
X47157781Y-98306210D01*
X47363726Y-98220905D01*
X47556774Y-98109448D01*
X47733624Y-97973747D01*
X47891247Y-97816124D01*
X48026948Y-97639274D01*
X48138405Y-97446226D01*
X48223710Y-97240281D01*
X48281404Y-97024963D01*
X48310500Y-96803957D01*
X48310500Y-96581049D01*
X48719500Y-96581049D01*
X48719500Y-96803950D01*
X48719501Y-96803966D01*
X48748594Y-97024952D01*
X48748595Y-97024957D01*
X48748596Y-97024963D01*
X48806290Y-97240280D01*
X48806293Y-97240290D01*
X48891593Y-97446222D01*
X48891595Y-97446226D01*
X49003052Y-97639274D01*
X49003057Y-97639280D01*
X49003058Y-97639282D01*
X49138751Y-97816122D01*
X49138757Y-97816129D01*
X49296370Y-97973742D01*
X49296377Y-97973748D01*
X49406770Y-98058455D01*
X49473226Y-98109448D01*
X49666274Y-98220905D01*
X49736627Y-98250046D01*
X49871074Y-98305736D01*
X49872219Y-98306210D01*
X50087537Y-98363904D01*
X50308543Y-98393000D01*
X50308550Y-98393000D01*
X50531450Y-98393000D01*
X50531457Y-98393000D01*
X50752463Y-98363904D01*
X50967781Y-98306210D01*
X51173726Y-98220905D01*
X51366774Y-98109448D01*
X51543624Y-97973747D01*
X51569037Y-97948334D01*
X51594550Y-97922822D01*
X51701242Y-97816129D01*
X51701247Y-97816124D01*
X51836948Y-97639274D01*
X51948405Y-97446226D01*
X52033710Y-97240281D01*
X52068768Y-97109435D01*
X52078054Y-97085244D01*
X52165568Y-96913492D01*
X52238553Y-96688868D01*
X52255626Y-96581075D01*
X52530000Y-96581075D01*
X52530000Y-96803924D01*
X52559085Y-97024854D01*
X52559088Y-97024867D01*
X52616763Y-97240118D01*
X52702045Y-97446002D01*
X52702054Y-97446020D01*
X52813464Y-97638991D01*
X52813473Y-97639004D01*
X52864040Y-97704903D01*
X52864043Y-97704903D01*
X53665387Y-96903559D01*
X53670889Y-96924091D01*
X53749881Y-97060908D01*
X53861592Y-97172619D01*
X53998409Y-97251611D01*
X54018940Y-97257112D01*
X53217595Y-98058455D01*
X53217595Y-98058456D01*
X53283507Y-98109033D01*
X53476485Y-98220449D01*
X53476497Y-98220454D01*
X53682381Y-98305736D01*
X53897632Y-98363411D01*
X53897645Y-98363414D01*
X54118575Y-98392500D01*
X54341425Y-98392500D01*
X54562354Y-98363414D01*
X54562367Y-98363411D01*
X54777618Y-98305736D01*
X54983502Y-98220454D01*
X54983514Y-98220449D01*
X55176498Y-98109030D01*
X55242403Y-98058457D01*
X55242404Y-98058456D01*
X54441059Y-97257112D01*
X54461591Y-97251611D01*
X54598408Y-97172619D01*
X54710119Y-97060908D01*
X54789111Y-96924091D01*
X54794612Y-96903559D01*
X55595956Y-97704904D01*
X55595957Y-97704903D01*
X55646530Y-97638998D01*
X55757949Y-97446014D01*
X55757954Y-97446002D01*
X55843236Y-97240118D01*
X55900911Y-97024867D01*
X55900914Y-97024854D01*
X55930000Y-96803924D01*
X55930000Y-96581075D01*
X55900914Y-96360145D01*
X55900911Y-96360132D01*
X55843236Y-96144881D01*
X55757954Y-95938997D01*
X55757949Y-95938985D01*
X55646533Y-95746007D01*
X55595956Y-95680095D01*
X55595955Y-95680095D01*
X54794612Y-96481439D01*
X54789111Y-96460909D01*
X54710119Y-96324092D01*
X54598408Y-96212381D01*
X54461591Y-96133389D01*
X54441058Y-96127887D01*
X55242403Y-95326543D01*
X55242403Y-95326540D01*
X55176504Y-95275973D01*
X55176491Y-95275964D01*
X54983520Y-95164554D01*
X54983502Y-95164545D01*
X54777618Y-95079263D01*
X54562367Y-95021588D01*
X54562354Y-95021585D01*
X54341425Y-94992500D01*
X54118575Y-94992500D01*
X53897645Y-95021585D01*
X53897632Y-95021588D01*
X53682381Y-95079263D01*
X53476497Y-95164545D01*
X53476479Y-95164554D01*
X53283511Y-95275962D01*
X53217595Y-95326542D01*
X54018941Y-96127887D01*
X53998409Y-96133389D01*
X53861592Y-96212381D01*
X53749881Y-96324092D01*
X53670889Y-96460909D01*
X53665387Y-96481440D01*
X52864042Y-95680095D01*
X52813462Y-95746011D01*
X52702054Y-95938979D01*
X52702045Y-95938997D01*
X52616763Y-96144881D01*
X52559088Y-96360132D01*
X52559085Y-96360145D01*
X52530000Y-96581075D01*
X52255626Y-96581075D01*
X52255631Y-96581043D01*
X52259341Y-96557619D01*
X52275500Y-96455597D01*
X52275500Y-88143435D01*
X52295185Y-88076396D01*
X52301125Y-88067948D01*
X52333599Y-88025627D01*
X52458162Y-87809876D01*
X52458164Y-87809873D01*
X52553502Y-87579707D01*
X52617982Y-87339065D01*
X52650500Y-87092065D01*
X52650500Y-86842935D01*
X52617982Y-86595935D01*
X52553502Y-86355293D01*
X52458164Y-86125127D01*
X52439255Y-86092376D01*
X52333599Y-85909373D01*
X52181939Y-85711725D01*
X52181933Y-85711718D01*
X52005781Y-85535566D01*
X52005774Y-85535560D01*
X51808126Y-85383900D01*
X51592376Y-85259337D01*
X51592361Y-85259330D01*
X51535884Y-85235937D01*
X51362207Y-85163998D01*
X51218311Y-85125441D01*
X117067000Y-85125441D01*
X117067000Y-85374558D01*
X117067001Y-85374575D01*
X117088195Y-85535562D01*
X117099518Y-85621565D01*
X117123676Y-85711724D01*
X117163998Y-85862207D01*
X117259330Y-86092361D01*
X117259337Y-86092376D01*
X117383900Y-86308126D01*
X117535560Y-86505774D01*
X117535566Y-86505781D01*
X117711718Y-86681933D01*
X117711725Y-86681939D01*
X117909373Y-86833599D01*
X118125123Y-86958162D01*
X118125138Y-86958169D01*
X118224325Y-86999253D01*
X118355293Y-87053502D01*
X118595935Y-87117982D01*
X118842935Y-87150500D01*
X118842942Y-87150500D01*
X119092058Y-87150500D01*
X119092065Y-87150500D01*
X119339065Y-87117982D01*
X119579707Y-87053502D01*
X119809873Y-86958164D01*
X120025627Y-86833599D01*
X120223276Y-86681938D01*
X120399438Y-86505776D01*
X120551099Y-86308127D01*
X120675664Y-86092373D01*
X120771002Y-85862207D01*
X120835482Y-85621565D01*
X120868000Y-85374565D01*
X120868000Y-85125435D01*
X120835482Y-84878435D01*
X120771002Y-84637793D01*
X120675664Y-84407627D01*
X120611432Y-84296374D01*
X120551099Y-84191873D01*
X120399439Y-83994225D01*
X120399433Y-83994218D01*
X120223281Y-83818066D01*
X120223274Y-83818060D01*
X120025626Y-83666400D01*
X119809876Y-83541837D01*
X119809861Y-83541830D01*
X119579707Y-83446498D01*
X119484958Y-83421110D01*
X119339065Y-83382018D01*
X119339064Y-83382017D01*
X119339061Y-83382017D01*
X119092075Y-83349501D01*
X119092070Y-83349500D01*
X119092065Y-83349500D01*
X118842935Y-83349500D01*
X118842929Y-83349500D01*
X118842924Y-83349501D01*
X118595938Y-83382017D01*
X118355292Y-83446498D01*
X118125138Y-83541830D01*
X118125123Y-83541837D01*
X117909373Y-83666400D01*
X117711725Y-83818060D01*
X117711718Y-83818066D01*
X117535566Y-83994218D01*
X117535560Y-83994225D01*
X117383900Y-84191873D01*
X117259337Y-84407623D01*
X117259330Y-84407638D01*
X117163998Y-84637792D01*
X117099517Y-84878438D01*
X117067001Y-85125424D01*
X117067000Y-85125441D01*
X51218311Y-85125441D01*
X51121561Y-85099517D01*
X50874575Y-85067001D01*
X50874570Y-85067000D01*
X50874565Y-85067000D01*
X50625435Y-85067000D01*
X50625429Y-85067000D01*
X50625424Y-85067001D01*
X50378438Y-85099517D01*
X50137792Y-85163998D01*
X49907638Y-85259330D01*
X49907623Y-85259337D01*
X49691873Y-85383900D01*
X49494225Y-85535560D01*
X49494218Y-85535566D01*
X49318066Y-85711718D01*
X49318060Y-85711725D01*
X49166400Y-85909373D01*
X49041837Y-86125123D01*
X49041830Y-86125138D01*
X48946498Y-86355292D01*
X48882017Y-86595938D01*
X48849501Y-86842924D01*
X48849500Y-86842941D01*
X48849500Y-87092058D01*
X48849501Y-87092075D01*
X48882017Y-87339061D01*
X48946498Y-87579707D01*
X49041830Y-87809861D01*
X49041837Y-87809876D01*
X49166400Y-88025626D01*
X49248876Y-88133111D01*
X49274070Y-88198280D01*
X49274500Y-88208597D01*
X49274500Y-95381766D01*
X49254815Y-95448805D01*
X49238181Y-95469447D01*
X49138757Y-95568870D01*
X49138751Y-95568877D01*
X49003058Y-95745717D01*
X49003052Y-95745726D01*
X48891595Y-95938773D01*
X48891593Y-95938777D01*
X48806293Y-96144709D01*
X48806290Y-96144719D01*
X48758228Y-96324092D01*
X48748597Y-96360034D01*
X48748594Y-96360047D01*
X48719501Y-96581033D01*
X48719500Y-96581049D01*
X48310500Y-96581049D01*
X48310500Y-96581043D01*
X48281404Y-96360037D01*
X48223710Y-96144719D01*
X48138405Y-95938774D01*
X48138403Y-95938771D01*
X48138401Y-95938766D01*
X48117113Y-95901894D01*
X48100500Y-95839894D01*
X48100500Y-87699402D01*
X48063553Y-87466131D01*
X47990566Y-87241503D01*
X47894774Y-87053502D01*
X47883343Y-87031067D01*
X47801261Y-86918091D01*
X47744518Y-86839990D01*
X47683109Y-86778581D01*
X47679732Y-86774579D01*
X47667665Y-86747213D01*
X47653334Y-86720968D01*
X47652444Y-86712695D01*
X47651542Y-86710649D01*
X47651947Y-86708070D01*
X47650500Y-86694610D01*
X47650500Y-85767497D01*
X47650499Y-85767484D01*
X47639999Y-85664704D01*
X47639999Y-85664703D01*
X47584814Y-85498166D01*
X47530082Y-85409433D01*
X47492713Y-85348848D01*
X47492710Y-85348844D01*
X47368655Y-85224789D01*
X47368651Y-85224786D01*
X47219337Y-85132687D01*
X47219335Y-85132686D01*
X47119237Y-85099517D01*
X47052797Y-85077501D01*
X47052795Y-85077500D01*
X46950015Y-85067000D01*
X46950008Y-85067000D01*
X44549992Y-85067000D01*
X44549984Y-85067000D01*
X44447204Y-85077500D01*
X44447203Y-85077501D01*
X44280664Y-85132686D01*
X44280662Y-85132687D01*
X44131348Y-85224786D01*
X44131344Y-85224789D01*
X44007289Y-85348844D01*
X44007286Y-85348848D01*
X43915187Y-85498162D01*
X43915186Y-85498164D01*
X43860001Y-85664703D01*
X43860000Y-85664704D01*
X43849500Y-85767484D01*
X36141925Y-85767484D01*
X36141925Y-84175220D01*
X36161610Y-84108181D01*
X36214414Y-84062426D01*
X36283572Y-84052482D01*
X36338807Y-84074900D01*
X36445121Y-84152142D01*
X36613551Y-84237961D01*
X36613553Y-84237962D01*
X36676567Y-84258436D01*
X36793332Y-84296375D01*
X36879803Y-84310070D01*
X36980032Y-84325946D01*
X36980037Y-84325946D01*
X37169076Y-84325946D01*
X37259586Y-84311609D01*
X37355776Y-84296375D01*
X37535557Y-84237961D01*
X37703987Y-84152142D01*
X37856918Y-84041031D01*
X37990585Y-83907364D01*
X38101696Y-83754433D01*
X38187515Y-83586003D01*
X38245929Y-83406222D01*
X38266758Y-83274712D01*
X38275500Y-83219522D01*
X38275500Y-83030477D01*
X38252502Y-82885279D01*
X38245929Y-82843778D01*
X38187515Y-82663997D01*
X38101696Y-82495567D01*
X38101694Y-82495564D01*
X38101693Y-82495562D01*
X38073922Y-82457339D01*
X38050441Y-82391533D01*
X38066266Y-82323479D01*
X38116371Y-82274784D01*
X38174239Y-82260453D01*
X125586624Y-82260453D01*
X125653663Y-82280138D01*
G37*
%TD.AperFunction*%
%TD*%
D40*
%TO.C,U6*%
X55500000Y-152430000D03*
D41*
X52960000Y-152430000D03*
X50420000Y-152430000D03*
X47880000Y-152430000D03*
X45340000Y-152430000D03*
X42800000Y-152430000D03*
X40260000Y-152430000D03*
X40260000Y-160050000D03*
X42800000Y-160050000D03*
X45340000Y-160050000D03*
X47880000Y-160050000D03*
X50420000Y-160050000D03*
X52960000Y-160050000D03*
X55500000Y-160050000D03*
%TD*%
D42*
%TO.C,J9*%
X59740000Y-138287500D03*
D43*
X64740000Y-138287500D03*
%TD*%
D44*
%TO.C,U2*%
X68500000Y-95500000D03*
D45*
X71040000Y-95500000D03*
X73580000Y-95500000D03*
%TD*%
D46*
%TO.C,Q1*%
X63760000Y-147010000D03*
X61220000Y-147010000D03*
D47*
X58680000Y-147010000D03*
%TD*%
D41*
%TO.C,U7*%
X40400000Y-176570000D03*
X42940000Y-176570000D03*
X45480000Y-176570000D03*
X48020000Y-176570000D03*
X50560000Y-176570000D03*
X53100000Y-176570000D03*
X55640000Y-176570000D03*
X55640000Y-184190000D03*
X53100000Y-184190000D03*
X50560000Y-184190000D03*
X48020000Y-184190000D03*
X45480000Y-184190000D03*
X42940000Y-184190000D03*
D48*
X40400000Y-184190000D03*
%TD*%
D49*
%TO.C,RV2*%
X117630000Y-153340000D03*
X117630000Y-158340000D03*
X117630000Y-163340000D03*
%TD*%
D43*
%TO.C,J6*%
X106520000Y-139017500D03*
D42*
X101520000Y-139017500D03*
%TD*%
D50*
%TO.C,R1*%
X70065000Y-150190000D03*
X72605000Y-150190000D03*
%TD*%
%TO.C,R4*%
X68580000Y-103230000D03*
X71120000Y-103230000D03*
%TD*%
D43*
%TO.C,J4*%
X116980000Y-140320000D03*
D51*
X116980000Y-145320000D03*
%TD*%
D43*
%TO.C,J3*%
X118967500Y-97750000D03*
D51*
X118967500Y-102750000D03*
%TD*%
D50*
%TO.C,C9*%
X93010000Y-113914888D03*
D52*
X93010000Y-111414888D03*
%TD*%
D53*
%TO.C,C1*%
X93620000Y-153542323D03*
D54*
X93620000Y-150042323D03*
%TD*%
D50*
%TO.C,R11*%
X108505000Y-149920000D03*
X105965000Y-149920000D03*
%TD*%
%TO.C,R13*%
X105580000Y-174480000D03*
X108120000Y-174480000D03*
%TD*%
D43*
%TO.C,J2*%
X118967500Y-85250000D03*
D51*
X118967500Y-90250000D03*
%TD*%
D43*
%TO.C,J1*%
X50750000Y-86967500D03*
D42*
X45750000Y-86967500D03*
%TD*%
D49*
%TO.C,RV3*%
X117210000Y-174180000D03*
X117210000Y-179180000D03*
X117210000Y-184180000D03*
%TD*%
D55*
%TO.C,U4*%
X73860000Y-168390000D03*
X73860000Y-165850000D03*
X73860000Y-163310000D03*
X73860000Y-160770000D03*
X81480000Y-160770000D03*
X81480000Y-163310000D03*
X81480000Y-165850000D03*
D56*
X81480000Y-168390000D03*
%TD*%
D50*
%TO.C,C6*%
X71075000Y-109524888D03*
D52*
X71075000Y-107024888D03*
%TD*%
D57*
%TO.C,C7*%
X104010000Y-114564785D03*
D58*
X104010000Y-109564785D03*
%TD*%
D59*
%TO.C,C5*%
X81270000Y-105230000D03*
X78770000Y-105230000D03*
%TD*%
D57*
%TO.C,D1*%
X54230000Y-96692500D03*
X50420000Y-96692500D03*
X46610000Y-96692500D03*
D60*
X42800000Y-96692500D03*
%TD*%
D50*
%TO.C,R9*%
X105495000Y-161950000D03*
X108035000Y-161950000D03*
%TD*%
%TO.C,R3*%
X63070000Y-106100000D03*
X65610000Y-106100000D03*
%TD*%
D45*
%TO.C,U1*%
X86220000Y-146170000D03*
X83680000Y-146170000D03*
D44*
X81140000Y-146170000D03*
%TD*%
D49*
%TO.C,RV1*%
X118500000Y-110975000D03*
X118500000Y-115975000D03*
X118500000Y-120975000D03*
%TD*%
D50*
%TO.C,R14*%
X61270000Y-151575000D03*
X61270000Y-154115000D03*
%TD*%
D45*
%TO.C,U3*%
X100040000Y-96445000D03*
X97500000Y-96445000D03*
D44*
X94960000Y-96445000D03*
%TD*%
D53*
%TO.C,C4*%
X82300000Y-115320000D03*
D61*
X78800000Y-115320000D03*
%TD*%
D50*
%TO.C,C3*%
X79860000Y-150710000D03*
D62*
X82360000Y-150710000D03*
%TD*%
D50*
%TO.C,R2*%
X72790000Y-146140000D03*
X70250000Y-146140000D03*
%TD*%
D63*
%TO.C,K1*%
X56450000Y-103450000D03*
D64*
X56500000Y-115700000D03*
X44450000Y-115650000D03*
D63*
X44450000Y-103450000D03*
D64*
X50500000Y-101500000D03*
%TD*%
D57*
%TO.C,R7*%
X95170000Y-161050000D03*
X100250000Y-161050000D03*
%TD*%
D50*
%TO.C,R15*%
X45095000Y-187910000D03*
X47635000Y-187910000D03*
%TD*%
%TO.C,R6*%
X64815000Y-114055000D03*
X64815000Y-116595000D03*
%TD*%
D43*
%TO.C,J7*%
X51230000Y-138320000D03*
D42*
X46230000Y-138320000D03*
%TD*%
D50*
%TO.C,R8*%
X66970000Y-163855000D03*
X66970000Y-161315000D03*
%TD*%
%TO.C,R16*%
X108585000Y-146160000D03*
X106045000Y-146160000D03*
%TD*%
%TO.C,R12*%
X62250000Y-163685000D03*
X62250000Y-161145000D03*
%TD*%
D43*
%TO.C,J5*%
X51467500Y-125467500D03*
D42*
X46467500Y-125467500D03*
%TD*%
D59*
%TO.C,C2*%
X48880000Y-144590000D03*
X51380000Y-144590000D03*
%TD*%
%TO.C,C8*%
X81270000Y-100840000D03*
X78770000Y-100840000D03*
%TD*%
D43*
%TO.C,J8*%
X64750000Y-124967500D03*
D42*
X59750000Y-124967500D03*
%TD*%
D50*
%TO.C,R5*%
X65665000Y-110060000D03*
X63125000Y-110060000D03*
%TD*%
%TO.C,R10*%
X96455000Y-103710000D03*
X98995000Y-103710000D03*
%TD*%
D65*
%TO.C,U8*%
X62860000Y-177850000D03*
X65400000Y-177850000D03*
X67940000Y-177850000D03*
X70480000Y-177850000D03*
X73020000Y-177850000D03*
X75560000Y-177850000D03*
X78100000Y-177850000D03*
X80640000Y-177850000D03*
X80640000Y-185470000D03*
X78100000Y-185470000D03*
X75560000Y-185470000D03*
X73020000Y-185470000D03*
X70480000Y-185470000D03*
X67940000Y-185470000D03*
X65400000Y-185470000D03*
D66*
X62860000Y-185470000D03*
%TD*%
D41*
%TO.C,U5*%
X55360000Y-172240000D03*
X52820000Y-172240000D03*
X50280000Y-172240000D03*
X47740000Y-172240000D03*
X45200000Y-172240000D03*
X42660000Y-172240000D03*
X40120000Y-172240000D03*
X40120000Y-164620000D03*
X42660000Y-164620000D03*
X45200000Y-164620000D03*
X47740000Y-164620000D03*
X50280000Y-164620000D03*
X52820000Y-164620000D03*
D40*
X55360000Y-164620000D03*
%TD*%
M02*
